G04 #@! TF.GenerationSoftware,KiCad,Pcbnew,5.1.5+dfsg1-2build2*
G04 #@! TF.CreationDate,2020-09-11T18:15:35+01:00*
G04 #@! TF.ProjectId,lhc_tijolo32_board,6c68635f-7469-46a6-9f6c-6f33325f626f,rev?*
G04 #@! TF.SameCoordinates,Original*
G04 #@! TF.FileFunction,Soldermask,Top*
G04 #@! TF.FilePolarity,Negative*
%FSLAX46Y46*%
G04 Gerber Fmt 4.6, Leading zero omitted, Abs format (unit mm)*
G04 Created by KiCad (PCBNEW 5.1.5+dfsg1-2build2) date 2020-09-11 18:15:35*
%MOMM*%
%LPD*%
G04 APERTURE LIST*
%ADD10C,0.100000*%
G04 APERTURE END LIST*
D10*
G36*
X135915400Y-119405400D02*
G01*
X133832600Y-119405400D01*
X133832600Y-117322600D01*
X135915400Y-117322600D01*
X135915400Y-119405400D01*
G37*
G36*
X113055400Y-119405400D02*
G01*
X110972600Y-119405400D01*
X110972600Y-117322600D01*
X113055400Y-117322600D01*
X113055400Y-119405400D01*
G37*
G36*
X132218430Y-118700550D02*
G01*
X130417570Y-118700550D01*
X130417570Y-116198650D01*
X132218430Y-116198650D01*
X132218430Y-118700550D01*
G37*
G36*
X116978430Y-118700550D02*
G01*
X115177570Y-118700550D01*
X115177570Y-116198650D01*
X116978430Y-116198650D01*
X116978430Y-118700550D01*
G37*
G36*
X119476212Y-115900249D02*
G01*
X119570651Y-115928897D01*
X119657687Y-115975418D01*
X119733975Y-116038025D01*
X119796582Y-116114313D01*
X119843103Y-116201348D01*
X119871751Y-116295787D01*
X119879000Y-116369388D01*
X119879000Y-117218612D01*
X119871751Y-117292213D01*
X119843103Y-117386652D01*
X119796582Y-117473687D01*
X119733975Y-117549975D01*
X119657687Y-117612582D01*
X119570652Y-117659103D01*
X119476213Y-117687751D01*
X119378000Y-117697424D01*
X119279788Y-117687751D01*
X119185349Y-117659103D01*
X119098314Y-117612582D01*
X119022026Y-117549975D01*
X118959419Y-117473687D01*
X118912898Y-117386652D01*
X118884250Y-117292213D01*
X118877001Y-117218612D01*
X118877000Y-117218602D01*
X118877000Y-116369389D01*
X118884249Y-116295788D01*
X118912897Y-116201349D01*
X118959418Y-116114313D01*
X119022025Y-116038025D01*
X119098313Y-115975418D01*
X119185348Y-115928897D01*
X119279787Y-115900249D01*
X119378000Y-115890576D01*
X119476212Y-115900249D01*
G37*
G36*
X128116212Y-115900249D02*
G01*
X128210651Y-115928897D01*
X128297687Y-115975418D01*
X128373975Y-116038025D01*
X128436582Y-116114313D01*
X128483103Y-116201348D01*
X128511751Y-116295787D01*
X128519000Y-116369388D01*
X128519000Y-117218612D01*
X128511751Y-117292213D01*
X128483103Y-117386652D01*
X128436582Y-117473687D01*
X128373975Y-117549975D01*
X128297687Y-117612582D01*
X128210652Y-117659103D01*
X128116213Y-117687751D01*
X128018000Y-117697424D01*
X127919788Y-117687751D01*
X127825349Y-117659103D01*
X127738314Y-117612582D01*
X127662026Y-117549975D01*
X127599419Y-117473687D01*
X127552898Y-117386652D01*
X127524250Y-117292213D01*
X127517001Y-117218612D01*
X127517000Y-117218602D01*
X127517000Y-116369389D01*
X127524249Y-116295788D01*
X127552897Y-116201349D01*
X127599418Y-116114313D01*
X127662025Y-116038025D01*
X127738313Y-115975418D01*
X127825348Y-115928897D01*
X127919787Y-115900249D01*
X128018000Y-115890576D01*
X128116212Y-115900249D01*
G37*
G36*
X112317765Y-114822620D02*
G01*
X112507288Y-114901123D01*
X112677854Y-115015092D01*
X112822908Y-115160146D01*
X112822909Y-115160148D01*
X112936878Y-115330714D01*
X113015380Y-115520235D01*
X113055400Y-115721430D01*
X113055400Y-115926570D01*
X113015380Y-116127765D01*
X112986019Y-116198650D01*
X112936877Y-116317288D01*
X112822908Y-116487854D01*
X112677854Y-116632908D01*
X112507288Y-116746877D01*
X112507287Y-116746878D01*
X112507286Y-116746878D01*
X112317765Y-116825380D01*
X112116570Y-116865400D01*
X111911430Y-116865400D01*
X111710235Y-116825380D01*
X111520714Y-116746878D01*
X111520713Y-116746878D01*
X111520712Y-116746877D01*
X111350146Y-116632908D01*
X111205092Y-116487854D01*
X111091123Y-116317288D01*
X111041982Y-116198650D01*
X111012620Y-116127765D01*
X110972600Y-115926570D01*
X110972600Y-115721430D01*
X111012620Y-115520235D01*
X111091122Y-115330714D01*
X111205091Y-115160148D01*
X111205092Y-115160146D01*
X111350146Y-115015092D01*
X111520712Y-114901123D01*
X111710235Y-114822620D01*
X111911430Y-114782600D01*
X112116570Y-114782600D01*
X112317765Y-114822620D01*
G37*
G36*
X135177765Y-114822620D02*
G01*
X135367288Y-114901123D01*
X135537854Y-115015092D01*
X135682908Y-115160146D01*
X135682909Y-115160148D01*
X135796878Y-115330714D01*
X135875380Y-115520235D01*
X135915400Y-115721430D01*
X135915400Y-115926570D01*
X135875380Y-116127765D01*
X135846019Y-116198650D01*
X135796877Y-116317288D01*
X135682908Y-116487854D01*
X135537854Y-116632908D01*
X135367288Y-116746877D01*
X135367287Y-116746878D01*
X135367286Y-116746878D01*
X135177765Y-116825380D01*
X134976570Y-116865400D01*
X134771430Y-116865400D01*
X134570235Y-116825380D01*
X134380714Y-116746878D01*
X134380713Y-116746878D01*
X134380712Y-116746877D01*
X134210146Y-116632908D01*
X134065092Y-116487854D01*
X133951123Y-116317288D01*
X133901982Y-116198650D01*
X133872620Y-116127765D01*
X133832600Y-115926570D01*
X133832600Y-115721430D01*
X133872620Y-115520235D01*
X133951122Y-115330714D01*
X134065091Y-115160148D01*
X134065092Y-115160146D01*
X134210146Y-115015092D01*
X134380712Y-114901123D01*
X134570235Y-114822620D01*
X134771430Y-114782600D01*
X134976570Y-114782600D01*
X135177765Y-114822620D01*
G37*
G36*
X135177765Y-112282620D02*
G01*
X135367288Y-112361123D01*
X135537854Y-112475092D01*
X135682908Y-112620146D01*
X135786788Y-112775613D01*
X135796878Y-112790714D01*
X135875380Y-112980235D01*
X135915400Y-113181430D01*
X135915400Y-113386570D01*
X135875380Y-113587765D01*
X135838243Y-113677423D01*
X135796877Y-113777288D01*
X135682908Y-113947854D01*
X135537854Y-114092908D01*
X135367288Y-114206877D01*
X135367287Y-114206878D01*
X135367286Y-114206878D01*
X135177765Y-114285380D01*
X134976570Y-114325400D01*
X134771430Y-114325400D01*
X134570235Y-114285380D01*
X134380714Y-114206878D01*
X134380713Y-114206878D01*
X134380712Y-114206877D01*
X134210146Y-114092908D01*
X134065092Y-113947854D01*
X133951123Y-113777288D01*
X133909758Y-113677423D01*
X133872620Y-113587765D01*
X133832600Y-113386570D01*
X133832600Y-113181430D01*
X133872620Y-112980235D01*
X133951122Y-112790714D01*
X133961212Y-112775613D01*
X134065092Y-112620146D01*
X134210146Y-112475092D01*
X134380712Y-112361123D01*
X134570235Y-112282620D01*
X134771430Y-112242600D01*
X134976570Y-112242600D01*
X135177765Y-112282620D01*
G37*
G36*
X112317765Y-112282620D02*
G01*
X112507288Y-112361123D01*
X112677854Y-112475092D01*
X112822908Y-112620146D01*
X112926788Y-112775613D01*
X112936878Y-112790714D01*
X113015380Y-112980235D01*
X113055400Y-113181430D01*
X113055400Y-113386570D01*
X113015380Y-113587765D01*
X112978243Y-113677423D01*
X112936877Y-113777288D01*
X112822908Y-113947854D01*
X112677854Y-114092908D01*
X112507288Y-114206877D01*
X112507287Y-114206878D01*
X112507286Y-114206878D01*
X112317765Y-114285380D01*
X112116570Y-114325400D01*
X111911430Y-114325400D01*
X111710235Y-114285380D01*
X111520714Y-114206878D01*
X111520713Y-114206878D01*
X111520712Y-114206877D01*
X111350146Y-114092908D01*
X111205092Y-113947854D01*
X111091123Y-113777288D01*
X111049758Y-113677423D01*
X111012620Y-113587765D01*
X110972600Y-113386570D01*
X110972600Y-113181430D01*
X111012620Y-112980235D01*
X111091122Y-112790714D01*
X111101212Y-112775613D01*
X111205092Y-112620146D01*
X111350146Y-112475092D01*
X111520712Y-112361123D01*
X111710235Y-112282620D01*
X111911430Y-112242600D01*
X112116570Y-112242600D01*
X112317765Y-112282620D01*
G37*
G36*
X128116212Y-111580249D02*
G01*
X128210651Y-111608897D01*
X128297687Y-111655418D01*
X128373975Y-111718025D01*
X128436582Y-111794313D01*
X128483103Y-111881348D01*
X128511751Y-111975787D01*
X128519000Y-112049388D01*
X128519000Y-113198612D01*
X128511751Y-113272213D01*
X128483103Y-113366652D01*
X128436582Y-113453687D01*
X128373975Y-113529975D01*
X128297687Y-113592582D01*
X128210652Y-113639103D01*
X128116213Y-113667751D01*
X128018000Y-113677424D01*
X127919788Y-113667751D01*
X127825349Y-113639103D01*
X127738314Y-113592582D01*
X127662026Y-113529975D01*
X127599419Y-113453687D01*
X127552898Y-113366652D01*
X127524250Y-113272213D01*
X127517001Y-113198612D01*
X127517000Y-112049389D01*
X127524249Y-111975788D01*
X127552897Y-111881349D01*
X127599418Y-111794313D01*
X127662025Y-111718025D01*
X127738313Y-111655418D01*
X127825348Y-111608897D01*
X127919787Y-111580249D01*
X128018000Y-111570576D01*
X128116212Y-111580249D01*
G37*
G36*
X119476212Y-111580249D02*
G01*
X119570651Y-111608897D01*
X119657687Y-111655418D01*
X119733975Y-111718025D01*
X119796582Y-111794313D01*
X119843103Y-111881348D01*
X119871751Y-111975787D01*
X119879000Y-112049388D01*
X119879000Y-113198612D01*
X119871751Y-113272213D01*
X119843103Y-113366652D01*
X119796582Y-113453687D01*
X119733975Y-113529975D01*
X119657687Y-113592582D01*
X119570652Y-113639103D01*
X119476213Y-113667751D01*
X119378000Y-113677424D01*
X119279788Y-113667751D01*
X119185349Y-113639103D01*
X119098314Y-113592582D01*
X119022026Y-113529975D01*
X118959419Y-113453687D01*
X118912898Y-113366652D01*
X118884250Y-113272213D01*
X118877001Y-113198612D01*
X118877000Y-112049389D01*
X118884249Y-111975788D01*
X118912897Y-111881349D01*
X118959418Y-111794313D01*
X119022025Y-111718025D01*
X119098313Y-111655418D01*
X119185348Y-111608897D01*
X119279787Y-111580249D01*
X119378000Y-111570576D01*
X119476212Y-111580249D01*
G37*
G36*
X127249000Y-112675000D02*
G01*
X126957163Y-112675000D01*
X126932777Y-112677402D01*
X126909328Y-112684515D01*
X126887717Y-112696066D01*
X126868775Y-112711611D01*
X126853230Y-112730553D01*
X126841679Y-112752164D01*
X126834566Y-112775613D01*
X126832164Y-112799999D01*
X126834566Y-112824385D01*
X126841679Y-112847834D01*
X126853230Y-112869445D01*
X126854246Y-112870683D01*
X126899054Y-112937742D01*
X126916654Y-112980235D01*
X126925511Y-113001617D01*
X126939000Y-113069430D01*
X126939000Y-113138570D01*
X126925511Y-113206383D01*
X126925510Y-113206385D01*
X126899054Y-113270258D01*
X126860640Y-113327748D01*
X126811748Y-113376640D01*
X126754258Y-113415054D01*
X126702182Y-113436624D01*
X126690383Y-113441511D01*
X126622570Y-113455000D01*
X126553430Y-113455000D01*
X126485617Y-113441511D01*
X126473818Y-113436624D01*
X126421742Y-113415054D01*
X126364252Y-113376640D01*
X126315360Y-113327748D01*
X126276946Y-113270258D01*
X126250490Y-113206385D01*
X126250489Y-113206383D01*
X126237000Y-113138570D01*
X126237000Y-113069430D01*
X126250489Y-113001617D01*
X126259346Y-112980235D01*
X126276946Y-112937742D01*
X126321754Y-112870683D01*
X126322770Y-112869445D01*
X126334321Y-112847834D01*
X126341434Y-112824385D01*
X126343836Y-112799999D01*
X126341434Y-112775613D01*
X126334321Y-112752164D01*
X126322770Y-112730553D01*
X126307225Y-112711611D01*
X126288283Y-112696066D01*
X126266672Y-112684515D01*
X126243223Y-112677402D01*
X126218837Y-112675000D01*
X121177163Y-112675000D01*
X121152777Y-112677402D01*
X121129328Y-112684515D01*
X121107717Y-112696066D01*
X121088775Y-112711611D01*
X121073230Y-112730553D01*
X121061679Y-112752164D01*
X121054566Y-112775613D01*
X121052164Y-112799999D01*
X121054566Y-112824385D01*
X121061679Y-112847834D01*
X121073230Y-112869445D01*
X121074246Y-112870683D01*
X121119054Y-112937742D01*
X121136654Y-112980235D01*
X121145511Y-113001617D01*
X121159000Y-113069430D01*
X121159000Y-113138570D01*
X121145511Y-113206383D01*
X121145510Y-113206385D01*
X121119054Y-113270258D01*
X121080640Y-113327748D01*
X121031748Y-113376640D01*
X120974258Y-113415054D01*
X120922182Y-113436624D01*
X120910383Y-113441511D01*
X120842570Y-113455000D01*
X120773430Y-113455000D01*
X120705617Y-113441511D01*
X120693818Y-113436624D01*
X120641742Y-113415054D01*
X120584252Y-113376640D01*
X120535360Y-113327748D01*
X120496946Y-113270258D01*
X120470490Y-113206385D01*
X120470489Y-113206383D01*
X120457000Y-113138570D01*
X120457000Y-113069430D01*
X120470489Y-113001617D01*
X120479346Y-112980235D01*
X120496946Y-112937742D01*
X120541754Y-112870683D01*
X120542770Y-112869445D01*
X120554321Y-112847834D01*
X120561434Y-112824385D01*
X120563836Y-112799999D01*
X120561434Y-112775613D01*
X120554321Y-112752164D01*
X120542770Y-112730553D01*
X120527225Y-112711611D01*
X120508283Y-112696066D01*
X120486672Y-112684515D01*
X120463223Y-112677402D01*
X120438837Y-112675000D01*
X120147000Y-112675000D01*
X120147000Y-111413000D01*
X127249000Y-111413000D01*
X127249000Y-112675000D01*
G37*
G36*
X132218430Y-112401350D02*
G01*
X130417570Y-112401350D01*
X130417570Y-109899450D01*
X132218430Y-109899450D01*
X132218430Y-112401350D01*
G37*
G36*
X116978430Y-112401350D02*
G01*
X115177570Y-112401350D01*
X115177570Y-109899450D01*
X116978430Y-109899450D01*
X116978430Y-112401350D01*
G37*
G36*
X135177765Y-109742620D02*
G01*
X135367288Y-109821123D01*
X135537854Y-109935092D01*
X135682908Y-110080146D01*
X135682909Y-110080148D01*
X135796878Y-110250714D01*
X135869852Y-110426890D01*
X135875380Y-110440235D01*
X135915400Y-110641431D01*
X135915400Y-110846569D01*
X135875380Y-111047765D01*
X135796877Y-111237288D01*
X135682908Y-111407854D01*
X135537854Y-111552908D01*
X135367288Y-111666877D01*
X135367287Y-111666878D01*
X135367286Y-111666878D01*
X135177765Y-111745380D01*
X134976570Y-111785400D01*
X134771430Y-111785400D01*
X134570235Y-111745380D01*
X134380714Y-111666878D01*
X134380713Y-111666878D01*
X134380712Y-111666877D01*
X134210146Y-111552908D01*
X134065092Y-111407854D01*
X133951123Y-111237288D01*
X133872620Y-111047765D01*
X133832600Y-110846569D01*
X133832600Y-110641431D01*
X133872620Y-110440235D01*
X133878148Y-110426890D01*
X133951122Y-110250714D01*
X134065091Y-110080148D01*
X134065092Y-110080146D01*
X134210146Y-109935092D01*
X134380712Y-109821123D01*
X134570235Y-109742620D01*
X134771430Y-109702600D01*
X134976570Y-109702600D01*
X135177765Y-109742620D01*
G37*
G36*
X112317765Y-109742620D02*
G01*
X112507288Y-109821123D01*
X112677854Y-109935092D01*
X112822908Y-110080146D01*
X112822909Y-110080148D01*
X112936878Y-110250714D01*
X113009852Y-110426890D01*
X113015380Y-110440235D01*
X113055400Y-110641431D01*
X113055400Y-110846569D01*
X113015380Y-111047765D01*
X112936877Y-111237288D01*
X112822908Y-111407854D01*
X112677854Y-111552908D01*
X112507288Y-111666877D01*
X112507287Y-111666878D01*
X112507286Y-111666878D01*
X112317765Y-111745380D01*
X112116570Y-111785400D01*
X111911430Y-111785400D01*
X111710235Y-111745380D01*
X111520714Y-111666878D01*
X111520713Y-111666878D01*
X111520712Y-111666877D01*
X111350146Y-111552908D01*
X111205092Y-111407854D01*
X111091123Y-111237288D01*
X111012620Y-111047765D01*
X110972600Y-110846569D01*
X110972600Y-110641431D01*
X111012620Y-110440235D01*
X111018148Y-110426890D01*
X111091122Y-110250714D01*
X111205091Y-110080148D01*
X111205092Y-110080146D01*
X111350146Y-109935092D01*
X111520712Y-109821123D01*
X111710235Y-109742620D01*
X111911430Y-109702600D01*
X112116570Y-109702600D01*
X112317765Y-109742620D01*
G37*
G36*
X118426591Y-109460085D02*
G01*
X118460569Y-109470393D01*
X118491890Y-109487134D01*
X118519339Y-109509661D01*
X118541866Y-109537110D01*
X118558607Y-109568431D01*
X118568915Y-109602409D01*
X118573000Y-109643890D01*
X118573000Y-110320110D01*
X118568915Y-110361591D01*
X118558607Y-110395569D01*
X118541866Y-110426890D01*
X118519339Y-110454339D01*
X118491890Y-110476866D01*
X118460569Y-110493607D01*
X118426591Y-110503915D01*
X118385110Y-110508000D01*
X117783890Y-110508000D01*
X117742409Y-110503915D01*
X117708431Y-110493607D01*
X117677110Y-110476866D01*
X117649661Y-110454339D01*
X117627134Y-110426890D01*
X117610393Y-110395569D01*
X117600085Y-110361591D01*
X117596000Y-110320110D01*
X117596000Y-109643890D01*
X117600085Y-109602409D01*
X117610393Y-109568431D01*
X117627134Y-109537110D01*
X117649661Y-109509661D01*
X117677110Y-109487134D01*
X117708431Y-109470393D01*
X117742409Y-109460085D01*
X117783890Y-109456000D01*
X118385110Y-109456000D01*
X118426591Y-109460085D01*
G37*
G36*
X128917091Y-109460085D02*
G01*
X128951069Y-109470393D01*
X128982390Y-109487134D01*
X129009839Y-109509661D01*
X129032366Y-109537110D01*
X129049107Y-109568431D01*
X129059415Y-109602409D01*
X129063500Y-109643890D01*
X129063500Y-110320110D01*
X129059415Y-110361591D01*
X129049107Y-110395569D01*
X129032366Y-110426890D01*
X129009839Y-110454339D01*
X128982390Y-110476866D01*
X128951069Y-110493607D01*
X128917091Y-110503915D01*
X128875610Y-110508000D01*
X128274390Y-110508000D01*
X128232909Y-110503915D01*
X128198931Y-110493607D01*
X128167610Y-110476866D01*
X128140161Y-110454339D01*
X128117634Y-110426890D01*
X128100893Y-110395569D01*
X128090585Y-110361591D01*
X128086500Y-110320110D01*
X128086500Y-109643890D01*
X128090585Y-109602409D01*
X128100893Y-109568431D01*
X128117634Y-109537110D01*
X128140161Y-109509661D01*
X128167610Y-109487134D01*
X128198931Y-109470393D01*
X128232909Y-109460085D01*
X128274390Y-109456000D01*
X128875610Y-109456000D01*
X128917091Y-109460085D01*
G37*
G36*
X127342091Y-109460085D02*
G01*
X127376069Y-109470393D01*
X127407390Y-109487134D01*
X127434839Y-109509661D01*
X127457366Y-109537110D01*
X127474107Y-109568431D01*
X127484415Y-109602409D01*
X127488500Y-109643890D01*
X127488500Y-110320110D01*
X127484415Y-110361591D01*
X127474107Y-110395569D01*
X127457366Y-110426890D01*
X127434839Y-110454339D01*
X127407390Y-110476866D01*
X127376069Y-110493607D01*
X127342091Y-110503915D01*
X127300610Y-110508000D01*
X126699390Y-110508000D01*
X126657909Y-110503915D01*
X126623931Y-110493607D01*
X126592610Y-110476866D01*
X126565161Y-110454339D01*
X126542634Y-110426890D01*
X126525893Y-110395569D01*
X126515585Y-110361591D01*
X126511500Y-110320110D01*
X126511500Y-109643890D01*
X126515585Y-109602409D01*
X126525893Y-109568431D01*
X126542634Y-109537110D01*
X126565161Y-109509661D01*
X126592610Y-109487134D01*
X126623931Y-109470393D01*
X126657909Y-109460085D01*
X126699390Y-109456000D01*
X127300610Y-109456000D01*
X127342091Y-109460085D01*
G37*
G36*
X120001591Y-109460085D02*
G01*
X120035569Y-109470393D01*
X120066890Y-109487134D01*
X120094339Y-109509661D01*
X120116866Y-109537110D01*
X120133607Y-109568431D01*
X120143915Y-109602409D01*
X120148000Y-109643890D01*
X120148000Y-110320110D01*
X120143915Y-110361591D01*
X120133607Y-110395569D01*
X120116866Y-110426890D01*
X120094339Y-110454339D01*
X120066890Y-110476866D01*
X120035569Y-110493607D01*
X120001591Y-110503915D01*
X119960110Y-110508000D01*
X119358890Y-110508000D01*
X119317409Y-110503915D01*
X119283431Y-110493607D01*
X119252110Y-110476866D01*
X119224661Y-110454339D01*
X119202134Y-110426890D01*
X119185393Y-110395569D01*
X119175085Y-110361591D01*
X119171000Y-110320110D01*
X119171000Y-109643890D01*
X119175085Y-109602409D01*
X119185393Y-109568431D01*
X119202134Y-109537110D01*
X119224661Y-109509661D01*
X119252110Y-109487134D01*
X119283431Y-109470393D01*
X119317409Y-109460085D01*
X119358890Y-109456000D01*
X119960110Y-109456000D01*
X120001591Y-109460085D01*
G37*
G36*
X135177765Y-107202620D02*
G01*
X135367288Y-107281123D01*
X135537854Y-107395092D01*
X135682908Y-107540146D01*
X135796877Y-107710712D01*
X135796878Y-107710714D01*
X135875380Y-107900235D01*
X135915400Y-108101430D01*
X135915400Y-108306570D01*
X135875380Y-108507765D01*
X135805555Y-108676339D01*
X135796877Y-108697288D01*
X135682908Y-108867854D01*
X135537854Y-109012908D01*
X135367288Y-109126877D01*
X135367287Y-109126878D01*
X135367286Y-109126878D01*
X135177765Y-109205380D01*
X134976570Y-109245400D01*
X134771430Y-109245400D01*
X134570235Y-109205380D01*
X134380714Y-109126878D01*
X134380713Y-109126878D01*
X134380712Y-109126877D01*
X134210146Y-109012908D01*
X134065092Y-108867854D01*
X133951123Y-108697288D01*
X133942446Y-108676339D01*
X133872620Y-108507765D01*
X133832600Y-108306570D01*
X133832600Y-108101430D01*
X133872620Y-107900235D01*
X133951122Y-107710714D01*
X133951123Y-107710712D01*
X134065092Y-107540146D01*
X134210146Y-107395092D01*
X134380712Y-107281123D01*
X134570235Y-107202620D01*
X134771430Y-107162600D01*
X134976570Y-107162600D01*
X135177765Y-107202620D01*
G37*
G36*
X112317765Y-107202620D02*
G01*
X112507288Y-107281123D01*
X112677854Y-107395092D01*
X112822908Y-107540146D01*
X112936877Y-107710712D01*
X112936878Y-107710714D01*
X113015380Y-107900235D01*
X113055400Y-108101430D01*
X113055400Y-108306570D01*
X113015380Y-108507765D01*
X112945555Y-108676339D01*
X112936877Y-108697288D01*
X112822908Y-108867854D01*
X112677854Y-109012908D01*
X112507288Y-109126877D01*
X112507287Y-109126878D01*
X112507286Y-109126878D01*
X112317765Y-109205380D01*
X112116570Y-109245400D01*
X111911430Y-109245400D01*
X111710235Y-109205380D01*
X111520714Y-109126878D01*
X111520713Y-109126878D01*
X111520712Y-109126877D01*
X111350146Y-109012908D01*
X111205092Y-108867854D01*
X111091123Y-108697288D01*
X111082446Y-108676339D01*
X111012620Y-108507765D01*
X110972600Y-108306570D01*
X110972600Y-108101430D01*
X111012620Y-107900235D01*
X111091122Y-107710714D01*
X111091123Y-107710712D01*
X111205092Y-107540146D01*
X111350146Y-107395092D01*
X111520712Y-107281123D01*
X111710235Y-107202620D01*
X111911430Y-107162600D01*
X112116570Y-107162600D01*
X112317765Y-107202620D01*
G37*
G36*
X132193591Y-107682085D02*
G01*
X132227569Y-107692393D01*
X132258890Y-107709134D01*
X132286339Y-107731661D01*
X132308866Y-107759110D01*
X132325607Y-107790431D01*
X132335915Y-107824409D01*
X132340000Y-107865890D01*
X132340000Y-108542110D01*
X132335915Y-108583591D01*
X132325607Y-108617569D01*
X132308866Y-108648890D01*
X132286339Y-108676339D01*
X132258890Y-108698866D01*
X132227569Y-108715607D01*
X132193591Y-108725915D01*
X132152110Y-108730000D01*
X131550890Y-108730000D01*
X131509409Y-108725915D01*
X131475431Y-108715607D01*
X131444110Y-108698866D01*
X131416661Y-108676339D01*
X131394134Y-108648890D01*
X131377393Y-108617569D01*
X131367085Y-108583591D01*
X131363000Y-108542110D01*
X131363000Y-107865890D01*
X131367085Y-107824409D01*
X131377393Y-107790431D01*
X131394134Y-107759110D01*
X131416661Y-107731661D01*
X131444110Y-107709134D01*
X131475431Y-107692393D01*
X131509409Y-107682085D01*
X131550890Y-107678000D01*
X132152110Y-107678000D01*
X132193591Y-107682085D01*
G37*
G36*
X130618591Y-107682085D02*
G01*
X130652569Y-107692393D01*
X130683890Y-107709134D01*
X130711339Y-107731661D01*
X130733866Y-107759110D01*
X130750607Y-107790431D01*
X130760915Y-107824409D01*
X130765000Y-107865890D01*
X130765000Y-108542110D01*
X130760915Y-108583591D01*
X130750607Y-108617569D01*
X130733866Y-108648890D01*
X130711339Y-108676339D01*
X130683890Y-108698866D01*
X130652569Y-108715607D01*
X130618591Y-108725915D01*
X130577110Y-108730000D01*
X129975890Y-108730000D01*
X129934409Y-108725915D01*
X129900431Y-108715607D01*
X129869110Y-108698866D01*
X129841661Y-108676339D01*
X129819134Y-108648890D01*
X129802393Y-108617569D01*
X129792085Y-108583591D01*
X129788000Y-108542110D01*
X129788000Y-107865890D01*
X129792085Y-107824409D01*
X129802393Y-107790431D01*
X129819134Y-107759110D01*
X129841661Y-107731661D01*
X129869110Y-107709134D01*
X129900431Y-107692393D01*
X129934409Y-107682085D01*
X129975890Y-107678000D01*
X130577110Y-107678000D01*
X130618591Y-107682085D01*
G37*
G36*
X124211928Y-106542764D02*
G01*
X124233009Y-106549160D01*
X124252445Y-106559548D01*
X124269476Y-106573524D01*
X124283452Y-106590555D01*
X124293840Y-106609991D01*
X124300236Y-106631072D01*
X124303000Y-106659140D01*
X124303000Y-108472860D01*
X124300236Y-108500928D01*
X124293840Y-108522009D01*
X124283452Y-108541445D01*
X124269476Y-108558476D01*
X124252445Y-108572452D01*
X124233009Y-108582840D01*
X124211928Y-108589236D01*
X124183860Y-108592000D01*
X123720140Y-108592000D01*
X123692072Y-108589236D01*
X123670991Y-108582840D01*
X123651555Y-108572452D01*
X123634524Y-108558476D01*
X123620548Y-108541445D01*
X123610160Y-108522009D01*
X123603764Y-108500928D01*
X123601000Y-108472860D01*
X123601000Y-106659140D01*
X123603764Y-106631072D01*
X123610160Y-106609991D01*
X123620548Y-106590555D01*
X123634524Y-106573524D01*
X123651555Y-106559548D01*
X123670991Y-106549160D01*
X123692072Y-106542764D01*
X123720140Y-106540000D01*
X124183860Y-106540000D01*
X124211928Y-106542764D01*
G37*
G36*
X128021928Y-106542764D02*
G01*
X128043009Y-106549160D01*
X128062445Y-106559548D01*
X128079476Y-106573524D01*
X128093452Y-106590555D01*
X128103840Y-106609991D01*
X128110236Y-106631072D01*
X128113000Y-106659140D01*
X128113000Y-108472860D01*
X128110236Y-108500928D01*
X128103840Y-108522009D01*
X128093452Y-108541445D01*
X128079476Y-108558476D01*
X128062445Y-108572452D01*
X128043009Y-108582840D01*
X128021928Y-108589236D01*
X127993860Y-108592000D01*
X127530140Y-108592000D01*
X127502072Y-108589236D01*
X127480991Y-108582840D01*
X127461555Y-108572452D01*
X127444524Y-108558476D01*
X127430548Y-108541445D01*
X127420160Y-108522009D01*
X127413764Y-108500928D01*
X127411000Y-108472860D01*
X127411000Y-106659140D01*
X127413764Y-106631072D01*
X127420160Y-106609991D01*
X127430548Y-106590555D01*
X127444524Y-106573524D01*
X127461555Y-106559548D01*
X127480991Y-106549160D01*
X127502072Y-106542764D01*
X127530140Y-106540000D01*
X127993860Y-106540000D01*
X128021928Y-106542764D01*
G37*
G36*
X126751928Y-106542764D02*
G01*
X126773009Y-106549160D01*
X126792445Y-106559548D01*
X126809476Y-106573524D01*
X126823452Y-106590555D01*
X126833840Y-106609991D01*
X126840236Y-106631072D01*
X126843000Y-106659140D01*
X126843000Y-108472860D01*
X126840236Y-108500928D01*
X126833840Y-108522009D01*
X126823452Y-108541445D01*
X126809476Y-108558476D01*
X126792445Y-108572452D01*
X126773009Y-108582840D01*
X126751928Y-108589236D01*
X126723860Y-108592000D01*
X126260140Y-108592000D01*
X126232072Y-108589236D01*
X126210991Y-108582840D01*
X126191555Y-108572452D01*
X126174524Y-108558476D01*
X126160548Y-108541445D01*
X126150160Y-108522009D01*
X126143764Y-108500928D01*
X126141000Y-108472860D01*
X126141000Y-106659140D01*
X126143764Y-106631072D01*
X126150160Y-106609991D01*
X126160548Y-106590555D01*
X126174524Y-106573524D01*
X126191555Y-106559548D01*
X126210991Y-106549160D01*
X126232072Y-106542764D01*
X126260140Y-106540000D01*
X126723860Y-106540000D01*
X126751928Y-106542764D01*
G37*
G36*
X122941928Y-106542764D02*
G01*
X122963009Y-106549160D01*
X122982445Y-106559548D01*
X122999476Y-106573524D01*
X123013452Y-106590555D01*
X123023840Y-106609991D01*
X123030236Y-106631072D01*
X123033000Y-106659140D01*
X123033000Y-108472860D01*
X123030236Y-108500928D01*
X123023840Y-108522009D01*
X123013452Y-108541445D01*
X122999476Y-108558476D01*
X122982445Y-108572452D01*
X122963009Y-108582840D01*
X122941928Y-108589236D01*
X122913860Y-108592000D01*
X122450140Y-108592000D01*
X122422072Y-108589236D01*
X122400991Y-108582840D01*
X122381555Y-108572452D01*
X122364524Y-108558476D01*
X122350548Y-108541445D01*
X122340160Y-108522009D01*
X122333764Y-108500928D01*
X122331000Y-108472860D01*
X122331000Y-106659140D01*
X122333764Y-106631072D01*
X122340160Y-106609991D01*
X122350548Y-106590555D01*
X122364524Y-106573524D01*
X122381555Y-106559548D01*
X122400991Y-106549160D01*
X122422072Y-106542764D01*
X122450140Y-106540000D01*
X122913860Y-106540000D01*
X122941928Y-106542764D01*
G37*
G36*
X121671928Y-106542764D02*
G01*
X121693009Y-106549160D01*
X121712445Y-106559548D01*
X121729476Y-106573524D01*
X121743452Y-106590555D01*
X121753840Y-106609991D01*
X121760236Y-106631072D01*
X121763000Y-106659140D01*
X121763000Y-108472860D01*
X121760236Y-108500928D01*
X121753840Y-108522009D01*
X121743452Y-108541445D01*
X121729476Y-108558476D01*
X121712445Y-108572452D01*
X121693009Y-108582840D01*
X121671928Y-108589236D01*
X121643860Y-108592000D01*
X121180140Y-108592000D01*
X121152072Y-108589236D01*
X121130991Y-108582840D01*
X121111555Y-108572452D01*
X121094524Y-108558476D01*
X121080548Y-108541445D01*
X121070160Y-108522009D01*
X121063764Y-108500928D01*
X121061000Y-108472860D01*
X121061000Y-106659140D01*
X121063764Y-106631072D01*
X121070160Y-106609991D01*
X121080548Y-106590555D01*
X121094524Y-106573524D01*
X121111555Y-106559548D01*
X121130991Y-106549160D01*
X121152072Y-106542764D01*
X121180140Y-106540000D01*
X121643860Y-106540000D01*
X121671928Y-106542764D01*
G37*
G36*
X120401928Y-106542764D02*
G01*
X120423009Y-106549160D01*
X120442445Y-106559548D01*
X120459476Y-106573524D01*
X120473452Y-106590555D01*
X120483840Y-106609991D01*
X120490236Y-106631072D01*
X120493000Y-106659140D01*
X120493000Y-108472860D01*
X120490236Y-108500928D01*
X120483840Y-108522009D01*
X120473452Y-108541445D01*
X120459476Y-108558476D01*
X120442445Y-108572452D01*
X120423009Y-108582840D01*
X120401928Y-108589236D01*
X120373860Y-108592000D01*
X119910140Y-108592000D01*
X119882072Y-108589236D01*
X119860991Y-108582840D01*
X119841555Y-108572452D01*
X119824524Y-108558476D01*
X119810548Y-108541445D01*
X119800160Y-108522009D01*
X119793764Y-108500928D01*
X119791000Y-108472860D01*
X119791000Y-106659140D01*
X119793764Y-106631072D01*
X119800160Y-106609991D01*
X119810548Y-106590555D01*
X119824524Y-106573524D01*
X119841555Y-106559548D01*
X119860991Y-106549160D01*
X119882072Y-106542764D01*
X119910140Y-106540000D01*
X120373860Y-106540000D01*
X120401928Y-106542764D01*
G37*
G36*
X125481928Y-106542764D02*
G01*
X125503009Y-106549160D01*
X125522445Y-106559548D01*
X125539476Y-106573524D01*
X125553452Y-106590555D01*
X125563840Y-106609991D01*
X125570236Y-106631072D01*
X125573000Y-106659140D01*
X125573000Y-108472860D01*
X125570236Y-108500928D01*
X125563840Y-108522009D01*
X125553452Y-108541445D01*
X125539476Y-108558476D01*
X125522445Y-108572452D01*
X125503009Y-108582840D01*
X125481928Y-108589236D01*
X125453860Y-108592000D01*
X124990140Y-108592000D01*
X124962072Y-108589236D01*
X124940991Y-108582840D01*
X124921555Y-108572452D01*
X124904524Y-108558476D01*
X124890548Y-108541445D01*
X124880160Y-108522009D01*
X124873764Y-108500928D01*
X124871000Y-108472860D01*
X124871000Y-106659140D01*
X124873764Y-106631072D01*
X124880160Y-106609991D01*
X124890548Y-106590555D01*
X124904524Y-106573524D01*
X124921555Y-106559548D01*
X124940991Y-106549160D01*
X124962072Y-106542764D01*
X124990140Y-106540000D01*
X125453860Y-106540000D01*
X125481928Y-106542764D01*
G37*
G36*
X119131928Y-106542764D02*
G01*
X119153009Y-106549160D01*
X119172445Y-106559548D01*
X119189476Y-106573524D01*
X119203452Y-106590555D01*
X119213840Y-106609991D01*
X119220236Y-106631072D01*
X119223000Y-106659140D01*
X119223000Y-108472860D01*
X119220236Y-108500928D01*
X119213840Y-108522009D01*
X119203452Y-108541445D01*
X119189476Y-108558476D01*
X119172445Y-108572452D01*
X119153009Y-108582840D01*
X119131928Y-108589236D01*
X119103860Y-108592000D01*
X118640140Y-108592000D01*
X118612072Y-108589236D01*
X118590991Y-108582840D01*
X118571555Y-108572452D01*
X118554524Y-108558476D01*
X118540548Y-108541445D01*
X118530160Y-108522009D01*
X118523764Y-108500928D01*
X118521000Y-108472860D01*
X118521000Y-106659140D01*
X118523764Y-106631072D01*
X118530160Y-106609991D01*
X118540548Y-106590555D01*
X118554524Y-106573524D01*
X118571555Y-106559548D01*
X118590991Y-106549160D01*
X118612072Y-106542764D01*
X118640140Y-106540000D01*
X119103860Y-106540000D01*
X119131928Y-106542764D01*
G37*
G36*
X115071000Y-108589000D02*
G01*
X114069000Y-108589000D01*
X114069000Y-107687000D01*
X115071000Y-107687000D01*
X115071000Y-108589000D01*
G37*
G36*
X117071000Y-107639000D02*
G01*
X116069000Y-107639000D01*
X116069000Y-106737000D01*
X117071000Y-106737000D01*
X117071000Y-107639000D01*
G37*
G36*
X112317765Y-104662620D02*
G01*
X112507288Y-104741123D01*
X112677854Y-104855092D01*
X112822908Y-105000146D01*
X112936877Y-105170712D01*
X113015380Y-105360235D01*
X113055400Y-105561431D01*
X113055400Y-105766569D01*
X113015380Y-105967765D01*
X112936877Y-106157288D01*
X112822908Y-106327854D01*
X112677854Y-106472908D01*
X112507288Y-106586877D01*
X112507287Y-106586878D01*
X112507286Y-106586878D01*
X112317765Y-106665380D01*
X112116570Y-106705400D01*
X111911430Y-106705400D01*
X111710235Y-106665380D01*
X111520714Y-106586878D01*
X111520713Y-106586878D01*
X111520712Y-106586877D01*
X111350146Y-106472908D01*
X111205092Y-106327854D01*
X111091123Y-106157288D01*
X111012620Y-105967765D01*
X110972600Y-105766569D01*
X110972600Y-105561431D01*
X111012620Y-105360235D01*
X111091123Y-105170712D01*
X111205092Y-105000146D01*
X111350146Y-104855092D01*
X111520712Y-104741123D01*
X111710235Y-104662620D01*
X111911430Y-104622600D01*
X112116570Y-104622600D01*
X112317765Y-104662620D01*
G37*
G36*
X135177765Y-104662620D02*
G01*
X135367288Y-104741123D01*
X135537854Y-104855092D01*
X135682908Y-105000146D01*
X135796877Y-105170712D01*
X135875380Y-105360235D01*
X135915400Y-105561431D01*
X135915400Y-105766569D01*
X135875380Y-105967765D01*
X135796877Y-106157288D01*
X135682908Y-106327854D01*
X135537854Y-106472908D01*
X135367288Y-106586877D01*
X135367287Y-106586878D01*
X135367286Y-106586878D01*
X135177765Y-106665380D01*
X134976570Y-106705400D01*
X134771430Y-106705400D01*
X134570235Y-106665380D01*
X134380714Y-106586878D01*
X134380713Y-106586878D01*
X134380712Y-106586877D01*
X134210146Y-106472908D01*
X134065092Y-106327854D01*
X133951123Y-106157288D01*
X133872620Y-105967765D01*
X133832600Y-105766569D01*
X133832600Y-105561431D01*
X133872620Y-105360235D01*
X133951123Y-105170712D01*
X134065092Y-105000146D01*
X134210146Y-104855092D01*
X134380712Y-104741123D01*
X134570235Y-104662620D01*
X134771430Y-104622600D01*
X134976570Y-104622600D01*
X135177765Y-104662620D01*
G37*
G36*
X115071000Y-106689000D02*
G01*
X114069000Y-106689000D01*
X114069000Y-105787000D01*
X115071000Y-105787000D01*
X115071000Y-106689000D01*
G37*
G36*
X132949000Y-105961000D02*
G01*
X131547000Y-105961000D01*
X131547000Y-104859000D01*
X132949000Y-104859000D01*
X132949000Y-105961000D01*
G37*
G36*
X130749000Y-105961000D02*
G01*
X129347000Y-105961000D01*
X129347000Y-104859000D01*
X130749000Y-104859000D01*
X130749000Y-105961000D01*
G37*
G36*
X135177765Y-102122620D02*
G01*
X135367288Y-102201123D01*
X135537854Y-102315092D01*
X135682908Y-102460146D01*
X135786651Y-102615408D01*
X135796878Y-102630714D01*
X135875380Y-102820235D01*
X135915400Y-103021430D01*
X135915400Y-103226570D01*
X135875380Y-103427765D01*
X135831517Y-103533661D01*
X135796877Y-103617288D01*
X135682908Y-103787854D01*
X135537854Y-103932908D01*
X135367288Y-104046877D01*
X135367287Y-104046878D01*
X135367286Y-104046878D01*
X135177765Y-104125380D01*
X134976570Y-104165400D01*
X134771430Y-104165400D01*
X134570235Y-104125380D01*
X134380714Y-104046878D01*
X134380713Y-104046878D01*
X134380712Y-104046877D01*
X134210146Y-103932908D01*
X134065092Y-103787854D01*
X133951123Y-103617288D01*
X133916484Y-103533661D01*
X133872620Y-103427765D01*
X133832600Y-103226570D01*
X133832600Y-103021430D01*
X133872620Y-102820235D01*
X133951122Y-102630714D01*
X133961349Y-102615408D01*
X134065092Y-102460146D01*
X134210146Y-102315092D01*
X134380712Y-102201123D01*
X134570235Y-102122620D01*
X134771430Y-102082600D01*
X134976570Y-102082600D01*
X135177765Y-102122620D01*
G37*
G36*
X112317765Y-102122620D02*
G01*
X112507288Y-102201123D01*
X112677854Y-102315092D01*
X112822908Y-102460146D01*
X112926651Y-102615408D01*
X112936878Y-102630714D01*
X113015380Y-102820235D01*
X113055400Y-103021430D01*
X113055400Y-103226570D01*
X113015380Y-103427765D01*
X112971517Y-103533661D01*
X112936877Y-103617288D01*
X112822908Y-103787854D01*
X112677854Y-103932908D01*
X112507288Y-104046877D01*
X112507287Y-104046878D01*
X112507286Y-104046878D01*
X112317765Y-104125380D01*
X112116570Y-104165400D01*
X111911430Y-104165400D01*
X111710235Y-104125380D01*
X111520714Y-104046878D01*
X111520713Y-104046878D01*
X111520712Y-104046877D01*
X111350146Y-103932908D01*
X111205092Y-103787854D01*
X111091123Y-103617288D01*
X111056484Y-103533661D01*
X111012620Y-103427765D01*
X110972600Y-103226570D01*
X110972600Y-103021430D01*
X111012620Y-102820235D01*
X111091122Y-102630714D01*
X111101349Y-102615408D01*
X111205092Y-102460146D01*
X111350146Y-102315092D01*
X111520712Y-102201123D01*
X111710235Y-102122620D01*
X111911430Y-102082600D01*
X112116570Y-102082600D01*
X112317765Y-102122620D01*
G37*
G36*
X132949000Y-104161000D02*
G01*
X131547000Y-104161000D01*
X131547000Y-103059000D01*
X132949000Y-103059000D01*
X132949000Y-104161000D01*
G37*
G36*
X130749000Y-104161000D02*
G01*
X129347000Y-104161000D01*
X129347000Y-103059000D01*
X130749000Y-103059000D01*
X130749000Y-104161000D01*
G37*
G36*
X120401928Y-101592764D02*
G01*
X120423009Y-101599160D01*
X120442445Y-101609548D01*
X120459476Y-101623524D01*
X120473452Y-101640555D01*
X120483840Y-101659991D01*
X120490236Y-101681072D01*
X120493000Y-101709140D01*
X120493000Y-103522860D01*
X120490236Y-103550928D01*
X120483840Y-103572009D01*
X120473452Y-103591445D01*
X120459476Y-103608476D01*
X120442445Y-103622452D01*
X120423009Y-103632840D01*
X120401928Y-103639236D01*
X120373860Y-103642000D01*
X119910140Y-103642000D01*
X119882072Y-103639236D01*
X119860991Y-103632840D01*
X119841555Y-103622452D01*
X119824524Y-103608476D01*
X119810548Y-103591445D01*
X119800160Y-103572009D01*
X119793764Y-103550928D01*
X119791000Y-103522860D01*
X119791000Y-101709140D01*
X119793764Y-101681072D01*
X119800160Y-101659991D01*
X119810548Y-101640555D01*
X119824524Y-101623524D01*
X119841555Y-101609548D01*
X119860991Y-101599160D01*
X119882072Y-101592764D01*
X119910140Y-101590000D01*
X120373860Y-101590000D01*
X120401928Y-101592764D01*
G37*
G36*
X119131928Y-101592764D02*
G01*
X119153009Y-101599160D01*
X119172445Y-101609548D01*
X119189476Y-101623524D01*
X119203452Y-101640555D01*
X119213840Y-101659991D01*
X119220236Y-101681072D01*
X119223000Y-101709140D01*
X119223000Y-103522860D01*
X119220236Y-103550928D01*
X119213840Y-103572009D01*
X119203452Y-103591445D01*
X119189476Y-103608476D01*
X119172445Y-103622452D01*
X119153009Y-103632840D01*
X119131928Y-103639236D01*
X119103860Y-103642000D01*
X118640140Y-103642000D01*
X118612072Y-103639236D01*
X118590991Y-103632840D01*
X118571555Y-103622452D01*
X118554524Y-103608476D01*
X118540548Y-103591445D01*
X118530160Y-103572009D01*
X118523764Y-103550928D01*
X118521000Y-103522860D01*
X118521000Y-101709140D01*
X118523764Y-101681072D01*
X118530160Y-101659991D01*
X118540548Y-101640555D01*
X118554524Y-101623524D01*
X118571555Y-101609548D01*
X118590991Y-101599160D01*
X118612072Y-101592764D01*
X118640140Y-101590000D01*
X119103860Y-101590000D01*
X119131928Y-101592764D01*
G37*
G36*
X121671928Y-101592764D02*
G01*
X121693009Y-101599160D01*
X121712445Y-101609548D01*
X121729476Y-101623524D01*
X121743452Y-101640555D01*
X121753840Y-101659991D01*
X121760236Y-101681072D01*
X121763000Y-101709140D01*
X121763000Y-103522860D01*
X121760236Y-103550928D01*
X121753840Y-103572009D01*
X121743452Y-103591445D01*
X121729476Y-103608476D01*
X121712445Y-103622452D01*
X121693009Y-103632840D01*
X121671928Y-103639236D01*
X121643860Y-103642000D01*
X121180140Y-103642000D01*
X121152072Y-103639236D01*
X121130991Y-103632840D01*
X121111555Y-103622452D01*
X121094524Y-103608476D01*
X121080548Y-103591445D01*
X121070160Y-103572009D01*
X121063764Y-103550928D01*
X121061000Y-103522860D01*
X121061000Y-101709140D01*
X121063764Y-101681072D01*
X121070160Y-101659991D01*
X121080548Y-101640555D01*
X121094524Y-101623524D01*
X121111555Y-101609548D01*
X121130991Y-101599160D01*
X121152072Y-101592764D01*
X121180140Y-101590000D01*
X121643860Y-101590000D01*
X121671928Y-101592764D01*
G37*
G36*
X122941928Y-101592764D02*
G01*
X122963009Y-101599160D01*
X122982445Y-101609548D01*
X122999476Y-101623524D01*
X123013452Y-101640555D01*
X123023840Y-101659991D01*
X123030236Y-101681072D01*
X123033000Y-101709140D01*
X123033000Y-103522860D01*
X123030236Y-103550928D01*
X123023840Y-103572009D01*
X123013452Y-103591445D01*
X122999476Y-103608476D01*
X122982445Y-103622452D01*
X122963009Y-103632840D01*
X122941928Y-103639236D01*
X122913860Y-103642000D01*
X122450140Y-103642000D01*
X122422072Y-103639236D01*
X122400991Y-103632840D01*
X122381555Y-103622452D01*
X122364524Y-103608476D01*
X122350548Y-103591445D01*
X122340160Y-103572009D01*
X122333764Y-103550928D01*
X122331000Y-103522860D01*
X122331000Y-101709140D01*
X122333764Y-101681072D01*
X122340160Y-101659991D01*
X122350548Y-101640555D01*
X122364524Y-101623524D01*
X122381555Y-101609548D01*
X122400991Y-101599160D01*
X122422072Y-101592764D01*
X122450140Y-101590000D01*
X122913860Y-101590000D01*
X122941928Y-101592764D01*
G37*
G36*
X124211928Y-101592764D02*
G01*
X124233009Y-101599160D01*
X124252445Y-101609548D01*
X124269476Y-101623524D01*
X124283452Y-101640555D01*
X124293840Y-101659991D01*
X124300236Y-101681072D01*
X124303000Y-101709140D01*
X124303000Y-103522860D01*
X124300236Y-103550928D01*
X124293840Y-103572009D01*
X124283452Y-103591445D01*
X124269476Y-103608476D01*
X124252445Y-103622452D01*
X124233009Y-103632840D01*
X124211928Y-103639236D01*
X124183860Y-103642000D01*
X123720140Y-103642000D01*
X123692072Y-103639236D01*
X123670991Y-103632840D01*
X123651555Y-103622452D01*
X123634524Y-103608476D01*
X123620548Y-103591445D01*
X123610160Y-103572009D01*
X123603764Y-103550928D01*
X123601000Y-103522860D01*
X123601000Y-101709140D01*
X123603764Y-101681072D01*
X123610160Y-101659991D01*
X123620548Y-101640555D01*
X123634524Y-101623524D01*
X123651555Y-101609548D01*
X123670991Y-101599160D01*
X123692072Y-101592764D01*
X123720140Y-101590000D01*
X124183860Y-101590000D01*
X124211928Y-101592764D01*
G37*
G36*
X125481928Y-101592764D02*
G01*
X125503009Y-101599160D01*
X125522445Y-101609548D01*
X125539476Y-101623524D01*
X125553452Y-101640555D01*
X125563840Y-101659991D01*
X125570236Y-101681072D01*
X125573000Y-101709140D01*
X125573000Y-103522860D01*
X125570236Y-103550928D01*
X125563840Y-103572009D01*
X125553452Y-103591445D01*
X125539476Y-103608476D01*
X125522445Y-103622452D01*
X125503009Y-103632840D01*
X125481928Y-103639236D01*
X125453860Y-103642000D01*
X124990140Y-103642000D01*
X124962072Y-103639236D01*
X124940991Y-103632840D01*
X124921555Y-103622452D01*
X124904524Y-103608476D01*
X124890548Y-103591445D01*
X124880160Y-103572009D01*
X124873764Y-103550928D01*
X124871000Y-103522860D01*
X124871000Y-101709140D01*
X124873764Y-101681072D01*
X124880160Y-101659991D01*
X124890548Y-101640555D01*
X124904524Y-101623524D01*
X124921555Y-101609548D01*
X124940991Y-101599160D01*
X124962072Y-101592764D01*
X124990140Y-101590000D01*
X125453860Y-101590000D01*
X125481928Y-101592764D01*
G37*
G36*
X128021928Y-101592764D02*
G01*
X128043009Y-101599160D01*
X128062445Y-101609548D01*
X128079476Y-101623524D01*
X128093452Y-101640555D01*
X128103840Y-101659991D01*
X128110236Y-101681072D01*
X128113000Y-101709140D01*
X128113000Y-103522860D01*
X128110236Y-103550928D01*
X128103840Y-103572009D01*
X128093452Y-103591445D01*
X128079476Y-103608476D01*
X128062445Y-103622452D01*
X128043009Y-103632840D01*
X128021928Y-103639236D01*
X127993860Y-103642000D01*
X127530140Y-103642000D01*
X127502072Y-103639236D01*
X127480991Y-103632840D01*
X127461555Y-103622452D01*
X127444524Y-103608476D01*
X127430548Y-103591445D01*
X127420160Y-103572009D01*
X127413764Y-103550928D01*
X127411000Y-103522860D01*
X127411000Y-101709140D01*
X127413764Y-101681072D01*
X127420160Y-101659991D01*
X127430548Y-101640555D01*
X127444524Y-101623524D01*
X127461555Y-101609548D01*
X127480991Y-101599160D01*
X127502072Y-101592764D01*
X127530140Y-101590000D01*
X127993860Y-101590000D01*
X128021928Y-101592764D01*
G37*
G36*
X126751928Y-101592764D02*
G01*
X126773009Y-101599160D01*
X126792445Y-101609548D01*
X126809476Y-101623524D01*
X126823452Y-101640555D01*
X126833840Y-101659991D01*
X126840236Y-101681072D01*
X126843000Y-101709140D01*
X126843000Y-103522860D01*
X126840236Y-103550928D01*
X126833840Y-103572009D01*
X126823452Y-103591445D01*
X126809476Y-103608476D01*
X126792445Y-103622452D01*
X126773009Y-103632840D01*
X126751928Y-103639236D01*
X126723860Y-103642000D01*
X126260140Y-103642000D01*
X126232072Y-103639236D01*
X126210991Y-103632840D01*
X126191555Y-103622452D01*
X126174524Y-103608476D01*
X126160548Y-103591445D01*
X126150160Y-103572009D01*
X126143764Y-103550928D01*
X126141000Y-103522860D01*
X126141000Y-101709140D01*
X126143764Y-101681072D01*
X126150160Y-101659991D01*
X126160548Y-101640555D01*
X126174524Y-101623524D01*
X126191555Y-101609548D01*
X126210991Y-101599160D01*
X126232072Y-101592764D01*
X126260140Y-101590000D01*
X126723860Y-101590000D01*
X126751928Y-101592764D01*
G37*
G36*
X117233091Y-101586085D02*
G01*
X117267069Y-101596393D01*
X117298390Y-101613134D01*
X117325839Y-101635661D01*
X117348366Y-101663110D01*
X117365107Y-101694431D01*
X117375415Y-101728409D01*
X117379500Y-101769890D01*
X117379500Y-102446110D01*
X117375415Y-102487591D01*
X117365107Y-102521569D01*
X117348366Y-102552890D01*
X117325839Y-102580339D01*
X117298390Y-102602866D01*
X117267069Y-102619607D01*
X117233091Y-102629915D01*
X117191610Y-102634000D01*
X116590390Y-102634000D01*
X116548909Y-102629915D01*
X116514931Y-102619607D01*
X116483610Y-102602866D01*
X116456161Y-102580339D01*
X116433634Y-102552890D01*
X116416893Y-102521569D01*
X116406585Y-102487591D01*
X116402500Y-102446110D01*
X116402500Y-101769890D01*
X116406585Y-101728409D01*
X116416893Y-101694431D01*
X116433634Y-101663110D01*
X116456161Y-101635661D01*
X116483610Y-101613134D01*
X116514931Y-101596393D01*
X116548909Y-101586085D01*
X116590390Y-101582000D01*
X117191610Y-101582000D01*
X117233091Y-101586085D01*
G37*
G36*
X115658091Y-101586085D02*
G01*
X115692069Y-101596393D01*
X115723390Y-101613134D01*
X115750839Y-101635661D01*
X115773366Y-101663110D01*
X115790107Y-101694431D01*
X115800415Y-101728409D01*
X115804500Y-101769890D01*
X115804500Y-102446110D01*
X115800415Y-102487591D01*
X115790107Y-102521569D01*
X115773366Y-102552890D01*
X115750839Y-102580339D01*
X115723390Y-102602866D01*
X115692069Y-102619607D01*
X115658091Y-102629915D01*
X115616610Y-102634000D01*
X115015390Y-102634000D01*
X114973909Y-102629915D01*
X114939931Y-102619607D01*
X114908610Y-102602866D01*
X114881161Y-102580339D01*
X114858634Y-102552890D01*
X114841893Y-102521569D01*
X114831585Y-102487591D01*
X114827500Y-102446110D01*
X114827500Y-101769890D01*
X114831585Y-101728409D01*
X114841893Y-101694431D01*
X114858634Y-101663110D01*
X114881161Y-101635661D01*
X114908610Y-101613134D01*
X114939931Y-101596393D01*
X114973909Y-101586085D01*
X115015390Y-101582000D01*
X115616610Y-101582000D01*
X115658091Y-101586085D01*
G37*
G36*
X135177765Y-99582620D02*
G01*
X135367288Y-99661123D01*
X135537854Y-99775092D01*
X135682908Y-99920146D01*
X135796877Y-100090712D01*
X135875380Y-100280235D01*
X135915400Y-100481431D01*
X135915400Y-100686569D01*
X135875380Y-100887765D01*
X135796877Y-101077288D01*
X135682908Y-101247854D01*
X135537854Y-101392908D01*
X135367288Y-101506877D01*
X135367287Y-101506878D01*
X135367286Y-101506878D01*
X135177765Y-101585380D01*
X134976570Y-101625400D01*
X134771430Y-101625400D01*
X134570235Y-101585380D01*
X134380714Y-101506878D01*
X134380713Y-101506878D01*
X134380712Y-101506877D01*
X134210146Y-101392908D01*
X134065092Y-101247854D01*
X133951123Y-101077288D01*
X133872620Y-100887765D01*
X133832600Y-100686569D01*
X133832600Y-100481431D01*
X133872620Y-100280235D01*
X133951123Y-100090712D01*
X134065092Y-99920146D01*
X134210146Y-99775092D01*
X134380712Y-99661123D01*
X134570235Y-99582620D01*
X134771430Y-99542600D01*
X134976570Y-99542600D01*
X135177765Y-99582620D01*
G37*
G36*
X112317765Y-99582620D02*
G01*
X112507288Y-99661123D01*
X112677854Y-99775092D01*
X112822908Y-99920146D01*
X112936877Y-100090712D01*
X113015380Y-100280235D01*
X113055400Y-100481431D01*
X113055400Y-100686569D01*
X113015380Y-100887765D01*
X112936877Y-101077288D01*
X112822908Y-101247854D01*
X112677854Y-101392908D01*
X112507288Y-101506877D01*
X112507287Y-101506878D01*
X112507286Y-101506878D01*
X112317765Y-101585380D01*
X112116570Y-101625400D01*
X111911430Y-101625400D01*
X111710235Y-101585380D01*
X111520714Y-101506878D01*
X111520713Y-101506878D01*
X111520712Y-101506877D01*
X111350146Y-101392908D01*
X111205092Y-101247854D01*
X111091123Y-101077288D01*
X111012620Y-100887765D01*
X110972600Y-100686569D01*
X110972600Y-100481431D01*
X111012620Y-100280235D01*
X111091123Y-100090712D01*
X111205092Y-99920146D01*
X111350146Y-99775092D01*
X111520712Y-99661123D01*
X111710235Y-99582620D01*
X111911430Y-99542600D01*
X112116570Y-99542600D01*
X112317765Y-99582620D01*
G37*
G36*
X118861000Y-99878000D02*
G01*
X117699000Y-99878000D01*
X117699000Y-97226000D01*
X118861000Y-97226000D01*
X118861000Y-99878000D01*
G37*
G36*
X121061000Y-99878000D02*
G01*
X119899000Y-99878000D01*
X119899000Y-99126000D01*
X121061000Y-99126000D01*
X121061000Y-99878000D01*
G37*
G36*
X130819000Y-99191000D02*
G01*
X129817000Y-99191000D01*
X129817000Y-98289000D01*
X130819000Y-98289000D01*
X130819000Y-99191000D01*
G37*
G36*
X112317765Y-97042620D02*
G01*
X112464504Y-97103401D01*
X112507288Y-97121123D01*
X112677854Y-97235092D01*
X112822908Y-97380146D01*
X112936877Y-97550712D01*
X113015380Y-97740235D01*
X113055400Y-97941431D01*
X113055400Y-98146569D01*
X113015380Y-98347765D01*
X112936877Y-98537288D01*
X112822908Y-98707854D01*
X112677854Y-98852908D01*
X112507288Y-98966877D01*
X112507287Y-98966878D01*
X112507286Y-98966878D01*
X112317765Y-99045380D01*
X112116570Y-99085400D01*
X111911430Y-99085400D01*
X111710235Y-99045380D01*
X111520714Y-98966878D01*
X111520713Y-98966878D01*
X111520712Y-98966877D01*
X111350146Y-98852908D01*
X111205092Y-98707854D01*
X111091123Y-98537288D01*
X111012620Y-98347765D01*
X110972600Y-98146569D01*
X110972600Y-97941431D01*
X111012620Y-97740235D01*
X111091123Y-97550712D01*
X111205092Y-97380146D01*
X111350146Y-97235092D01*
X111520712Y-97121123D01*
X111563497Y-97103401D01*
X111710235Y-97042620D01*
X111911430Y-97002600D01*
X112116570Y-97002600D01*
X112317765Y-97042620D01*
G37*
G36*
X135177765Y-97042620D02*
G01*
X135324504Y-97103401D01*
X135367288Y-97121123D01*
X135537854Y-97235092D01*
X135682908Y-97380146D01*
X135796877Y-97550712D01*
X135875380Y-97740235D01*
X135915400Y-97941431D01*
X135915400Y-98146569D01*
X135875380Y-98347765D01*
X135796877Y-98537288D01*
X135682908Y-98707854D01*
X135537854Y-98852908D01*
X135367288Y-98966877D01*
X135367287Y-98966878D01*
X135367286Y-98966878D01*
X135177765Y-99045380D01*
X134976570Y-99085400D01*
X134771430Y-99085400D01*
X134570235Y-99045380D01*
X134380714Y-98966878D01*
X134380713Y-98966878D01*
X134380712Y-98966877D01*
X134210146Y-98852908D01*
X134065092Y-98707854D01*
X133951123Y-98537288D01*
X133872620Y-98347765D01*
X133832600Y-98146569D01*
X133832600Y-97941431D01*
X133872620Y-97740235D01*
X133951123Y-97550712D01*
X134065092Y-97380146D01*
X134210146Y-97235092D01*
X134380712Y-97121123D01*
X134423497Y-97103401D01*
X134570235Y-97042620D01*
X134771430Y-97002600D01*
X134976570Y-97002600D01*
X135177765Y-97042620D01*
G37*
G36*
X116674091Y-97268085D02*
G01*
X116708069Y-97278393D01*
X116739390Y-97295134D01*
X116766839Y-97317661D01*
X116789366Y-97345110D01*
X116806107Y-97376431D01*
X116816415Y-97410409D01*
X116820500Y-97451890D01*
X116820500Y-98128110D01*
X116816415Y-98169591D01*
X116806107Y-98203569D01*
X116789366Y-98234890D01*
X116766839Y-98262339D01*
X116739390Y-98284866D01*
X116708069Y-98301607D01*
X116674091Y-98311915D01*
X116632610Y-98316000D01*
X116031390Y-98316000D01*
X115989909Y-98311915D01*
X115955931Y-98301607D01*
X115924610Y-98284866D01*
X115897161Y-98262339D01*
X115874634Y-98234890D01*
X115857893Y-98203569D01*
X115847585Y-98169591D01*
X115843500Y-98128110D01*
X115843500Y-97451890D01*
X115847585Y-97410409D01*
X115857893Y-97376431D01*
X115874634Y-97345110D01*
X115897161Y-97317661D01*
X115924610Y-97295134D01*
X115955931Y-97278393D01*
X115989909Y-97268085D01*
X116031390Y-97264000D01*
X116632610Y-97264000D01*
X116674091Y-97268085D01*
G37*
G36*
X115099091Y-97268085D02*
G01*
X115133069Y-97278393D01*
X115164390Y-97295134D01*
X115191839Y-97317661D01*
X115214366Y-97345110D01*
X115231107Y-97376431D01*
X115241415Y-97410409D01*
X115245500Y-97451890D01*
X115245500Y-98128110D01*
X115241415Y-98169591D01*
X115231107Y-98203569D01*
X115214366Y-98234890D01*
X115191839Y-98262339D01*
X115164390Y-98284866D01*
X115133069Y-98301607D01*
X115099091Y-98311915D01*
X115057610Y-98316000D01*
X114456390Y-98316000D01*
X114414909Y-98311915D01*
X114380931Y-98301607D01*
X114349610Y-98284866D01*
X114322161Y-98262339D01*
X114299634Y-98234890D01*
X114282893Y-98203569D01*
X114272585Y-98169591D01*
X114268500Y-98128110D01*
X114268500Y-97451890D01*
X114272585Y-97410409D01*
X114282893Y-97376431D01*
X114299634Y-97345110D01*
X114322161Y-97317661D01*
X114349610Y-97295134D01*
X114380931Y-97278393D01*
X114414909Y-97268085D01*
X114456390Y-97264000D01*
X115057610Y-97264000D01*
X115099091Y-97268085D01*
G37*
G36*
X132819000Y-98241000D02*
G01*
X131817000Y-98241000D01*
X131817000Y-97339000D01*
X132819000Y-97339000D01*
X132819000Y-98241000D01*
G37*
G36*
X121061000Y-97978000D02*
G01*
X119899000Y-97978000D01*
X119899000Y-97226000D01*
X121061000Y-97226000D01*
X121061000Y-97978000D01*
G37*
G36*
X126300591Y-96252085D02*
G01*
X126334569Y-96262393D01*
X126365890Y-96279134D01*
X126393339Y-96301661D01*
X126415866Y-96329110D01*
X126432607Y-96360431D01*
X126442915Y-96394409D01*
X126447000Y-96435890D01*
X126447000Y-97112110D01*
X126442915Y-97153591D01*
X126432607Y-97187569D01*
X126415866Y-97218890D01*
X126393339Y-97246339D01*
X126365890Y-97268866D01*
X126334569Y-97285607D01*
X126300591Y-97295915D01*
X126259110Y-97300000D01*
X125657890Y-97300000D01*
X125616409Y-97295915D01*
X125582431Y-97285607D01*
X125551110Y-97268866D01*
X125523661Y-97246339D01*
X125501134Y-97218890D01*
X125484393Y-97187569D01*
X125474085Y-97153591D01*
X125470000Y-97112110D01*
X125470000Y-96435890D01*
X125474085Y-96394409D01*
X125484393Y-96360431D01*
X125501134Y-96329110D01*
X125523661Y-96301661D01*
X125551110Y-96279134D01*
X125582431Y-96262393D01*
X125616409Y-96252085D01*
X125657890Y-96248000D01*
X126259110Y-96248000D01*
X126300591Y-96252085D01*
G37*
G36*
X122262091Y-96252085D02*
G01*
X122296069Y-96262393D01*
X122327390Y-96279134D01*
X122354839Y-96301661D01*
X122377366Y-96329110D01*
X122394107Y-96360431D01*
X122404415Y-96394409D01*
X122408500Y-96435890D01*
X122408500Y-97112110D01*
X122404415Y-97153591D01*
X122394107Y-97187569D01*
X122377366Y-97218890D01*
X122354839Y-97246339D01*
X122327390Y-97268866D01*
X122296069Y-97285607D01*
X122262091Y-97295915D01*
X122220610Y-97300000D01*
X121619390Y-97300000D01*
X121577909Y-97295915D01*
X121543931Y-97285607D01*
X121512610Y-97268866D01*
X121485161Y-97246339D01*
X121462634Y-97218890D01*
X121445893Y-97187569D01*
X121435585Y-97153591D01*
X121431500Y-97112110D01*
X121431500Y-96435890D01*
X121435585Y-96394409D01*
X121445893Y-96360431D01*
X121462634Y-96329110D01*
X121485161Y-96301661D01*
X121512610Y-96279134D01*
X121543931Y-96262393D01*
X121577909Y-96252085D01*
X121619390Y-96248000D01*
X122220610Y-96248000D01*
X122262091Y-96252085D01*
G37*
G36*
X127875591Y-96252085D02*
G01*
X127909569Y-96262393D01*
X127940890Y-96279134D01*
X127968339Y-96301661D01*
X127990866Y-96329110D01*
X128007607Y-96360431D01*
X128017915Y-96394409D01*
X128022000Y-96435890D01*
X128022000Y-97112110D01*
X128017915Y-97153591D01*
X128007607Y-97187569D01*
X127990866Y-97218890D01*
X127968339Y-97246339D01*
X127940890Y-97268866D01*
X127909569Y-97285607D01*
X127875591Y-97295915D01*
X127834110Y-97300000D01*
X127232890Y-97300000D01*
X127191409Y-97295915D01*
X127157431Y-97285607D01*
X127126110Y-97268866D01*
X127098661Y-97246339D01*
X127076134Y-97218890D01*
X127059393Y-97187569D01*
X127049085Y-97153591D01*
X127045000Y-97112110D01*
X127045000Y-96435890D01*
X127049085Y-96394409D01*
X127059393Y-96360431D01*
X127076134Y-96329110D01*
X127098661Y-96301661D01*
X127126110Y-96279134D01*
X127157431Y-96262393D01*
X127191409Y-96252085D01*
X127232890Y-96248000D01*
X127834110Y-96248000D01*
X127875591Y-96252085D01*
G37*
G36*
X123837091Y-96252085D02*
G01*
X123871069Y-96262393D01*
X123902390Y-96279134D01*
X123929839Y-96301661D01*
X123952366Y-96329110D01*
X123969107Y-96360431D01*
X123979415Y-96394409D01*
X123983500Y-96435890D01*
X123983500Y-97112110D01*
X123979415Y-97153591D01*
X123969107Y-97187569D01*
X123952366Y-97218890D01*
X123929839Y-97246339D01*
X123902390Y-97268866D01*
X123871069Y-97285607D01*
X123837091Y-97295915D01*
X123795610Y-97300000D01*
X123194390Y-97300000D01*
X123152909Y-97295915D01*
X123118931Y-97285607D01*
X123087610Y-97268866D01*
X123060161Y-97246339D01*
X123037634Y-97218890D01*
X123020893Y-97187569D01*
X123010585Y-97153591D01*
X123006500Y-97112110D01*
X123006500Y-96435890D01*
X123010585Y-96394409D01*
X123020893Y-96360431D01*
X123037634Y-96329110D01*
X123060161Y-96301661D01*
X123087610Y-96279134D01*
X123118931Y-96262393D01*
X123152909Y-96252085D01*
X123194390Y-96248000D01*
X123795610Y-96248000D01*
X123837091Y-96252085D01*
G37*
G36*
X130819000Y-97291000D02*
G01*
X129817000Y-97291000D01*
X129817000Y-96389000D01*
X130819000Y-96389000D01*
X130819000Y-97291000D01*
G37*
G36*
X135177765Y-94502620D02*
G01*
X135228563Y-94523661D01*
X135367288Y-94581123D01*
X135537854Y-94695092D01*
X135682908Y-94840146D01*
X135796877Y-95010712D01*
X135875380Y-95200235D01*
X135915400Y-95401431D01*
X135915400Y-95606569D01*
X135875380Y-95807765D01*
X135796877Y-95997288D01*
X135682908Y-96167854D01*
X135537854Y-96312908D01*
X135367288Y-96426877D01*
X135367287Y-96426878D01*
X135367286Y-96426878D01*
X135177765Y-96505380D01*
X134976570Y-96545400D01*
X134771430Y-96545400D01*
X134570235Y-96505380D01*
X134380714Y-96426878D01*
X134380713Y-96426878D01*
X134380712Y-96426877D01*
X134210146Y-96312908D01*
X134065092Y-96167854D01*
X133951123Y-95997288D01*
X133872620Y-95807765D01*
X133832600Y-95606569D01*
X133832600Y-95401431D01*
X133872620Y-95200235D01*
X133951123Y-95010712D01*
X134065092Y-94840146D01*
X134210146Y-94695092D01*
X134380712Y-94581123D01*
X134519438Y-94523661D01*
X134570235Y-94502620D01*
X134771430Y-94462600D01*
X134976570Y-94462600D01*
X135177765Y-94502620D01*
G37*
G36*
X112317765Y-94502620D02*
G01*
X112368563Y-94523661D01*
X112507288Y-94581123D01*
X112677854Y-94695092D01*
X112822908Y-94840146D01*
X112936877Y-95010712D01*
X113015380Y-95200235D01*
X113055400Y-95401431D01*
X113055400Y-95606569D01*
X113015380Y-95807765D01*
X112936877Y-95997288D01*
X112822908Y-96167854D01*
X112677854Y-96312908D01*
X112507288Y-96426877D01*
X112507287Y-96426878D01*
X112507286Y-96426878D01*
X112317765Y-96505380D01*
X112116570Y-96545400D01*
X111911430Y-96545400D01*
X111710235Y-96505380D01*
X111520714Y-96426878D01*
X111520713Y-96426878D01*
X111520712Y-96426877D01*
X111350146Y-96312908D01*
X111205092Y-96167854D01*
X111091123Y-95997288D01*
X111012620Y-95807765D01*
X110972600Y-95606569D01*
X110972600Y-95401431D01*
X111012620Y-95200235D01*
X111091123Y-95010712D01*
X111205092Y-94840146D01*
X111350146Y-94695092D01*
X111520712Y-94581123D01*
X111659438Y-94523661D01*
X111710235Y-94502620D01*
X111911430Y-94462600D01*
X112116570Y-94462600D01*
X112317765Y-94502620D01*
G37*
G36*
X130161591Y-94474085D02*
G01*
X130195569Y-94484393D01*
X130226890Y-94501134D01*
X130254339Y-94523661D01*
X130276866Y-94551110D01*
X130293607Y-94582431D01*
X130303915Y-94616409D01*
X130308000Y-94657890D01*
X130308000Y-95334110D01*
X130303915Y-95375591D01*
X130293607Y-95409569D01*
X130276866Y-95440890D01*
X130254339Y-95468339D01*
X130226890Y-95490866D01*
X130195569Y-95507607D01*
X130161591Y-95517915D01*
X130120110Y-95522000D01*
X129518890Y-95522000D01*
X129477409Y-95517915D01*
X129443431Y-95507607D01*
X129412110Y-95490866D01*
X129384661Y-95468339D01*
X129362134Y-95440890D01*
X129345393Y-95409569D01*
X129335085Y-95375591D01*
X129331000Y-95334110D01*
X129331000Y-94657890D01*
X129335085Y-94616409D01*
X129345393Y-94582431D01*
X129362134Y-94551110D01*
X129384661Y-94523661D01*
X129412110Y-94501134D01*
X129443431Y-94484393D01*
X129477409Y-94474085D01*
X129518890Y-94470000D01*
X130120110Y-94470000D01*
X130161591Y-94474085D01*
G37*
G36*
X128586591Y-94474085D02*
G01*
X128620569Y-94484393D01*
X128651890Y-94501134D01*
X128679339Y-94523661D01*
X128701866Y-94551110D01*
X128718607Y-94582431D01*
X128728915Y-94616409D01*
X128733000Y-94657890D01*
X128733000Y-95334110D01*
X128728915Y-95375591D01*
X128718607Y-95409569D01*
X128701866Y-95440890D01*
X128679339Y-95468339D01*
X128651890Y-95490866D01*
X128620569Y-95507607D01*
X128586591Y-95517915D01*
X128545110Y-95522000D01*
X127943890Y-95522000D01*
X127902409Y-95517915D01*
X127868431Y-95507607D01*
X127837110Y-95490866D01*
X127809661Y-95468339D01*
X127787134Y-95440890D01*
X127770393Y-95409569D01*
X127760085Y-95375591D01*
X127756000Y-95334110D01*
X127756000Y-94657890D01*
X127760085Y-94616409D01*
X127770393Y-94582431D01*
X127787134Y-94551110D01*
X127809661Y-94523661D01*
X127837110Y-94501134D01*
X127868431Y-94484393D01*
X127902409Y-94474085D01*
X127943890Y-94470000D01*
X128545110Y-94470000D01*
X128586591Y-94474085D01*
G37*
G36*
X117387468Y-93741565D02*
G01*
X117426138Y-93753296D01*
X117461777Y-93772346D01*
X117493017Y-93797983D01*
X117518654Y-93829223D01*
X117537704Y-93864862D01*
X117549435Y-93903532D01*
X117554000Y-93949888D01*
X117554000Y-95026112D01*
X117549435Y-95072468D01*
X117537704Y-95111138D01*
X117518654Y-95146777D01*
X117493017Y-95178017D01*
X117461777Y-95203654D01*
X117426138Y-95222704D01*
X117387468Y-95234435D01*
X117341112Y-95239000D01*
X116689888Y-95239000D01*
X116643532Y-95234435D01*
X116604862Y-95222704D01*
X116569223Y-95203654D01*
X116537983Y-95178017D01*
X116512346Y-95146777D01*
X116493296Y-95111138D01*
X116481565Y-95072468D01*
X116477000Y-95026112D01*
X116477000Y-93949888D01*
X116481565Y-93903532D01*
X116493296Y-93864862D01*
X116512346Y-93829223D01*
X116537983Y-93797983D01*
X116569223Y-93772346D01*
X116604862Y-93753296D01*
X116643532Y-93741565D01*
X116689888Y-93737000D01*
X117341112Y-93737000D01*
X117387468Y-93741565D01*
G37*
G36*
X115512468Y-93741565D02*
G01*
X115551138Y-93753296D01*
X115586777Y-93772346D01*
X115618017Y-93797983D01*
X115643654Y-93829223D01*
X115662704Y-93864862D01*
X115674435Y-93903532D01*
X115679000Y-93949888D01*
X115679000Y-95026112D01*
X115674435Y-95072468D01*
X115662704Y-95111138D01*
X115643654Y-95146777D01*
X115618017Y-95178017D01*
X115586777Y-95203654D01*
X115551138Y-95222704D01*
X115512468Y-95234435D01*
X115466112Y-95239000D01*
X114814888Y-95239000D01*
X114768532Y-95234435D01*
X114729862Y-95222704D01*
X114694223Y-95203654D01*
X114662983Y-95178017D01*
X114637346Y-95146777D01*
X114618296Y-95111138D01*
X114606565Y-95072468D01*
X114602000Y-95026112D01*
X114602000Y-93949888D01*
X114606565Y-93903532D01*
X114618296Y-93864862D01*
X114637346Y-93829223D01*
X114662983Y-93797983D01*
X114694223Y-93772346D01*
X114729862Y-93753296D01*
X114768532Y-93741565D01*
X114814888Y-93737000D01*
X115466112Y-93737000D01*
X115512468Y-93741565D01*
G37*
G36*
X121271591Y-93966085D02*
G01*
X121305569Y-93976393D01*
X121336890Y-93993134D01*
X121364339Y-94015661D01*
X121386866Y-94043110D01*
X121403607Y-94074431D01*
X121413915Y-94108409D01*
X121418000Y-94149890D01*
X121418000Y-94826110D01*
X121413915Y-94867591D01*
X121403607Y-94901569D01*
X121386866Y-94932890D01*
X121364339Y-94960339D01*
X121336890Y-94982866D01*
X121305569Y-94999607D01*
X121271591Y-95009915D01*
X121230110Y-95014000D01*
X120628890Y-95014000D01*
X120587409Y-95009915D01*
X120553431Y-94999607D01*
X120522110Y-94982866D01*
X120494661Y-94960339D01*
X120472134Y-94932890D01*
X120455393Y-94901569D01*
X120445085Y-94867591D01*
X120441000Y-94826110D01*
X120441000Y-94149890D01*
X120445085Y-94108409D01*
X120455393Y-94074431D01*
X120472134Y-94043110D01*
X120494661Y-94015661D01*
X120522110Y-93993134D01*
X120553431Y-93976393D01*
X120587409Y-93966085D01*
X120628890Y-93962000D01*
X121230110Y-93962000D01*
X121271591Y-93966085D01*
G37*
G36*
X119696591Y-93966085D02*
G01*
X119730569Y-93976393D01*
X119761890Y-93993134D01*
X119789339Y-94015661D01*
X119811866Y-94043110D01*
X119828607Y-94074431D01*
X119838915Y-94108409D01*
X119843000Y-94149890D01*
X119843000Y-94826110D01*
X119838915Y-94867591D01*
X119828607Y-94901569D01*
X119811866Y-94932890D01*
X119789339Y-94960339D01*
X119761890Y-94982866D01*
X119730569Y-94999607D01*
X119696591Y-95009915D01*
X119655110Y-95014000D01*
X119053890Y-95014000D01*
X119012409Y-95009915D01*
X118978431Y-94999607D01*
X118947110Y-94982866D01*
X118919661Y-94960339D01*
X118897134Y-94932890D01*
X118880393Y-94901569D01*
X118870085Y-94867591D01*
X118866000Y-94826110D01*
X118866000Y-94149890D01*
X118870085Y-94108409D01*
X118880393Y-94074431D01*
X118897134Y-94043110D01*
X118919661Y-94015661D01*
X118947110Y-93993134D01*
X118978431Y-93976393D01*
X119012409Y-93966085D01*
X119053890Y-93962000D01*
X119655110Y-93962000D01*
X119696591Y-93966085D01*
G37*
G36*
X126605591Y-93966085D02*
G01*
X126639569Y-93976393D01*
X126670890Y-93993134D01*
X126698339Y-94015661D01*
X126720866Y-94043110D01*
X126737607Y-94074431D01*
X126747915Y-94108409D01*
X126752000Y-94149890D01*
X126752000Y-94826110D01*
X126747915Y-94867591D01*
X126737607Y-94901569D01*
X126720866Y-94932890D01*
X126698339Y-94960339D01*
X126670890Y-94982866D01*
X126639569Y-94999607D01*
X126605591Y-95009915D01*
X126564110Y-95014000D01*
X125962890Y-95014000D01*
X125921409Y-95009915D01*
X125887431Y-94999607D01*
X125856110Y-94982866D01*
X125828661Y-94960339D01*
X125806134Y-94932890D01*
X125789393Y-94901569D01*
X125779085Y-94867591D01*
X125775000Y-94826110D01*
X125775000Y-94149890D01*
X125779085Y-94108409D01*
X125789393Y-94074431D01*
X125806134Y-94043110D01*
X125828661Y-94015661D01*
X125856110Y-93993134D01*
X125887431Y-93976393D01*
X125921409Y-93966085D01*
X125962890Y-93962000D01*
X126564110Y-93962000D01*
X126605591Y-93966085D01*
G37*
G36*
X125030591Y-93966085D02*
G01*
X125064569Y-93976393D01*
X125095890Y-93993134D01*
X125123339Y-94015661D01*
X125145866Y-94043110D01*
X125162607Y-94074431D01*
X125172915Y-94108409D01*
X125177000Y-94149890D01*
X125177000Y-94826110D01*
X125172915Y-94867591D01*
X125162607Y-94901569D01*
X125145866Y-94932890D01*
X125123339Y-94960339D01*
X125095890Y-94982866D01*
X125064569Y-94999607D01*
X125030591Y-95009915D01*
X124989110Y-95014000D01*
X124387890Y-95014000D01*
X124346409Y-95009915D01*
X124312431Y-94999607D01*
X124281110Y-94982866D01*
X124253661Y-94960339D01*
X124231134Y-94932890D01*
X124214393Y-94901569D01*
X124204085Y-94867591D01*
X124200000Y-94826110D01*
X124200000Y-94149890D01*
X124204085Y-94108409D01*
X124214393Y-94074431D01*
X124231134Y-94043110D01*
X124253661Y-94015661D01*
X124281110Y-93993134D01*
X124312431Y-93976393D01*
X124346409Y-93966085D01*
X124387890Y-93962000D01*
X124989110Y-93962000D01*
X125030591Y-93966085D01*
G37*
G36*
X135177765Y-91962620D02*
G01*
X135367288Y-92041123D01*
X135537854Y-92155092D01*
X135682908Y-92300146D01*
X135796877Y-92470712D01*
X135875380Y-92660235D01*
X135915400Y-92861431D01*
X135915400Y-93066569D01*
X135875380Y-93267765D01*
X135796877Y-93457288D01*
X135682908Y-93627854D01*
X135537854Y-93772908D01*
X135367288Y-93886877D01*
X135367287Y-93886878D01*
X135367286Y-93886878D01*
X135177765Y-93965380D01*
X134976570Y-94005400D01*
X134771430Y-94005400D01*
X134570235Y-93965380D01*
X134380714Y-93886878D01*
X134380713Y-93886878D01*
X134380712Y-93886877D01*
X134210146Y-93772908D01*
X134065092Y-93627854D01*
X133951123Y-93457288D01*
X133872620Y-93267765D01*
X133832600Y-93066569D01*
X133832600Y-92861431D01*
X133872620Y-92660235D01*
X133951123Y-92470712D01*
X134065092Y-92300146D01*
X134210146Y-92155092D01*
X134380712Y-92041123D01*
X134570235Y-91962620D01*
X134771430Y-91922600D01*
X134976570Y-91922600D01*
X135177765Y-91962620D01*
G37*
G36*
X112317765Y-91962620D02*
G01*
X112507288Y-92041123D01*
X112677854Y-92155092D01*
X112822908Y-92300146D01*
X112936877Y-92470712D01*
X113015380Y-92660235D01*
X113055400Y-92861431D01*
X113055400Y-93066569D01*
X113015380Y-93267765D01*
X112936877Y-93457288D01*
X112822908Y-93627854D01*
X112677854Y-93772908D01*
X112507288Y-93886877D01*
X112507287Y-93886878D01*
X112507286Y-93886878D01*
X112317765Y-93965380D01*
X112116570Y-94005400D01*
X111911430Y-94005400D01*
X111710235Y-93965380D01*
X111520714Y-93886878D01*
X111520713Y-93886878D01*
X111520712Y-93886877D01*
X111350146Y-93772908D01*
X111205092Y-93627854D01*
X111091123Y-93457288D01*
X111012620Y-93267765D01*
X110972600Y-93066569D01*
X110972600Y-92861431D01*
X111012620Y-92660235D01*
X111091123Y-92470712D01*
X111205092Y-92300146D01*
X111350146Y-92155092D01*
X111520712Y-92041123D01*
X111710235Y-91962620D01*
X111911430Y-91922600D01*
X112116570Y-91922600D01*
X112317765Y-91962620D01*
G37*
G36*
X130898091Y-92950085D02*
G01*
X130932069Y-92960393D01*
X130963390Y-92977134D01*
X130990839Y-92999661D01*
X131013366Y-93027110D01*
X131030107Y-93058431D01*
X131040415Y-93092409D01*
X131044500Y-93133890D01*
X131044500Y-93810110D01*
X131040415Y-93851591D01*
X131030107Y-93885569D01*
X131013366Y-93916890D01*
X130990839Y-93944339D01*
X130963390Y-93966866D01*
X130932069Y-93983607D01*
X130898091Y-93993915D01*
X130856610Y-93998000D01*
X130255390Y-93998000D01*
X130213909Y-93993915D01*
X130179931Y-93983607D01*
X130148610Y-93966866D01*
X130121161Y-93944339D01*
X130098634Y-93916890D01*
X130081893Y-93885569D01*
X130071585Y-93851591D01*
X130067500Y-93810110D01*
X130067500Y-93133890D01*
X130071585Y-93092409D01*
X130081893Y-93058431D01*
X130098634Y-93027110D01*
X130121161Y-92999661D01*
X130148610Y-92977134D01*
X130179931Y-92960393D01*
X130213909Y-92950085D01*
X130255390Y-92946000D01*
X130856610Y-92946000D01*
X130898091Y-92950085D01*
G37*
G36*
X132473091Y-92950085D02*
G01*
X132507069Y-92960393D01*
X132538390Y-92977134D01*
X132565839Y-92999661D01*
X132588366Y-93027110D01*
X132605107Y-93058431D01*
X132615415Y-93092409D01*
X132619500Y-93133890D01*
X132619500Y-93810110D01*
X132615415Y-93851591D01*
X132605107Y-93885569D01*
X132588366Y-93916890D01*
X132565839Y-93944339D01*
X132538390Y-93966866D01*
X132507069Y-93983607D01*
X132473091Y-93993915D01*
X132431610Y-93998000D01*
X131830390Y-93998000D01*
X131788909Y-93993915D01*
X131754931Y-93983607D01*
X131723610Y-93966866D01*
X131696161Y-93944339D01*
X131673634Y-93916890D01*
X131656893Y-93885569D01*
X131646585Y-93851591D01*
X131642500Y-93810110D01*
X131642500Y-93133890D01*
X131646585Y-93092409D01*
X131656893Y-93058431D01*
X131673634Y-93027110D01*
X131696161Y-92999661D01*
X131723610Y-92977134D01*
X131754931Y-92960393D01*
X131788909Y-92950085D01*
X131830390Y-92946000D01*
X132431610Y-92946000D01*
X132473091Y-92950085D01*
G37*
G36*
X135177765Y-89422620D02*
G01*
X135324504Y-89483401D01*
X135367288Y-89501123D01*
X135537854Y-89615092D01*
X135682908Y-89760146D01*
X135796877Y-89930712D01*
X135875380Y-90120235D01*
X135915400Y-90321431D01*
X135915400Y-90526569D01*
X135875380Y-90727765D01*
X135796877Y-90917288D01*
X135682908Y-91087854D01*
X135537854Y-91232908D01*
X135367288Y-91346877D01*
X135367287Y-91346878D01*
X135367286Y-91346878D01*
X135177765Y-91425380D01*
X134976570Y-91465400D01*
X134771430Y-91465400D01*
X134570235Y-91425380D01*
X134380714Y-91346878D01*
X134380713Y-91346878D01*
X134380712Y-91346877D01*
X134210146Y-91232908D01*
X134065092Y-91087854D01*
X133951123Y-90917288D01*
X133872620Y-90727765D01*
X133832600Y-90526569D01*
X133832600Y-90321431D01*
X133872620Y-90120235D01*
X133951123Y-89930712D01*
X134065092Y-89760146D01*
X134210146Y-89615092D01*
X134380712Y-89501123D01*
X134423497Y-89483401D01*
X134570235Y-89422620D01*
X134771430Y-89382600D01*
X134976570Y-89382600D01*
X135177765Y-89422620D01*
G37*
G36*
X112317765Y-89422620D02*
G01*
X112464504Y-89483401D01*
X112507288Y-89501123D01*
X112677854Y-89615092D01*
X112822908Y-89760146D01*
X112936877Y-89930712D01*
X113015380Y-90120235D01*
X113055400Y-90321431D01*
X113055400Y-90526569D01*
X113015380Y-90727765D01*
X112936877Y-90917288D01*
X112822908Y-91087854D01*
X112677854Y-91232908D01*
X112507288Y-91346877D01*
X112507287Y-91346878D01*
X112507286Y-91346878D01*
X112317765Y-91425380D01*
X112116570Y-91465400D01*
X111911430Y-91465400D01*
X111710235Y-91425380D01*
X111520714Y-91346878D01*
X111520713Y-91346878D01*
X111520712Y-91346877D01*
X111350146Y-91232908D01*
X111205092Y-91087854D01*
X111091123Y-90917288D01*
X111012620Y-90727765D01*
X110972600Y-90526569D01*
X110972600Y-90321431D01*
X111012620Y-90120235D01*
X111091123Y-89930712D01*
X111205092Y-89760146D01*
X111350146Y-89615092D01*
X111520712Y-89501123D01*
X111563497Y-89483401D01*
X111710235Y-89422620D01*
X111911430Y-89382600D01*
X112116570Y-89382600D01*
X112317765Y-89422620D01*
G37*
G36*
X120789000Y-91325000D02*
G01*
X118987000Y-91325000D01*
X118987000Y-89523000D01*
X120789000Y-89523000D01*
X120789000Y-91325000D01*
G37*
G36*
X127621512Y-89527927D02*
G01*
X127770812Y-89557624D01*
X127934784Y-89625544D01*
X128082354Y-89724147D01*
X128207853Y-89849646D01*
X128306456Y-89997216D01*
X128374376Y-90161188D01*
X128409000Y-90335259D01*
X128409000Y-90512741D01*
X128374376Y-90686812D01*
X128306456Y-90850784D01*
X128207853Y-90998354D01*
X128082354Y-91123853D01*
X127934784Y-91222456D01*
X127770812Y-91290376D01*
X127621512Y-91320073D01*
X127596742Y-91325000D01*
X127419258Y-91325000D01*
X127394488Y-91320073D01*
X127245188Y-91290376D01*
X127081216Y-91222456D01*
X126933646Y-91123853D01*
X126808147Y-90998354D01*
X126709544Y-90850784D01*
X126641624Y-90686812D01*
X126607000Y-90512741D01*
X126607000Y-90335259D01*
X126641624Y-90161188D01*
X126709544Y-89997216D01*
X126808147Y-89849646D01*
X126933646Y-89724147D01*
X127081216Y-89625544D01*
X127245188Y-89557624D01*
X127394488Y-89527927D01*
X127419258Y-89523000D01*
X127596742Y-89523000D01*
X127621512Y-89527927D01*
G37*
G36*
X122541512Y-89527927D02*
G01*
X122690812Y-89557624D01*
X122854784Y-89625544D01*
X123002354Y-89724147D01*
X123127853Y-89849646D01*
X123226456Y-89997216D01*
X123294376Y-90161188D01*
X123329000Y-90335259D01*
X123329000Y-90512741D01*
X123294376Y-90686812D01*
X123226456Y-90850784D01*
X123127853Y-90998354D01*
X123002354Y-91123853D01*
X122854784Y-91222456D01*
X122690812Y-91290376D01*
X122541512Y-91320073D01*
X122516742Y-91325000D01*
X122339258Y-91325000D01*
X122314488Y-91320073D01*
X122165188Y-91290376D01*
X122001216Y-91222456D01*
X121853646Y-91123853D01*
X121728147Y-90998354D01*
X121629544Y-90850784D01*
X121561624Y-90686812D01*
X121527000Y-90512741D01*
X121527000Y-90335259D01*
X121561624Y-90161188D01*
X121629544Y-89997216D01*
X121728147Y-89849646D01*
X121853646Y-89724147D01*
X122001216Y-89625544D01*
X122165188Y-89557624D01*
X122314488Y-89527927D01*
X122339258Y-89523000D01*
X122516742Y-89523000D01*
X122541512Y-89527927D01*
G37*
G36*
X125081512Y-89527927D02*
G01*
X125230812Y-89557624D01*
X125394784Y-89625544D01*
X125542354Y-89724147D01*
X125667853Y-89849646D01*
X125766456Y-89997216D01*
X125834376Y-90161188D01*
X125869000Y-90335259D01*
X125869000Y-90512741D01*
X125834376Y-90686812D01*
X125766456Y-90850784D01*
X125667853Y-90998354D01*
X125542354Y-91123853D01*
X125394784Y-91222456D01*
X125230812Y-91290376D01*
X125081512Y-91320073D01*
X125056742Y-91325000D01*
X124879258Y-91325000D01*
X124854488Y-91320073D01*
X124705188Y-91290376D01*
X124541216Y-91222456D01*
X124393646Y-91123853D01*
X124268147Y-90998354D01*
X124169544Y-90850784D01*
X124101624Y-90686812D01*
X124067000Y-90512741D01*
X124067000Y-90335259D01*
X124101624Y-90161188D01*
X124169544Y-89997216D01*
X124268147Y-89849646D01*
X124393646Y-89724147D01*
X124541216Y-89625544D01*
X124705188Y-89557624D01*
X124854488Y-89527927D01*
X124879258Y-89523000D01*
X125056742Y-89523000D01*
X125081512Y-89527927D01*
G37*
G36*
X115124591Y-89394085D02*
G01*
X115158569Y-89404393D01*
X115189890Y-89421134D01*
X115217339Y-89443661D01*
X115239866Y-89471110D01*
X115256607Y-89502431D01*
X115266915Y-89536409D01*
X115271000Y-89577890D01*
X115271000Y-90254110D01*
X115266915Y-90295591D01*
X115256607Y-90329569D01*
X115239866Y-90360890D01*
X115217339Y-90388339D01*
X115189890Y-90410866D01*
X115158569Y-90427607D01*
X115124591Y-90437915D01*
X115083110Y-90442000D01*
X114481890Y-90442000D01*
X114440409Y-90437915D01*
X114406431Y-90427607D01*
X114375110Y-90410866D01*
X114347661Y-90388339D01*
X114325134Y-90360890D01*
X114308393Y-90329569D01*
X114298085Y-90295591D01*
X114294000Y-90254110D01*
X114294000Y-89577890D01*
X114298085Y-89536409D01*
X114308393Y-89502431D01*
X114325134Y-89471110D01*
X114347661Y-89443661D01*
X114375110Y-89421134D01*
X114406431Y-89404393D01*
X114440409Y-89394085D01*
X114481890Y-89390000D01*
X115083110Y-89390000D01*
X115124591Y-89394085D01*
G37*
G36*
X116699591Y-89394085D02*
G01*
X116733569Y-89404393D01*
X116764890Y-89421134D01*
X116792339Y-89443661D01*
X116814866Y-89471110D01*
X116831607Y-89502431D01*
X116841915Y-89536409D01*
X116846000Y-89577890D01*
X116846000Y-90254110D01*
X116841915Y-90295591D01*
X116831607Y-90329569D01*
X116814866Y-90360890D01*
X116792339Y-90388339D01*
X116764890Y-90410866D01*
X116733569Y-90427607D01*
X116699591Y-90437915D01*
X116658110Y-90442000D01*
X116056890Y-90442000D01*
X116015409Y-90437915D01*
X115981431Y-90427607D01*
X115950110Y-90410866D01*
X115922661Y-90388339D01*
X115900134Y-90360890D01*
X115883393Y-90329569D01*
X115873085Y-90295591D01*
X115869000Y-90254110D01*
X115869000Y-89577890D01*
X115873085Y-89536409D01*
X115883393Y-89502431D01*
X115900134Y-89471110D01*
X115922661Y-89443661D01*
X115950110Y-89421134D01*
X115981431Y-89404393D01*
X116015409Y-89394085D01*
X116056890Y-89390000D01*
X116658110Y-89390000D01*
X116699591Y-89394085D01*
G37*
G36*
X132447591Y-88632085D02*
G01*
X132481569Y-88642393D01*
X132512890Y-88659134D01*
X132540339Y-88681661D01*
X132562866Y-88709110D01*
X132579607Y-88740431D01*
X132589915Y-88774409D01*
X132594000Y-88815890D01*
X132594000Y-89492110D01*
X132589915Y-89533591D01*
X132579607Y-89567569D01*
X132562866Y-89598890D01*
X132540339Y-89626339D01*
X132512890Y-89648866D01*
X132481569Y-89665607D01*
X132447591Y-89675915D01*
X132406110Y-89680000D01*
X131804890Y-89680000D01*
X131763409Y-89675915D01*
X131729431Y-89665607D01*
X131698110Y-89648866D01*
X131670661Y-89626339D01*
X131648134Y-89598890D01*
X131631393Y-89567569D01*
X131621085Y-89533591D01*
X131617000Y-89492110D01*
X131617000Y-88815890D01*
X131621085Y-88774409D01*
X131631393Y-88740431D01*
X131648134Y-88709110D01*
X131670661Y-88681661D01*
X131698110Y-88659134D01*
X131729431Y-88642393D01*
X131763409Y-88632085D01*
X131804890Y-88628000D01*
X132406110Y-88628000D01*
X132447591Y-88632085D01*
G37*
G36*
X130872591Y-88632085D02*
G01*
X130906569Y-88642393D01*
X130937890Y-88659134D01*
X130965339Y-88681661D01*
X130987866Y-88709110D01*
X131004607Y-88740431D01*
X131014915Y-88774409D01*
X131019000Y-88815890D01*
X131019000Y-89492110D01*
X131014915Y-89533591D01*
X131004607Y-89567569D01*
X130987866Y-89598890D01*
X130965339Y-89626339D01*
X130937890Y-89648866D01*
X130906569Y-89665607D01*
X130872591Y-89675915D01*
X130831110Y-89680000D01*
X130229890Y-89680000D01*
X130188409Y-89675915D01*
X130154431Y-89665607D01*
X130123110Y-89648866D01*
X130095661Y-89626339D01*
X130073134Y-89598890D01*
X130056393Y-89567569D01*
X130046085Y-89533591D01*
X130042000Y-89492110D01*
X130042000Y-88815890D01*
X130046085Y-88774409D01*
X130056393Y-88740431D01*
X130073134Y-88709110D01*
X130095661Y-88681661D01*
X130123110Y-88659134D01*
X130154431Y-88642393D01*
X130188409Y-88632085D01*
X130229890Y-88628000D01*
X130831110Y-88628000D01*
X130872591Y-88632085D01*
G37*
G36*
X112317765Y-86882620D02*
G01*
X112507288Y-86961123D01*
X112677854Y-87075092D01*
X112822908Y-87220146D01*
X112936877Y-87390712D01*
X113015380Y-87580235D01*
X113055400Y-87781431D01*
X113055400Y-87986569D01*
X113015380Y-88187765D01*
X112936877Y-88377288D01*
X112822908Y-88547854D01*
X112677854Y-88692908D01*
X112507288Y-88806877D01*
X112507287Y-88806878D01*
X112507286Y-88806878D01*
X112317765Y-88885380D01*
X112116570Y-88925400D01*
X111911430Y-88925400D01*
X111710235Y-88885380D01*
X111520714Y-88806878D01*
X111520713Y-88806878D01*
X111520712Y-88806877D01*
X111350146Y-88692908D01*
X111205092Y-88547854D01*
X111091123Y-88377288D01*
X111012620Y-88187765D01*
X110972600Y-87986569D01*
X110972600Y-87781431D01*
X111012620Y-87580235D01*
X111091123Y-87390712D01*
X111205092Y-87220146D01*
X111350146Y-87075092D01*
X111520712Y-86961123D01*
X111710235Y-86882620D01*
X111911430Y-86842600D01*
X112116570Y-86842600D01*
X112317765Y-86882620D01*
G37*
G36*
X135177765Y-86882620D02*
G01*
X135367288Y-86961123D01*
X135537854Y-87075092D01*
X135682908Y-87220146D01*
X135796877Y-87390712D01*
X135875380Y-87580235D01*
X135915400Y-87781431D01*
X135915400Y-87986569D01*
X135875380Y-88187765D01*
X135796877Y-88377288D01*
X135682908Y-88547854D01*
X135537854Y-88692908D01*
X135367288Y-88806877D01*
X135367287Y-88806878D01*
X135367286Y-88806878D01*
X135177765Y-88885380D01*
X134976570Y-88925400D01*
X134771430Y-88925400D01*
X134570235Y-88885380D01*
X134380714Y-88806878D01*
X134380713Y-88806878D01*
X134380712Y-88806877D01*
X134210146Y-88692908D01*
X134065092Y-88547854D01*
X133951123Y-88377288D01*
X133872620Y-88187765D01*
X133832600Y-87986569D01*
X133832600Y-87781431D01*
X133872620Y-87580235D01*
X133951123Y-87390712D01*
X134065092Y-87220146D01*
X134210146Y-87075092D01*
X134380712Y-86961123D01*
X134570235Y-86882620D01*
X134771430Y-86842600D01*
X134976570Y-86842600D01*
X135177765Y-86882620D01*
G37*
G36*
X122040000Y-87268000D02*
G01*
X121038000Y-87268000D01*
X121038000Y-85166000D01*
X122040000Y-85166000D01*
X122040000Y-87268000D01*
G37*
G36*
X129660000Y-87268000D02*
G01*
X128658000Y-87268000D01*
X128658000Y-85166000D01*
X129660000Y-85166000D01*
X129660000Y-87268000D01*
G37*
G36*
X128390000Y-87268000D02*
G01*
X127388000Y-87268000D01*
X127388000Y-85166000D01*
X128390000Y-85166000D01*
X128390000Y-87268000D01*
G37*
G36*
X127120000Y-87268000D02*
G01*
X126118000Y-87268000D01*
X126118000Y-85166000D01*
X127120000Y-85166000D01*
X127120000Y-87268000D01*
G37*
G36*
X125850000Y-87268000D02*
G01*
X124848000Y-87268000D01*
X124848000Y-85166000D01*
X125850000Y-85166000D01*
X125850000Y-87268000D01*
G37*
G36*
X124580000Y-87268000D02*
G01*
X123578000Y-87268000D01*
X123578000Y-85166000D01*
X124580000Y-85166000D01*
X124580000Y-87268000D01*
G37*
G36*
X120770000Y-87268000D02*
G01*
X119768000Y-87268000D01*
X119768000Y-85166000D01*
X120770000Y-85166000D01*
X120770000Y-87268000D01*
G37*
G36*
X118230000Y-87268000D02*
G01*
X117228000Y-87268000D01*
X117228000Y-85166000D01*
X118230000Y-85166000D01*
X118230000Y-87268000D01*
G37*
G36*
X123310000Y-87268000D02*
G01*
X122308000Y-87268000D01*
X122308000Y-85166000D01*
X123310000Y-85166000D01*
X123310000Y-87268000D01*
G37*
G36*
X119500000Y-87268000D02*
G01*
X118498000Y-87268000D01*
X118498000Y-85166000D01*
X119500000Y-85166000D01*
X119500000Y-87268000D01*
G37*
G36*
X135177765Y-84342620D02*
G01*
X135367288Y-84421123D01*
X135537854Y-84535092D01*
X135682908Y-84680146D01*
X135796877Y-84850712D01*
X135875380Y-85040235D01*
X135915400Y-85241431D01*
X135915400Y-85446569D01*
X135875380Y-85647765D01*
X135796877Y-85837288D01*
X135682908Y-86007854D01*
X135537854Y-86152908D01*
X135367288Y-86266877D01*
X135367287Y-86266878D01*
X135367286Y-86266878D01*
X135177765Y-86345380D01*
X134976570Y-86385400D01*
X134771430Y-86385400D01*
X134570235Y-86345380D01*
X134380714Y-86266878D01*
X134380713Y-86266878D01*
X134380712Y-86266877D01*
X134210146Y-86152908D01*
X134065092Y-86007854D01*
X133951123Y-85837288D01*
X133872620Y-85647765D01*
X133832600Y-85446569D01*
X133832600Y-85241431D01*
X133872620Y-85040235D01*
X133951123Y-84850712D01*
X134065092Y-84680146D01*
X134210146Y-84535092D01*
X134380712Y-84421123D01*
X134570235Y-84342620D01*
X134771430Y-84302600D01*
X134976570Y-84302600D01*
X135177765Y-84342620D01*
G37*
G36*
X112317765Y-84342620D02*
G01*
X112507288Y-84421123D01*
X112677854Y-84535092D01*
X112822908Y-84680146D01*
X112936877Y-84850712D01*
X113015380Y-85040235D01*
X113055400Y-85241431D01*
X113055400Y-85446569D01*
X113015380Y-85647765D01*
X112936877Y-85837288D01*
X112822908Y-86007854D01*
X112677854Y-86152908D01*
X112507288Y-86266877D01*
X112507287Y-86266878D01*
X112507286Y-86266878D01*
X112317765Y-86345380D01*
X112116570Y-86385400D01*
X111911430Y-86385400D01*
X111710235Y-86345380D01*
X111520714Y-86266878D01*
X111520713Y-86266878D01*
X111520712Y-86266877D01*
X111350146Y-86152908D01*
X111205092Y-86007854D01*
X111091123Y-85837288D01*
X111012620Y-85647765D01*
X110972600Y-85446569D01*
X110972600Y-85241431D01*
X111012620Y-85040235D01*
X111091123Y-84850712D01*
X111205092Y-84680146D01*
X111350146Y-84535092D01*
X111520712Y-84421123D01*
X111710235Y-84342620D01*
X111911430Y-84302600D01*
X112116570Y-84302600D01*
X112317765Y-84342620D01*
G37*
G36*
X115995000Y-85718000D02*
G01*
X113893000Y-85718000D01*
X113893000Y-84716000D01*
X115995000Y-84716000D01*
X115995000Y-85718000D01*
G37*
G36*
X132995000Y-85718000D02*
G01*
X130893000Y-85718000D01*
X130893000Y-84716000D01*
X132995000Y-84716000D01*
X132995000Y-85718000D01*
G37*
G36*
X132995000Y-84448000D02*
G01*
X130893000Y-84448000D01*
X130893000Y-83446000D01*
X132995000Y-83446000D01*
X132995000Y-84448000D01*
G37*
G36*
X115995000Y-84448000D02*
G01*
X113893000Y-84448000D01*
X113893000Y-83446000D01*
X115995000Y-83446000D01*
X115995000Y-84448000D01*
G37*
G36*
X135177765Y-81802620D02*
G01*
X135367288Y-81881123D01*
X135537854Y-81995092D01*
X135682908Y-82140146D01*
X135796877Y-82310712D01*
X135875380Y-82500235D01*
X135915400Y-82701431D01*
X135915400Y-82906569D01*
X135875380Y-83107765D01*
X135796877Y-83297288D01*
X135682908Y-83467854D01*
X135537854Y-83612908D01*
X135367288Y-83726877D01*
X135367287Y-83726878D01*
X135367286Y-83726878D01*
X135177765Y-83805380D01*
X134976570Y-83845400D01*
X134771430Y-83845400D01*
X134570235Y-83805380D01*
X134380714Y-83726878D01*
X134380713Y-83726878D01*
X134380712Y-83726877D01*
X134210146Y-83612908D01*
X134065092Y-83467854D01*
X133951123Y-83297288D01*
X133872620Y-83107765D01*
X133832600Y-82906569D01*
X133832600Y-82701431D01*
X133872620Y-82500235D01*
X133951123Y-82310712D01*
X134065092Y-82140146D01*
X134210146Y-81995092D01*
X134380712Y-81881123D01*
X134570235Y-81802620D01*
X134771430Y-81762600D01*
X134976570Y-81762600D01*
X135177765Y-81802620D01*
G37*
G36*
X112317765Y-81802620D02*
G01*
X112507288Y-81881123D01*
X112677854Y-81995092D01*
X112822908Y-82140146D01*
X112936877Y-82310712D01*
X113015380Y-82500235D01*
X113055400Y-82701431D01*
X113055400Y-82906569D01*
X113015380Y-83107765D01*
X112936877Y-83297288D01*
X112822908Y-83467854D01*
X112677854Y-83612908D01*
X112507288Y-83726877D01*
X112507287Y-83726878D01*
X112507286Y-83726878D01*
X112317765Y-83805380D01*
X112116570Y-83845400D01*
X111911430Y-83845400D01*
X111710235Y-83805380D01*
X111520714Y-83726878D01*
X111520713Y-83726878D01*
X111520712Y-83726877D01*
X111350146Y-83612908D01*
X111205092Y-83467854D01*
X111091123Y-83297288D01*
X111012620Y-83107765D01*
X110972600Y-82906569D01*
X110972600Y-82701431D01*
X111012620Y-82500235D01*
X111091123Y-82310712D01*
X111205092Y-82140146D01*
X111350146Y-81995092D01*
X111520712Y-81881123D01*
X111710235Y-81802620D01*
X111911430Y-81762600D01*
X112116570Y-81762600D01*
X112317765Y-81802620D01*
G37*
G36*
X132995000Y-83178000D02*
G01*
X130893000Y-83178000D01*
X130893000Y-82176000D01*
X132995000Y-82176000D01*
X132995000Y-83178000D01*
G37*
G36*
X115995000Y-83178000D02*
G01*
X113893000Y-83178000D01*
X113893000Y-82176000D01*
X115995000Y-82176000D01*
X115995000Y-83178000D01*
G37*
G36*
X132995000Y-81908000D02*
G01*
X130893000Y-81908000D01*
X130893000Y-80906000D01*
X132995000Y-80906000D01*
X132995000Y-81908000D01*
G37*
G36*
X115995000Y-81908000D02*
G01*
X113893000Y-81908000D01*
X113893000Y-80906000D01*
X115995000Y-80906000D01*
X115995000Y-81908000D01*
G37*
G36*
X135177765Y-79262620D02*
G01*
X135367288Y-79341123D01*
X135537854Y-79455092D01*
X135682908Y-79600146D01*
X135796877Y-79770712D01*
X135875380Y-79960235D01*
X135915400Y-80161431D01*
X135915400Y-80366569D01*
X135875380Y-80567765D01*
X135796877Y-80757288D01*
X135682908Y-80927854D01*
X135537854Y-81072908D01*
X135367288Y-81186877D01*
X135367287Y-81186878D01*
X135367286Y-81186878D01*
X135177765Y-81265380D01*
X134976570Y-81305400D01*
X134771430Y-81305400D01*
X134570235Y-81265380D01*
X134380714Y-81186878D01*
X134380713Y-81186878D01*
X134380712Y-81186877D01*
X134210146Y-81072908D01*
X134065092Y-80927854D01*
X133951123Y-80757288D01*
X133872620Y-80567765D01*
X133832600Y-80366569D01*
X133832600Y-80161431D01*
X133872620Y-79960235D01*
X133951123Y-79770712D01*
X134065092Y-79600146D01*
X134210146Y-79455092D01*
X134380712Y-79341123D01*
X134570235Y-79262620D01*
X134771430Y-79222600D01*
X134976570Y-79222600D01*
X135177765Y-79262620D01*
G37*
G36*
X112317765Y-79262620D02*
G01*
X112507288Y-79341123D01*
X112677854Y-79455092D01*
X112822908Y-79600146D01*
X112936877Y-79770712D01*
X113015380Y-79960235D01*
X113055400Y-80161431D01*
X113055400Y-80366569D01*
X113015380Y-80567765D01*
X112936877Y-80757288D01*
X112822908Y-80927854D01*
X112677854Y-81072908D01*
X112507288Y-81186877D01*
X112507287Y-81186878D01*
X112507286Y-81186878D01*
X112317765Y-81265380D01*
X112116570Y-81305400D01*
X111911430Y-81305400D01*
X111710235Y-81265380D01*
X111520714Y-81186878D01*
X111520713Y-81186878D01*
X111520712Y-81186877D01*
X111350146Y-81072908D01*
X111205092Y-80927854D01*
X111091123Y-80757288D01*
X111012620Y-80567765D01*
X110972600Y-80366569D01*
X110972600Y-80161431D01*
X111012620Y-79960235D01*
X111091123Y-79770712D01*
X111205092Y-79600146D01*
X111350146Y-79455092D01*
X111520712Y-79341123D01*
X111710235Y-79262620D01*
X111911430Y-79222600D01*
X112116570Y-79222600D01*
X112317765Y-79262620D01*
G37*
G36*
X115995000Y-80638000D02*
G01*
X113893000Y-80638000D01*
X113893000Y-79636000D01*
X115995000Y-79636000D01*
X115995000Y-80638000D01*
G37*
G36*
X132995000Y-80638000D02*
G01*
X130893000Y-80638000D01*
X130893000Y-79636000D01*
X132995000Y-79636000D01*
X132995000Y-80638000D01*
G37*
G36*
X132995000Y-79368000D02*
G01*
X130893000Y-79368000D01*
X130893000Y-78366000D01*
X132995000Y-78366000D01*
X132995000Y-79368000D01*
G37*
G36*
X115995000Y-79368000D02*
G01*
X113893000Y-79368000D01*
X113893000Y-78366000D01*
X115995000Y-78366000D01*
X115995000Y-79368000D01*
G37*
G36*
X135177765Y-76722620D02*
G01*
X135367288Y-76801123D01*
X135537854Y-76915092D01*
X135682908Y-77060146D01*
X135796877Y-77230712D01*
X135875380Y-77420235D01*
X135915400Y-77621431D01*
X135915400Y-77826569D01*
X135875380Y-78027765D01*
X135796877Y-78217288D01*
X135682908Y-78387854D01*
X135537854Y-78532908D01*
X135367288Y-78646877D01*
X135367287Y-78646878D01*
X135367286Y-78646878D01*
X135177765Y-78725380D01*
X134976570Y-78765400D01*
X134771430Y-78765400D01*
X134570235Y-78725380D01*
X134380714Y-78646878D01*
X134380713Y-78646878D01*
X134380712Y-78646877D01*
X134210146Y-78532908D01*
X134065092Y-78387854D01*
X133951123Y-78217288D01*
X133872620Y-78027765D01*
X133832600Y-77826569D01*
X133832600Y-77621431D01*
X133872620Y-77420235D01*
X133951123Y-77230712D01*
X134065092Y-77060146D01*
X134210146Y-76915092D01*
X134380712Y-76801123D01*
X134570235Y-76722620D01*
X134771430Y-76682600D01*
X134976570Y-76682600D01*
X135177765Y-76722620D01*
G37*
G36*
X112317765Y-76722620D02*
G01*
X112507288Y-76801123D01*
X112677854Y-76915092D01*
X112822908Y-77060146D01*
X112936877Y-77230712D01*
X113015380Y-77420235D01*
X113055400Y-77621431D01*
X113055400Y-77826569D01*
X113015380Y-78027765D01*
X112936877Y-78217288D01*
X112822908Y-78387854D01*
X112677854Y-78532908D01*
X112507288Y-78646877D01*
X112507287Y-78646878D01*
X112507286Y-78646878D01*
X112317765Y-78725380D01*
X112116570Y-78765400D01*
X111911430Y-78765400D01*
X111710235Y-78725380D01*
X111520714Y-78646878D01*
X111520713Y-78646878D01*
X111520712Y-78646877D01*
X111350146Y-78532908D01*
X111205092Y-78387854D01*
X111091123Y-78217288D01*
X111012620Y-78027765D01*
X110972600Y-77826569D01*
X110972600Y-77621431D01*
X111012620Y-77420235D01*
X111091123Y-77230712D01*
X111205092Y-77060146D01*
X111350146Y-76915092D01*
X111520712Y-76801123D01*
X111710235Y-76722620D01*
X111911430Y-76682600D01*
X112116570Y-76682600D01*
X112317765Y-76722620D01*
G37*
G36*
X124995000Y-78758000D02*
G01*
X119893000Y-78758000D01*
X119893000Y-73656000D01*
X124995000Y-73656000D01*
X124995000Y-78758000D01*
G37*
G36*
X132995000Y-78098000D02*
G01*
X130893000Y-78098000D01*
X130893000Y-77096000D01*
X132995000Y-77096000D01*
X132995000Y-78098000D01*
G37*
G36*
X115995000Y-78098000D02*
G01*
X113893000Y-78098000D01*
X113893000Y-77096000D01*
X115995000Y-77096000D01*
X115995000Y-78098000D01*
G37*
G36*
X132995000Y-76828000D02*
G01*
X130893000Y-76828000D01*
X130893000Y-75826000D01*
X132995000Y-75826000D01*
X132995000Y-76828000D01*
G37*
G36*
X115995000Y-76828000D02*
G01*
X113893000Y-76828000D01*
X113893000Y-75826000D01*
X115995000Y-75826000D01*
X115995000Y-76828000D01*
G37*
G36*
X135177765Y-74182620D02*
G01*
X135367288Y-74261123D01*
X135537854Y-74375092D01*
X135682908Y-74520146D01*
X135796877Y-74690712D01*
X135875380Y-74880235D01*
X135915400Y-75081431D01*
X135915400Y-75286569D01*
X135875380Y-75487765D01*
X135796877Y-75677288D01*
X135682908Y-75847854D01*
X135537854Y-75992908D01*
X135367288Y-76106877D01*
X135367287Y-76106878D01*
X135367286Y-76106878D01*
X135177765Y-76185380D01*
X134976570Y-76225400D01*
X134771430Y-76225400D01*
X134570235Y-76185380D01*
X134380714Y-76106878D01*
X134380713Y-76106878D01*
X134380712Y-76106877D01*
X134210146Y-75992908D01*
X134065092Y-75847854D01*
X133951123Y-75677288D01*
X133872620Y-75487765D01*
X133832600Y-75286569D01*
X133832600Y-75081431D01*
X133872620Y-74880235D01*
X133951123Y-74690712D01*
X134065092Y-74520146D01*
X134210146Y-74375092D01*
X134380712Y-74261123D01*
X134570235Y-74182620D01*
X134771430Y-74142600D01*
X134976570Y-74142600D01*
X135177765Y-74182620D01*
G37*
G36*
X112317765Y-74182620D02*
G01*
X112507288Y-74261123D01*
X112677854Y-74375092D01*
X112822908Y-74520146D01*
X112936877Y-74690712D01*
X113015380Y-74880235D01*
X113055400Y-75081431D01*
X113055400Y-75286569D01*
X113015380Y-75487765D01*
X112936877Y-75677288D01*
X112822908Y-75847854D01*
X112677854Y-75992908D01*
X112507288Y-76106877D01*
X112507287Y-76106878D01*
X112507286Y-76106878D01*
X112317765Y-76185380D01*
X112116570Y-76225400D01*
X111911430Y-76225400D01*
X111710235Y-76185380D01*
X111520714Y-76106878D01*
X111520713Y-76106878D01*
X111520712Y-76106877D01*
X111350146Y-75992908D01*
X111205092Y-75847854D01*
X111091123Y-75677288D01*
X111012620Y-75487765D01*
X110972600Y-75286569D01*
X110972600Y-75081431D01*
X111012620Y-74880235D01*
X111091123Y-74690712D01*
X111205092Y-74520146D01*
X111350146Y-74375092D01*
X111520712Y-74261123D01*
X111710235Y-74182620D01*
X111911430Y-74142600D01*
X112116570Y-74142600D01*
X112317765Y-74182620D01*
G37*
G36*
X115995000Y-75558000D02*
G01*
X113893000Y-75558000D01*
X113893000Y-74556000D01*
X115995000Y-74556000D01*
X115995000Y-75558000D01*
G37*
G36*
X132995000Y-75558000D02*
G01*
X130893000Y-75558000D01*
X130893000Y-74556000D01*
X132995000Y-74556000D01*
X132995000Y-75558000D01*
G37*
G36*
X115995000Y-74288000D02*
G01*
X113893000Y-74288000D01*
X113893000Y-73286000D01*
X115995000Y-73286000D01*
X115995000Y-74288000D01*
G37*
G36*
X132995000Y-74288000D02*
G01*
X130893000Y-74288000D01*
X130893000Y-73286000D01*
X132995000Y-73286000D01*
X132995000Y-74288000D01*
G37*
G36*
X112317765Y-71642620D02*
G01*
X112507288Y-71721123D01*
X112677854Y-71835092D01*
X112822908Y-71980146D01*
X112936877Y-72150712D01*
X113015380Y-72340235D01*
X113055400Y-72541431D01*
X113055400Y-72746569D01*
X113015380Y-72947765D01*
X112936877Y-73137288D01*
X112822908Y-73307854D01*
X112677854Y-73452908D01*
X112507288Y-73566877D01*
X112507287Y-73566878D01*
X112507286Y-73566878D01*
X112317765Y-73645380D01*
X112116570Y-73685400D01*
X111911430Y-73685400D01*
X111710235Y-73645380D01*
X111520714Y-73566878D01*
X111520713Y-73566878D01*
X111520712Y-73566877D01*
X111350146Y-73452908D01*
X111205092Y-73307854D01*
X111091123Y-73137288D01*
X111012620Y-72947765D01*
X110972600Y-72746569D01*
X110972600Y-72541431D01*
X111012620Y-72340235D01*
X111091123Y-72150712D01*
X111205092Y-71980146D01*
X111350146Y-71835092D01*
X111520712Y-71721123D01*
X111710235Y-71642620D01*
X111911430Y-71602600D01*
X112116570Y-71602600D01*
X112317765Y-71642620D01*
G37*
G36*
X135177765Y-71642620D02*
G01*
X135367288Y-71721123D01*
X135537854Y-71835092D01*
X135682908Y-71980146D01*
X135796877Y-72150712D01*
X135875380Y-72340235D01*
X135915400Y-72541431D01*
X135915400Y-72746569D01*
X135875380Y-72947765D01*
X135796877Y-73137288D01*
X135682908Y-73307854D01*
X135537854Y-73452908D01*
X135367288Y-73566877D01*
X135367287Y-73566878D01*
X135367286Y-73566878D01*
X135177765Y-73645380D01*
X134976570Y-73685400D01*
X134771430Y-73685400D01*
X134570235Y-73645380D01*
X134380714Y-73566878D01*
X134380713Y-73566878D01*
X134380712Y-73566877D01*
X134210146Y-73452908D01*
X134065092Y-73307854D01*
X133951123Y-73137288D01*
X133872620Y-72947765D01*
X133832600Y-72746569D01*
X133832600Y-72541431D01*
X133872620Y-72340235D01*
X133951123Y-72150712D01*
X134065092Y-71980146D01*
X134210146Y-71835092D01*
X134380712Y-71721123D01*
X134570235Y-71642620D01*
X134771430Y-71602600D01*
X134976570Y-71602600D01*
X135177765Y-71642620D01*
G37*
G36*
X115995000Y-73018000D02*
G01*
X113893000Y-73018000D01*
X113893000Y-72016000D01*
X115995000Y-72016000D01*
X115995000Y-73018000D01*
G37*
G36*
X132995000Y-73018000D02*
G01*
X130893000Y-73018000D01*
X130893000Y-72016000D01*
X132995000Y-72016000D01*
X132995000Y-73018000D01*
G37*
G36*
X132995000Y-71748000D02*
G01*
X130893000Y-71748000D01*
X130893000Y-70746000D01*
X132995000Y-70746000D01*
X132995000Y-71748000D01*
G37*
G36*
X115995000Y-71748000D02*
G01*
X113893000Y-71748000D01*
X113893000Y-70746000D01*
X115995000Y-70746000D01*
X115995000Y-71748000D01*
G37*
G36*
X135177765Y-69102620D02*
G01*
X135367288Y-69181123D01*
X135537854Y-69295092D01*
X135682908Y-69440146D01*
X135796877Y-69610712D01*
X135875380Y-69800235D01*
X135915400Y-70001431D01*
X135915400Y-70206569D01*
X135875380Y-70407765D01*
X135796877Y-70597288D01*
X135682908Y-70767854D01*
X135537854Y-70912908D01*
X135367288Y-71026877D01*
X135367287Y-71026878D01*
X135367286Y-71026878D01*
X135177765Y-71105380D01*
X134976570Y-71145400D01*
X134771430Y-71145400D01*
X134570235Y-71105380D01*
X134380714Y-71026878D01*
X134380713Y-71026878D01*
X134380712Y-71026877D01*
X134210146Y-70912908D01*
X134065092Y-70767854D01*
X133951123Y-70597288D01*
X133872620Y-70407765D01*
X133832600Y-70206569D01*
X133832600Y-70001431D01*
X133872620Y-69800235D01*
X133951123Y-69610712D01*
X134065092Y-69440146D01*
X134210146Y-69295092D01*
X134380712Y-69181123D01*
X134570235Y-69102620D01*
X134771430Y-69062600D01*
X134976570Y-69062600D01*
X135177765Y-69102620D01*
G37*
G36*
X112317765Y-69102620D02*
G01*
X112507288Y-69181123D01*
X112677854Y-69295092D01*
X112822908Y-69440146D01*
X112936877Y-69610712D01*
X113015380Y-69800235D01*
X113055400Y-70001431D01*
X113055400Y-70206569D01*
X113015380Y-70407765D01*
X112936877Y-70597288D01*
X112822908Y-70767854D01*
X112677854Y-70912908D01*
X112507288Y-71026877D01*
X112507287Y-71026878D01*
X112507286Y-71026878D01*
X112317765Y-71105380D01*
X112116570Y-71145400D01*
X111911430Y-71145400D01*
X111710235Y-71105380D01*
X111520714Y-71026878D01*
X111520713Y-71026878D01*
X111520712Y-71026877D01*
X111350146Y-70912908D01*
X111205092Y-70767854D01*
X111091123Y-70597288D01*
X111012620Y-70407765D01*
X110972600Y-70206569D01*
X110972600Y-70001431D01*
X111012620Y-69800235D01*
X111091123Y-69610712D01*
X111205092Y-69440146D01*
X111350146Y-69295092D01*
X111520712Y-69181123D01*
X111710235Y-69102620D01*
X111911430Y-69062600D01*
X112116570Y-69062600D01*
X112317765Y-69102620D01*
G37*
G36*
X115995000Y-70478000D02*
G01*
X113893000Y-70478000D01*
X113893000Y-69476000D01*
X115995000Y-69476000D01*
X115995000Y-70478000D01*
G37*
G36*
X132995000Y-70478000D02*
G01*
X130893000Y-70478000D01*
X130893000Y-69476000D01*
X132995000Y-69476000D01*
X132995000Y-70478000D01*
G37*
G36*
X115995000Y-69208000D02*
G01*
X113893000Y-69208000D01*
X113893000Y-68206000D01*
X115995000Y-68206000D01*
X115995000Y-69208000D01*
G37*
G36*
X132995000Y-69208000D02*
G01*
X130893000Y-69208000D01*
X130893000Y-68206000D01*
X132995000Y-68206000D01*
X132995000Y-69208000D01*
G37*
M02*
