G04 #@! TF.GenerationSoftware,KiCad,Pcbnew,5.1.5+dfsg1-2build2*
G04 #@! TF.CreationDate,2020-09-11T18:15:35+01:00*
G04 #@! TF.ProjectId,lhc_tijolo32_board,6c68635f-7469-46a6-9f6c-6f33325f626f,rev?*
G04 #@! TF.SameCoordinates,Original*
G04 #@! TF.FileFunction,Copper,L2,Bot*
G04 #@! TF.FilePolarity,Positive*
%FSLAX46Y46*%
G04 Gerber Fmt 4.6, Leading zero omitted, Abs format (unit mm)*
G04 Created by KiCad (PCBNEW 5.1.5+dfsg1-2build2) date 2020-09-11 18:15:35*
%MOMM*%
%LPD*%
G04 APERTURE LIST*
%ADD10C,0.010000*%
%ADD11R,1.879600X1.879600*%
%ADD12C,1.879600*%
%ADD13O,0.900000X2.000000*%
%ADD14O,0.900000X1.700000*%
%ADD15R,1.700000X1.700000*%
%ADD16O,1.700000X1.700000*%
G04 APERTURE END LIST*
D10*
G36*
X130277939Y-98103968D02*
G01*
X130158958Y-98200128D01*
X130036635Y-98333870D01*
X129932781Y-98483491D01*
X129908712Y-98527785D01*
X129865077Y-98634144D01*
X129805333Y-98806625D01*
X129737200Y-99021777D01*
X129668401Y-99256150D01*
X129665435Y-99266694D01*
X129591054Y-99520758D01*
X129529739Y-99700667D01*
X129474488Y-99822663D01*
X129418297Y-99902986D01*
X129373298Y-99944152D01*
X129282548Y-100036676D01*
X129268577Y-100130627D01*
X129273521Y-100151970D01*
X129366557Y-100355130D01*
X129515399Y-100541188D01*
X129659227Y-100653522D01*
X129776018Y-100718395D01*
X129847082Y-100738803D01*
X129910889Y-100717122D01*
X129979226Y-100673275D01*
X130048471Y-100614958D01*
X130109455Y-100530501D01*
X130168039Y-100405995D01*
X130230084Y-100227529D01*
X130301453Y-99981191D01*
X130354297Y-99783140D01*
X130435354Y-99500085D01*
X130516055Y-99282394D01*
X130607265Y-99103677D01*
X130679931Y-98992226D01*
X130775748Y-98842036D01*
X130843665Y-98707843D01*
X130868616Y-98620901D01*
X130832814Y-98474910D01*
X130740421Y-98321606D01*
X130613953Y-98186089D01*
X130475927Y-98093456D01*
X130371762Y-98067091D01*
X130277939Y-98103968D01*
G37*
X130277939Y-98103968D02*
X130158958Y-98200128D01*
X130036635Y-98333870D01*
X129932781Y-98483491D01*
X129908712Y-98527785D01*
X129865077Y-98634144D01*
X129805333Y-98806625D01*
X129737200Y-99021777D01*
X129668401Y-99256150D01*
X129665435Y-99266694D01*
X129591054Y-99520758D01*
X129529739Y-99700667D01*
X129474488Y-99822663D01*
X129418297Y-99902986D01*
X129373298Y-99944152D01*
X129282548Y-100036676D01*
X129268577Y-100130627D01*
X129273521Y-100151970D01*
X129366557Y-100355130D01*
X129515399Y-100541188D01*
X129659227Y-100653522D01*
X129776018Y-100718395D01*
X129847082Y-100738803D01*
X129910889Y-100717122D01*
X129979226Y-100673275D01*
X130048471Y-100614958D01*
X130109455Y-100530501D01*
X130168039Y-100405995D01*
X130230084Y-100227529D01*
X130301453Y-99981191D01*
X130354297Y-99783140D01*
X130435354Y-99500085D01*
X130516055Y-99282394D01*
X130607265Y-99103677D01*
X130679931Y-98992226D01*
X130775748Y-98842036D01*
X130843665Y-98707843D01*
X130868616Y-98620901D01*
X130832814Y-98474910D01*
X130740421Y-98321606D01*
X130613953Y-98186089D01*
X130475927Y-98093456D01*
X130371762Y-98067091D01*
X130277939Y-98103968D01*
G36*
X115851223Y-95822564D02*
G01*
X115661098Y-95933458D01*
X115623288Y-95970990D01*
X115544556Y-96106405D01*
X115486288Y-96296910D01*
X115456598Y-96505971D01*
X115462931Y-96692893D01*
X115534080Y-97027366D01*
X115653090Y-97435775D01*
X115817986Y-97912615D01*
X116026795Y-98452382D01*
X116277539Y-99049569D01*
X116441619Y-99420549D01*
X116554835Y-99675883D01*
X116651598Y-99901256D01*
X116726439Y-100083321D01*
X116773887Y-100208735D01*
X116788472Y-100264153D01*
X116787884Y-100265359D01*
X116739235Y-100255952D01*
X116622349Y-100219568D01*
X116459406Y-100164211D01*
X116272585Y-100097884D01*
X116084065Y-100028589D01*
X115916025Y-99964330D01*
X115790645Y-99913109D01*
X115732019Y-99884368D01*
X115750230Y-99845708D01*
X115817366Y-99761393D01*
X115872457Y-99699910D01*
X116048046Y-99471759D01*
X116130099Y-99261604D01*
X116119031Y-99062133D01*
X116015261Y-98866034D01*
X115925783Y-98763958D01*
X115825403Y-98680537D01*
X115730755Y-98652846D01*
X115626651Y-98685878D01*
X115497899Y-98784626D01*
X115329312Y-98954084D01*
X115321252Y-98962696D01*
X115023846Y-99232673D01*
X114714661Y-99421518D01*
X114401562Y-99525159D01*
X114197024Y-99544909D01*
X113989921Y-99550943D01*
X113862169Y-99574422D01*
X113795934Y-99623408D01*
X113773379Y-99705968D01*
X113772462Y-99736871D01*
X113819351Y-99947083D01*
X113953189Y-100148646D01*
X114067532Y-100255227D01*
X114192805Y-100334547D01*
X114333468Y-100370124D01*
X114472267Y-100376440D01*
X114659190Y-100385321D01*
X114836845Y-100407437D01*
X114895924Y-100419665D01*
X115060114Y-100460613D01*
X115242521Y-100505674D01*
X115270815Y-100512618D01*
X115396863Y-100547520D01*
X115448505Y-100585938D01*
X115446187Y-100653492D01*
X115429565Y-100711542D01*
X115394358Y-100881714D01*
X115402332Y-100990275D01*
X115443182Y-101029966D01*
X115506604Y-100993532D01*
X115582295Y-100873714D01*
X115600933Y-100832236D01*
X115652560Y-100721933D01*
X115690204Y-100662542D01*
X115699055Y-100659054D01*
X115696956Y-100708401D01*
X115678210Y-100829751D01*
X115645981Y-101004658D01*
X115604954Y-101207455D01*
X115539333Y-101527195D01*
X115494342Y-101767039D01*
X115468890Y-101937140D01*
X115461892Y-102047655D01*
X115472258Y-102108740D01*
X115498900Y-102130549D01*
X115505997Y-102131091D01*
X115544722Y-102086107D01*
X115599146Y-101953200D01*
X115668196Y-101735442D01*
X115750800Y-101435901D01*
X115756178Y-101415341D01*
X115827056Y-101147085D01*
X115880757Y-100956471D01*
X115922397Y-100831211D01*
X115957094Y-100759020D01*
X115989964Y-100727614D01*
X116026125Y-100724706D01*
X116042195Y-100728634D01*
X116152799Y-100766827D01*
X116329966Y-100834478D01*
X116552464Y-100922832D01*
X116799061Y-101023134D01*
X117048527Y-101126626D01*
X117279628Y-101224554D01*
X117471134Y-101308162D01*
X117601812Y-101368694D01*
X117631610Y-101384102D01*
X117811335Y-101463750D01*
X117963961Y-101494705D01*
X118070625Y-101475466D01*
X118110343Y-101422206D01*
X118112864Y-101251072D01*
X118043733Y-101066776D01*
X117897264Y-100857158D01*
X117788224Y-100733659D01*
X117588805Y-100490226D01*
X117387063Y-100182633D01*
X117178702Y-99803343D01*
X116959426Y-99344820D01*
X116834273Y-99060000D01*
X116689331Y-98710635D01*
X116550395Y-98355413D01*
X116422755Y-98009610D01*
X116311700Y-97688501D01*
X116222521Y-97407363D01*
X116160507Y-97181470D01*
X116131373Y-97030157D01*
X116120094Y-96880140D01*
X116134605Y-96786107D01*
X116185285Y-96712836D01*
X116239869Y-96661998D01*
X116414564Y-96561809D01*
X116535407Y-96543091D01*
X116701734Y-96551624D01*
X116790119Y-96589576D01*
X116819634Y-96675483D01*
X116811366Y-96811286D01*
X116799423Y-96938618D01*
X116807529Y-96990728D01*
X116840833Y-96983675D01*
X116861736Y-96968379D01*
X116933539Y-96877256D01*
X116968023Y-96795197D01*
X117009676Y-96709537D01*
X117052946Y-96681637D01*
X117145966Y-96704485D01*
X117276824Y-96761111D01*
X117411617Y-96833630D01*
X117516444Y-96904161D01*
X117555853Y-96946903D01*
X117543938Y-97040154D01*
X117455407Y-97174946D01*
X117296073Y-97343246D01*
X117216041Y-97416194D01*
X117050277Y-97572503D01*
X116954595Y-97694451D01*
X116919131Y-97800760D01*
X116934021Y-97910153D01*
X116942592Y-97935190D01*
X117009740Y-98071161D01*
X117104612Y-98215048D01*
X117121110Y-98236162D01*
X117231152Y-98346905D01*
X117340774Y-98393013D01*
X117463116Y-98371588D01*
X117611318Y-98279735D01*
X117798520Y-98114555D01*
X117835512Y-98078637D01*
X118000397Y-97909031D01*
X118107742Y-97774650D01*
X118174460Y-97650921D01*
X118213449Y-97529557D01*
X118242197Y-97286098D01*
X118197955Y-97045081D01*
X118075805Y-96785877D01*
X118012094Y-96684562D01*
X117816269Y-96447529D01*
X117569971Y-96238697D01*
X117287826Y-96062434D01*
X116984456Y-95923110D01*
X116674486Y-95825092D01*
X116372541Y-95772749D01*
X116093245Y-95770450D01*
X115851223Y-95822564D01*
G37*
X115851223Y-95822564D02*
X115661098Y-95933458D01*
X115623288Y-95970990D01*
X115544556Y-96106405D01*
X115486288Y-96296910D01*
X115456598Y-96505971D01*
X115462931Y-96692893D01*
X115534080Y-97027366D01*
X115653090Y-97435775D01*
X115817986Y-97912615D01*
X116026795Y-98452382D01*
X116277539Y-99049569D01*
X116441619Y-99420549D01*
X116554835Y-99675883D01*
X116651598Y-99901256D01*
X116726439Y-100083321D01*
X116773887Y-100208735D01*
X116788472Y-100264153D01*
X116787884Y-100265359D01*
X116739235Y-100255952D01*
X116622349Y-100219568D01*
X116459406Y-100164211D01*
X116272585Y-100097884D01*
X116084065Y-100028589D01*
X115916025Y-99964330D01*
X115790645Y-99913109D01*
X115732019Y-99884368D01*
X115750230Y-99845708D01*
X115817366Y-99761393D01*
X115872457Y-99699910D01*
X116048046Y-99471759D01*
X116130099Y-99261604D01*
X116119031Y-99062133D01*
X116015261Y-98866034D01*
X115925783Y-98763958D01*
X115825403Y-98680537D01*
X115730755Y-98652846D01*
X115626651Y-98685878D01*
X115497899Y-98784626D01*
X115329312Y-98954084D01*
X115321252Y-98962696D01*
X115023846Y-99232673D01*
X114714661Y-99421518D01*
X114401562Y-99525159D01*
X114197024Y-99544909D01*
X113989921Y-99550943D01*
X113862169Y-99574422D01*
X113795934Y-99623408D01*
X113773379Y-99705968D01*
X113772462Y-99736871D01*
X113819351Y-99947083D01*
X113953189Y-100148646D01*
X114067532Y-100255227D01*
X114192805Y-100334547D01*
X114333468Y-100370124D01*
X114472267Y-100376440D01*
X114659190Y-100385321D01*
X114836845Y-100407437D01*
X114895924Y-100419665D01*
X115060114Y-100460613D01*
X115242521Y-100505674D01*
X115270815Y-100512618D01*
X115396863Y-100547520D01*
X115448505Y-100585938D01*
X115446187Y-100653492D01*
X115429565Y-100711542D01*
X115394358Y-100881714D01*
X115402332Y-100990275D01*
X115443182Y-101029966D01*
X115506604Y-100993532D01*
X115582295Y-100873714D01*
X115600933Y-100832236D01*
X115652560Y-100721933D01*
X115690204Y-100662542D01*
X115699055Y-100659054D01*
X115696956Y-100708401D01*
X115678210Y-100829751D01*
X115645981Y-101004658D01*
X115604954Y-101207455D01*
X115539333Y-101527195D01*
X115494342Y-101767039D01*
X115468890Y-101937140D01*
X115461892Y-102047655D01*
X115472258Y-102108740D01*
X115498900Y-102130549D01*
X115505997Y-102131091D01*
X115544722Y-102086107D01*
X115599146Y-101953200D01*
X115668196Y-101735442D01*
X115750800Y-101435901D01*
X115756178Y-101415341D01*
X115827056Y-101147085D01*
X115880757Y-100956471D01*
X115922397Y-100831211D01*
X115957094Y-100759020D01*
X115989964Y-100727614D01*
X116026125Y-100724706D01*
X116042195Y-100728634D01*
X116152799Y-100766827D01*
X116329966Y-100834478D01*
X116552464Y-100922832D01*
X116799061Y-101023134D01*
X117048527Y-101126626D01*
X117279628Y-101224554D01*
X117471134Y-101308162D01*
X117601812Y-101368694D01*
X117631610Y-101384102D01*
X117811335Y-101463750D01*
X117963961Y-101494705D01*
X118070625Y-101475466D01*
X118110343Y-101422206D01*
X118112864Y-101251072D01*
X118043733Y-101066776D01*
X117897264Y-100857158D01*
X117788224Y-100733659D01*
X117588805Y-100490226D01*
X117387063Y-100182633D01*
X117178702Y-99803343D01*
X116959426Y-99344820D01*
X116834273Y-99060000D01*
X116689331Y-98710635D01*
X116550395Y-98355413D01*
X116422755Y-98009610D01*
X116311700Y-97688501D01*
X116222521Y-97407363D01*
X116160507Y-97181470D01*
X116131373Y-97030157D01*
X116120094Y-96880140D01*
X116134605Y-96786107D01*
X116185285Y-96712836D01*
X116239869Y-96661998D01*
X116414564Y-96561809D01*
X116535407Y-96543091D01*
X116701734Y-96551624D01*
X116790119Y-96589576D01*
X116819634Y-96675483D01*
X116811366Y-96811286D01*
X116799423Y-96938618D01*
X116807529Y-96990728D01*
X116840833Y-96983675D01*
X116861736Y-96968379D01*
X116933539Y-96877256D01*
X116968023Y-96795197D01*
X117009676Y-96709537D01*
X117052946Y-96681637D01*
X117145966Y-96704485D01*
X117276824Y-96761111D01*
X117411617Y-96833630D01*
X117516444Y-96904161D01*
X117555853Y-96946903D01*
X117543938Y-97040154D01*
X117455407Y-97174946D01*
X117296073Y-97343246D01*
X117216041Y-97416194D01*
X117050277Y-97572503D01*
X116954595Y-97694451D01*
X116919131Y-97800760D01*
X116934021Y-97910153D01*
X116942592Y-97935190D01*
X117009740Y-98071161D01*
X117104612Y-98215048D01*
X117121110Y-98236162D01*
X117231152Y-98346905D01*
X117340774Y-98393013D01*
X117463116Y-98371588D01*
X117611318Y-98279735D01*
X117798520Y-98114555D01*
X117835512Y-98078637D01*
X118000397Y-97909031D01*
X118107742Y-97774650D01*
X118174460Y-97650921D01*
X118213449Y-97529557D01*
X118242197Y-97286098D01*
X118197955Y-97045081D01*
X118075805Y-96785877D01*
X118012094Y-96684562D01*
X117816269Y-96447529D01*
X117569971Y-96238697D01*
X117287826Y-96062434D01*
X116984456Y-95923110D01*
X116674486Y-95825092D01*
X116372541Y-95772749D01*
X116093245Y-95770450D01*
X115851223Y-95822564D01*
G36*
X119649137Y-96394769D02*
G01*
X119606098Y-96470485D01*
X119594288Y-96526517D01*
X119593344Y-96585023D01*
X119607810Y-96659361D01*
X119642229Y-96762886D01*
X119701145Y-96908955D01*
X119789102Y-97110925D01*
X119910644Y-97382152D01*
X119933445Y-97432722D01*
X120033586Y-97655863D01*
X120118481Y-97847187D01*
X120181445Y-97991458D01*
X120215794Y-98073439D01*
X120220154Y-98086208D01*
X120176853Y-98084103D01*
X120062300Y-98062284D01*
X119899520Y-98025243D01*
X119866020Y-98017096D01*
X119540117Y-97955515D01*
X119224079Y-97929481D01*
X118940286Y-97938819D01*
X118711118Y-97983354D01*
X118609095Y-98026928D01*
X118445072Y-98138264D01*
X118328382Y-98265748D01*
X118244979Y-98432221D01*
X118180815Y-98660521D01*
X118161063Y-98755382D01*
X118140723Y-98974322D01*
X118148150Y-99254864D01*
X118180258Y-99570977D01*
X118233958Y-99896627D01*
X118306163Y-100205781D01*
X118350563Y-100353091D01*
X118430092Y-100559317D01*
X118534783Y-100783672D01*
X118652084Y-101003568D01*
X118769444Y-101196416D01*
X118874310Y-101339627D01*
X118929703Y-101395299D01*
X118978634Y-101455456D01*
X118994862Y-101545853D01*
X118978148Y-101684867D01*
X118928253Y-101890875D01*
X118923029Y-101910041D01*
X118882371Y-102090560D01*
X118862772Y-102247030D01*
X118863929Y-102363242D01*
X118885534Y-102422988D01*
X118927283Y-102410057D01*
X118932352Y-102404382D01*
X118975534Y-102330127D01*
X119037054Y-102196237D01*
X119104151Y-102030634D01*
X119109069Y-102017671D01*
X119192594Y-101820779D01*
X119260790Y-101702562D01*
X119307371Y-101663579D01*
X119326049Y-101704388D01*
X119310538Y-101825547D01*
X119262043Y-102004091D01*
X119260332Y-102074858D01*
X119304370Y-102088088D01*
X119371460Y-102052142D01*
X119438904Y-101975385D01*
X119463230Y-101929963D01*
X119515196Y-101835211D01*
X119584657Y-101783838D01*
X119704927Y-101756418D01*
X119775783Y-101747687D01*
X120119594Y-101668931D01*
X120455315Y-101508395D01*
X120790661Y-101261960D01*
X120938346Y-101126935D01*
X121211298Y-100829656D01*
X121411275Y-100539429D01*
X121535219Y-100264148D01*
X121580074Y-100011709D01*
X121542785Y-99790007D01*
X121492986Y-99694058D01*
X121376651Y-99564065D01*
X121242304Y-99479947D01*
X121117725Y-99457476D01*
X121088425Y-99464362D01*
X121034050Y-99515018D01*
X120954011Y-99625292D01*
X120865284Y-99771701D01*
X120862104Y-99777419D01*
X120672736Y-100070010D01*
X120450880Y-100332430D01*
X120208571Y-100556722D01*
X119957844Y-100734925D01*
X119710731Y-100859083D01*
X119479268Y-100921236D01*
X119275487Y-100913426D01*
X119191093Y-100882516D01*
X119101724Y-100795018D01*
X119014150Y-100634946D01*
X118934477Y-100422002D01*
X118868807Y-100175887D01*
X118823243Y-99916302D01*
X118803889Y-99662948D01*
X118803616Y-99631767D01*
X118827188Y-99294829D01*
X118899117Y-99037136D01*
X119021216Y-98856721D01*
X119195303Y-98751619D01*
X119423192Y-98719866D01*
X119625626Y-98742071D01*
X119711413Y-98764087D01*
X119758200Y-98805181D01*
X119780355Y-98890367D01*
X119791424Y-99030708D01*
X119806846Y-99290909D01*
X119918094Y-99071546D01*
X119984327Y-98948681D01*
X120034770Y-98869076D01*
X120052056Y-98852182D01*
X120059360Y-98892564D01*
X120050215Y-98993619D01*
X120043527Y-99036909D01*
X120035851Y-99170022D01*
X120065985Y-99219957D01*
X120125352Y-99184826D01*
X120200689Y-99071546D01*
X120257026Y-98969302D01*
X120291950Y-98910507D01*
X120294630Y-98906945D01*
X120341906Y-98918535D01*
X120450676Y-98965237D01*
X120598070Y-99035583D01*
X120761222Y-99118106D01*
X120917262Y-99201341D01*
X121043324Y-99273820D01*
X121099385Y-99310478D01*
X121239418Y-99385089D01*
X121380250Y-99429575D01*
X121485159Y-99444088D01*
X121529252Y-99417405D01*
X121538887Y-99326731D01*
X121539000Y-99292285D01*
X121504107Y-99088522D01*
X121394097Y-98879048D01*
X121227699Y-98676241D01*
X121020943Y-98419039D01*
X120813923Y-98094635D01*
X120643954Y-97772874D01*
X120576777Y-97630862D01*
X120529605Y-97526021D01*
X120513231Y-97483008D01*
X120550047Y-97503193D01*
X120652216Y-97570768D01*
X120807322Y-97677225D01*
X121002950Y-97814057D01*
X121196832Y-97951462D01*
X121492862Y-98159619D01*
X121723608Y-98314535D01*
X121899132Y-98421764D01*
X122029491Y-98486861D01*
X122124746Y-98515380D01*
X122194956Y-98512876D01*
X122206847Y-98509153D01*
X122267233Y-98443910D01*
X122273346Y-98326853D01*
X122231973Y-98178270D01*
X122149902Y-98018444D01*
X122033920Y-97867663D01*
X121972229Y-97807954D01*
X121882727Y-97737268D01*
X121728624Y-97623371D01*
X121524834Y-97476708D01*
X121286274Y-97307726D01*
X121027857Y-97126869D01*
X120764499Y-96944584D01*
X120511117Y-96771315D01*
X120282624Y-96617509D01*
X120113661Y-96506346D01*
X119911160Y-96397264D01*
X119754606Y-96359951D01*
X119649137Y-96394769D01*
G37*
X119649137Y-96394769D02*
X119606098Y-96470485D01*
X119594288Y-96526517D01*
X119593344Y-96585023D01*
X119607810Y-96659361D01*
X119642229Y-96762886D01*
X119701145Y-96908955D01*
X119789102Y-97110925D01*
X119910644Y-97382152D01*
X119933445Y-97432722D01*
X120033586Y-97655863D01*
X120118481Y-97847187D01*
X120181445Y-97991458D01*
X120215794Y-98073439D01*
X120220154Y-98086208D01*
X120176853Y-98084103D01*
X120062300Y-98062284D01*
X119899520Y-98025243D01*
X119866020Y-98017096D01*
X119540117Y-97955515D01*
X119224079Y-97929481D01*
X118940286Y-97938819D01*
X118711118Y-97983354D01*
X118609095Y-98026928D01*
X118445072Y-98138264D01*
X118328382Y-98265748D01*
X118244979Y-98432221D01*
X118180815Y-98660521D01*
X118161063Y-98755382D01*
X118140723Y-98974322D01*
X118148150Y-99254864D01*
X118180258Y-99570977D01*
X118233958Y-99896627D01*
X118306163Y-100205781D01*
X118350563Y-100353091D01*
X118430092Y-100559317D01*
X118534783Y-100783672D01*
X118652084Y-101003568D01*
X118769444Y-101196416D01*
X118874310Y-101339627D01*
X118929703Y-101395299D01*
X118978634Y-101455456D01*
X118994862Y-101545853D01*
X118978148Y-101684867D01*
X118928253Y-101890875D01*
X118923029Y-101910041D01*
X118882371Y-102090560D01*
X118862772Y-102247030D01*
X118863929Y-102363242D01*
X118885534Y-102422988D01*
X118927283Y-102410057D01*
X118932352Y-102404382D01*
X118975534Y-102330127D01*
X119037054Y-102196237D01*
X119104151Y-102030634D01*
X119109069Y-102017671D01*
X119192594Y-101820779D01*
X119260790Y-101702562D01*
X119307371Y-101663579D01*
X119326049Y-101704388D01*
X119310538Y-101825547D01*
X119262043Y-102004091D01*
X119260332Y-102074858D01*
X119304370Y-102088088D01*
X119371460Y-102052142D01*
X119438904Y-101975385D01*
X119463230Y-101929963D01*
X119515196Y-101835211D01*
X119584657Y-101783838D01*
X119704927Y-101756418D01*
X119775783Y-101747687D01*
X120119594Y-101668931D01*
X120455315Y-101508395D01*
X120790661Y-101261960D01*
X120938346Y-101126935D01*
X121211298Y-100829656D01*
X121411275Y-100539429D01*
X121535219Y-100264148D01*
X121580074Y-100011709D01*
X121542785Y-99790007D01*
X121492986Y-99694058D01*
X121376651Y-99564065D01*
X121242304Y-99479947D01*
X121117725Y-99457476D01*
X121088425Y-99464362D01*
X121034050Y-99515018D01*
X120954011Y-99625292D01*
X120865284Y-99771701D01*
X120862104Y-99777419D01*
X120672736Y-100070010D01*
X120450880Y-100332430D01*
X120208571Y-100556722D01*
X119957844Y-100734925D01*
X119710731Y-100859083D01*
X119479268Y-100921236D01*
X119275487Y-100913426D01*
X119191093Y-100882516D01*
X119101724Y-100795018D01*
X119014150Y-100634946D01*
X118934477Y-100422002D01*
X118868807Y-100175887D01*
X118823243Y-99916302D01*
X118803889Y-99662948D01*
X118803616Y-99631767D01*
X118827188Y-99294829D01*
X118899117Y-99037136D01*
X119021216Y-98856721D01*
X119195303Y-98751619D01*
X119423192Y-98719866D01*
X119625626Y-98742071D01*
X119711413Y-98764087D01*
X119758200Y-98805181D01*
X119780355Y-98890367D01*
X119791424Y-99030708D01*
X119806846Y-99290909D01*
X119918094Y-99071546D01*
X119984327Y-98948681D01*
X120034770Y-98869076D01*
X120052056Y-98852182D01*
X120059360Y-98892564D01*
X120050215Y-98993619D01*
X120043527Y-99036909D01*
X120035851Y-99170022D01*
X120065985Y-99219957D01*
X120125352Y-99184826D01*
X120200689Y-99071546D01*
X120257026Y-98969302D01*
X120291950Y-98910507D01*
X120294630Y-98906945D01*
X120341906Y-98918535D01*
X120450676Y-98965237D01*
X120598070Y-99035583D01*
X120761222Y-99118106D01*
X120917262Y-99201341D01*
X121043324Y-99273820D01*
X121099385Y-99310478D01*
X121239418Y-99385089D01*
X121380250Y-99429575D01*
X121485159Y-99444088D01*
X121529252Y-99417405D01*
X121538887Y-99326731D01*
X121539000Y-99292285D01*
X121504107Y-99088522D01*
X121394097Y-98879048D01*
X121227699Y-98676241D01*
X121020943Y-98419039D01*
X120813923Y-98094635D01*
X120643954Y-97772874D01*
X120576777Y-97630862D01*
X120529605Y-97526021D01*
X120513231Y-97483008D01*
X120550047Y-97503193D01*
X120652216Y-97570768D01*
X120807322Y-97677225D01*
X121002950Y-97814057D01*
X121196832Y-97951462D01*
X121492862Y-98159619D01*
X121723608Y-98314535D01*
X121899132Y-98421764D01*
X122029491Y-98486861D01*
X122124746Y-98515380D01*
X122194956Y-98512876D01*
X122206847Y-98509153D01*
X122267233Y-98443910D01*
X122273346Y-98326853D01*
X122231973Y-98178270D01*
X122149902Y-98018444D01*
X122033920Y-97867663D01*
X121972229Y-97807954D01*
X121882727Y-97737268D01*
X121728624Y-97623371D01*
X121524834Y-97476708D01*
X121286274Y-97307726D01*
X121027857Y-97126869D01*
X120764499Y-96944584D01*
X120511117Y-96771315D01*
X120282624Y-96617509D01*
X120113661Y-96506346D01*
X119911160Y-96397264D01*
X119754606Y-96359951D01*
X119649137Y-96394769D01*
G36*
X126795414Y-100184472D02*
G01*
X126648844Y-100268891D01*
X126553553Y-100389340D01*
X126453441Y-100519803D01*
X126324191Y-100639245D01*
X126311344Y-100648631D01*
X126165110Y-100772119D01*
X125992285Y-100947639D01*
X125816995Y-101148284D01*
X125663367Y-101347143D01*
X125597817Y-101444458D01*
X125518791Y-101609573D01*
X125472845Y-101812987D01*
X125457416Y-101968573D01*
X125449894Y-102164208D01*
X125463741Y-102308655D01*
X125505799Y-102442063D01*
X125557047Y-102553124D01*
X125665365Y-102734789D01*
X125804854Y-102921762D01*
X125880621Y-103006697D01*
X125988404Y-103130074D01*
X126061380Y-103238425D01*
X126081693Y-103295334D01*
X126116767Y-103362448D01*
X126190892Y-103375263D01*
X126252654Y-103331818D01*
X126320064Y-103287318D01*
X126335116Y-103285637D01*
X126356648Y-103327683D01*
X126361592Y-103440385D01*
X126351191Y-103603584D01*
X126326689Y-103797126D01*
X126291658Y-103989909D01*
X126291577Y-104089195D01*
X126337065Y-104115032D01*
X126411911Y-104059182D01*
X126450135Y-103988795D01*
X126505161Y-103857023D01*
X126565770Y-103690962D01*
X126572084Y-103672395D01*
X126683153Y-103343334D01*
X126973739Y-103318422D01*
X127322533Y-103246955D01*
X127675019Y-103098370D01*
X128007449Y-102884193D01*
X128186720Y-102729653D01*
X128336000Y-102577192D01*
X128431840Y-102449372D01*
X128495804Y-102311653D01*
X128540855Y-102162373D01*
X128607172Y-101846763D01*
X128618901Y-101581360D01*
X128574101Y-101338567D01*
X128562397Y-101310484D01*
X127986420Y-101310484D01*
X127941446Y-101548072D01*
X127817159Y-101792981D01*
X127627735Y-102025735D01*
X127387354Y-102226863D01*
X127263479Y-102303449D01*
X127052097Y-102397828D01*
X126815342Y-102467536D01*
X126577361Y-102509330D01*
X126362299Y-102519964D01*
X126194302Y-102496196D01*
X126117686Y-102457393D01*
X126104302Y-102388695D01*
X126139572Y-102266270D01*
X126214628Y-102111042D01*
X126320598Y-101943935D01*
X126355216Y-101897063D01*
X126444728Y-101791424D01*
X126566741Y-101661874D01*
X126702959Y-101526018D01*
X126835084Y-101401462D01*
X126944819Y-101305813D01*
X127013868Y-101256676D01*
X127023907Y-101253637D01*
X127030172Y-101295287D01*
X127027379Y-101402985D01*
X127019432Y-101513555D01*
X127016081Y-101675382D01*
X127039403Y-101750911D01*
X127085402Y-101741542D01*
X127150083Y-101648670D01*
X127229452Y-101473693D01*
X127244516Y-101434833D01*
X127307295Y-101279127D01*
X127362827Y-101158118D01*
X127398490Y-101098825D01*
X127460174Y-101097901D01*
X127560923Y-101145153D01*
X127587219Y-101162491D01*
X127733621Y-101235599D01*
X127860649Y-101235605D01*
X127952769Y-101225379D01*
X127984265Y-101268975D01*
X127986420Y-101310484D01*
X128562397Y-101310484D01*
X128470834Y-101090788D01*
X128464728Y-101078975D01*
X128278972Y-100788451D01*
X128053858Y-100543299D01*
X127806648Y-100359467D01*
X127576970Y-100258896D01*
X127249152Y-100180790D01*
X126992075Y-100155543D01*
X126795414Y-100184472D01*
G37*
X126795414Y-100184472D02*
X126648844Y-100268891D01*
X126553553Y-100389340D01*
X126453441Y-100519803D01*
X126324191Y-100639245D01*
X126311344Y-100648631D01*
X126165110Y-100772119D01*
X125992285Y-100947639D01*
X125816995Y-101148284D01*
X125663367Y-101347143D01*
X125597817Y-101444458D01*
X125518791Y-101609573D01*
X125472845Y-101812987D01*
X125457416Y-101968573D01*
X125449894Y-102164208D01*
X125463741Y-102308655D01*
X125505799Y-102442063D01*
X125557047Y-102553124D01*
X125665365Y-102734789D01*
X125804854Y-102921762D01*
X125880621Y-103006697D01*
X125988404Y-103130074D01*
X126061380Y-103238425D01*
X126081693Y-103295334D01*
X126116767Y-103362448D01*
X126190892Y-103375263D01*
X126252654Y-103331818D01*
X126320064Y-103287318D01*
X126335116Y-103285637D01*
X126356648Y-103327683D01*
X126361592Y-103440385D01*
X126351191Y-103603584D01*
X126326689Y-103797126D01*
X126291658Y-103989909D01*
X126291577Y-104089195D01*
X126337065Y-104115032D01*
X126411911Y-104059182D01*
X126450135Y-103988795D01*
X126505161Y-103857023D01*
X126565770Y-103690962D01*
X126572084Y-103672395D01*
X126683153Y-103343334D01*
X126973739Y-103318422D01*
X127322533Y-103246955D01*
X127675019Y-103098370D01*
X128007449Y-102884193D01*
X128186720Y-102729653D01*
X128336000Y-102577192D01*
X128431840Y-102449372D01*
X128495804Y-102311653D01*
X128540855Y-102162373D01*
X128607172Y-101846763D01*
X128618901Y-101581360D01*
X128574101Y-101338567D01*
X128562397Y-101310484D01*
X127986420Y-101310484D01*
X127941446Y-101548072D01*
X127817159Y-101792981D01*
X127627735Y-102025735D01*
X127387354Y-102226863D01*
X127263479Y-102303449D01*
X127052097Y-102397828D01*
X126815342Y-102467536D01*
X126577361Y-102509330D01*
X126362299Y-102519964D01*
X126194302Y-102496196D01*
X126117686Y-102457393D01*
X126104302Y-102388695D01*
X126139572Y-102266270D01*
X126214628Y-102111042D01*
X126320598Y-101943935D01*
X126355216Y-101897063D01*
X126444728Y-101791424D01*
X126566741Y-101661874D01*
X126702959Y-101526018D01*
X126835084Y-101401462D01*
X126944819Y-101305813D01*
X127013868Y-101256676D01*
X127023907Y-101253637D01*
X127030172Y-101295287D01*
X127027379Y-101402985D01*
X127019432Y-101513555D01*
X127016081Y-101675382D01*
X127039403Y-101750911D01*
X127085402Y-101741542D01*
X127150083Y-101648670D01*
X127229452Y-101473693D01*
X127244516Y-101434833D01*
X127307295Y-101279127D01*
X127362827Y-101158118D01*
X127398490Y-101098825D01*
X127460174Y-101097901D01*
X127560923Y-101145153D01*
X127587219Y-101162491D01*
X127733621Y-101235599D01*
X127860649Y-101235605D01*
X127952769Y-101225379D01*
X127984265Y-101268975D01*
X127986420Y-101310484D01*
X128562397Y-101310484D01*
X128470834Y-101090788D01*
X128464728Y-101078975D01*
X128278972Y-100788451D01*
X128053858Y-100543299D01*
X127806648Y-100359467D01*
X127576970Y-100258896D01*
X127249152Y-100180790D01*
X126992075Y-100155543D01*
X126795414Y-100184472D01*
G36*
X125804908Y-98591914D02*
G01*
X125741602Y-98655428D01*
X125676753Y-98754801D01*
X125580789Y-98938725D01*
X125454907Y-99204588D01*
X125300307Y-99549774D01*
X125118187Y-99971671D01*
X124909744Y-100467665D01*
X124900781Y-100489236D01*
X124807696Y-100708854D01*
X124730946Y-100881140D01*
X124675451Y-100995805D01*
X124646132Y-101042556D01*
X124644620Y-101025147D01*
X124664144Y-100695425D01*
X124605883Y-100405812D01*
X124026438Y-100405812D01*
X123975965Y-100642281D01*
X123847417Y-100885468D01*
X123655996Y-101114635D01*
X123416903Y-101309049D01*
X123322085Y-101366539D01*
X123166271Y-101437228D01*
X122972350Y-101503565D01*
X122769663Y-101558023D01*
X122587552Y-101593074D01*
X122455359Y-101601190D01*
X122426448Y-101596314D01*
X122325362Y-101577392D01*
X122304332Y-101576202D01*
X122191925Y-101545421D01*
X122155322Y-101457246D01*
X122194348Y-101312343D01*
X122308827Y-101111375D01*
X122493715Y-100861091D01*
X122638278Y-100691983D01*
X122786096Y-100538978D01*
X122920135Y-100417900D01*
X123023358Y-100344568D01*
X123065550Y-100330000D01*
X123074648Y-100371442D01*
X123079510Y-100476864D01*
X123079740Y-100549364D01*
X123087879Y-100681268D01*
X123110910Y-100768151D01*
X123126500Y-100785113D01*
X123166283Y-100753696D01*
X123223795Y-100655583D01*
X123286649Y-100511944D01*
X123287185Y-100510551D01*
X123380434Y-100289997D01*
X123456046Y-100159215D01*
X123513769Y-100118584D01*
X123537381Y-100134218D01*
X123643168Y-100226975D01*
X123782777Y-100289671D01*
X123910114Y-100302101D01*
X123917019Y-100300652D01*
X123997381Y-100293555D01*
X124025184Y-100341663D01*
X124026438Y-100405812D01*
X124605883Y-100405812D01*
X124596293Y-100358144D01*
X124447589Y-100031239D01*
X124224554Y-99732646D01*
X124145499Y-99652576D01*
X123955697Y-99490534D01*
X123770629Y-99381320D01*
X123551940Y-99305801D01*
X123367516Y-99264530D01*
X123068322Y-99228706D01*
X122842830Y-99252706D01*
X122690159Y-99336698D01*
X122639435Y-99403812D01*
X122561539Y-99508409D01*
X122439118Y-99635143D01*
X122350377Y-99713468D01*
X122159823Y-99887160D01*
X121961753Y-100096594D01*
X121781084Y-100313177D01*
X121642736Y-100508318D01*
X121611830Y-100560909D01*
X121559415Y-100701223D01*
X121518511Y-100894446D01*
X121500627Y-101052215D01*
X121493550Y-101248433D01*
X121509266Y-101395210D01*
X121554856Y-101534261D01*
X121598592Y-101629487D01*
X121707922Y-101810888D01*
X121849703Y-101992500D01*
X121922166Y-102067931D01*
X122033031Y-102188144D01*
X122106761Y-102298712D01*
X122125154Y-102356567D01*
X122156101Y-102437285D01*
X122231798Y-102448025D01*
X122309956Y-102399715D01*
X122369709Y-102363923D01*
X122402031Y-102399673D01*
X122407866Y-102512382D01*
X122388158Y-102707467D01*
X122377098Y-102784928D01*
X122354292Y-102961892D01*
X122343148Y-103101573D01*
X122345284Y-103180698D01*
X122348993Y-103189387D01*
X122397486Y-103182107D01*
X122463134Y-103096319D01*
X122539384Y-102943116D01*
X122619681Y-102733592D01*
X122621586Y-102728014D01*
X122726569Y-102419832D01*
X123024227Y-102391107D01*
X123387564Y-102312872D01*
X123750427Y-102153386D01*
X124093696Y-101922063D01*
X124243207Y-101790840D01*
X124368207Y-101678095D01*
X124458771Y-101608967D01*
X124501444Y-101593121D01*
X124501720Y-101605097D01*
X124477918Y-101687557D01*
X124437902Y-101833900D01*
X124388690Y-102018293D01*
X124366150Y-102103995D01*
X124314722Y-102313304D01*
X124289265Y-102461817D01*
X124287532Y-102577162D01*
X124307273Y-102686971D01*
X124316060Y-102719489D01*
X124348214Y-102930068D01*
X124347488Y-103205637D01*
X124340823Y-103296422D01*
X124327876Y-103496594D01*
X124332398Y-103610174D01*
X124354621Y-103641484D01*
X124359369Y-103639426D01*
X124372582Y-103665517D01*
X124361429Y-103762432D01*
X124328361Y-103912178D01*
X124315510Y-103961123D01*
X124271307Y-104146367D01*
X124242403Y-104311415D01*
X124234236Y-104424264D01*
X124235080Y-104434261D01*
X124247434Y-104497649D01*
X124268478Y-104495859D01*
X124308459Y-104420517D01*
X124340867Y-104347818D01*
X124394658Y-104214487D01*
X124466294Y-104022819D01*
X124544776Y-103802727D01*
X124593544Y-103660684D01*
X124681174Y-103417622D01*
X124759950Y-103242251D01*
X124841696Y-103111991D01*
X124936313Y-103006121D01*
X125045705Y-102889202D01*
X125098400Y-102789302D01*
X125113006Y-102664600D01*
X125112617Y-102609837D01*
X125123453Y-102419371D01*
X125164974Y-102189221D01*
X125239663Y-101911518D01*
X125350005Y-101578390D01*
X125411098Y-101415273D01*
X124567462Y-101415273D01*
X124543039Y-101438364D01*
X124518616Y-101415273D01*
X124543039Y-101392182D01*
X124567462Y-101415273D01*
X125411098Y-101415273D01*
X125471638Y-101253637D01*
X124616308Y-101253637D01*
X124598436Y-101291649D01*
X124583744Y-101284424D01*
X124577898Y-101229617D01*
X124583744Y-101222849D01*
X124612783Y-101229188D01*
X124616308Y-101253637D01*
X125471638Y-101253637D01*
X125498482Y-101181968D01*
X125687579Y-100714381D01*
X125781084Y-100491637D01*
X125936891Y-100129582D01*
X126062431Y-99850879D01*
X126159584Y-99651657D01*
X126230232Y-99528050D01*
X126274475Y-99477157D01*
X126306359Y-99415973D01*
X126323899Y-99299277D01*
X126325120Y-99253547D01*
X126288958Y-99048441D01*
X126194615Y-98848772D01*
X126060858Y-98687702D01*
X125968092Y-98622654D01*
X125868321Y-98579342D01*
X125804908Y-98591914D01*
G37*
X125804908Y-98591914D02*
X125741602Y-98655428D01*
X125676753Y-98754801D01*
X125580789Y-98938725D01*
X125454907Y-99204588D01*
X125300307Y-99549774D01*
X125118187Y-99971671D01*
X124909744Y-100467665D01*
X124900781Y-100489236D01*
X124807696Y-100708854D01*
X124730946Y-100881140D01*
X124675451Y-100995805D01*
X124646132Y-101042556D01*
X124644620Y-101025147D01*
X124664144Y-100695425D01*
X124605883Y-100405812D01*
X124026438Y-100405812D01*
X123975965Y-100642281D01*
X123847417Y-100885468D01*
X123655996Y-101114635D01*
X123416903Y-101309049D01*
X123322085Y-101366539D01*
X123166271Y-101437228D01*
X122972350Y-101503565D01*
X122769663Y-101558023D01*
X122587552Y-101593074D01*
X122455359Y-101601190D01*
X122426448Y-101596314D01*
X122325362Y-101577392D01*
X122304332Y-101576202D01*
X122191925Y-101545421D01*
X122155322Y-101457246D01*
X122194348Y-101312343D01*
X122308827Y-101111375D01*
X122493715Y-100861091D01*
X122638278Y-100691983D01*
X122786096Y-100538978D01*
X122920135Y-100417900D01*
X123023358Y-100344568D01*
X123065550Y-100330000D01*
X123074648Y-100371442D01*
X123079510Y-100476864D01*
X123079740Y-100549364D01*
X123087879Y-100681268D01*
X123110910Y-100768151D01*
X123126500Y-100785113D01*
X123166283Y-100753696D01*
X123223795Y-100655583D01*
X123286649Y-100511944D01*
X123287185Y-100510551D01*
X123380434Y-100289997D01*
X123456046Y-100159215D01*
X123513769Y-100118584D01*
X123537381Y-100134218D01*
X123643168Y-100226975D01*
X123782777Y-100289671D01*
X123910114Y-100302101D01*
X123917019Y-100300652D01*
X123997381Y-100293555D01*
X124025184Y-100341663D01*
X124026438Y-100405812D01*
X124605883Y-100405812D01*
X124596293Y-100358144D01*
X124447589Y-100031239D01*
X124224554Y-99732646D01*
X124145499Y-99652576D01*
X123955697Y-99490534D01*
X123770629Y-99381320D01*
X123551940Y-99305801D01*
X123367516Y-99264530D01*
X123068322Y-99228706D01*
X122842830Y-99252706D01*
X122690159Y-99336698D01*
X122639435Y-99403812D01*
X122561539Y-99508409D01*
X122439118Y-99635143D01*
X122350377Y-99713468D01*
X122159823Y-99887160D01*
X121961753Y-100096594D01*
X121781084Y-100313177D01*
X121642736Y-100508318D01*
X121611830Y-100560909D01*
X121559415Y-100701223D01*
X121518511Y-100894446D01*
X121500627Y-101052215D01*
X121493550Y-101248433D01*
X121509266Y-101395210D01*
X121554856Y-101534261D01*
X121598592Y-101629487D01*
X121707922Y-101810888D01*
X121849703Y-101992500D01*
X121922166Y-102067931D01*
X122033031Y-102188144D01*
X122106761Y-102298712D01*
X122125154Y-102356567D01*
X122156101Y-102437285D01*
X122231798Y-102448025D01*
X122309956Y-102399715D01*
X122369709Y-102363923D01*
X122402031Y-102399673D01*
X122407866Y-102512382D01*
X122388158Y-102707467D01*
X122377098Y-102784928D01*
X122354292Y-102961892D01*
X122343148Y-103101573D01*
X122345284Y-103180698D01*
X122348993Y-103189387D01*
X122397486Y-103182107D01*
X122463134Y-103096319D01*
X122539384Y-102943116D01*
X122619681Y-102733592D01*
X122621586Y-102728014D01*
X122726569Y-102419832D01*
X123024227Y-102391107D01*
X123387564Y-102312872D01*
X123750427Y-102153386D01*
X124093696Y-101922063D01*
X124243207Y-101790840D01*
X124368207Y-101678095D01*
X124458771Y-101608967D01*
X124501444Y-101593121D01*
X124501720Y-101605097D01*
X124477918Y-101687557D01*
X124437902Y-101833900D01*
X124388690Y-102018293D01*
X124366150Y-102103995D01*
X124314722Y-102313304D01*
X124289265Y-102461817D01*
X124287532Y-102577162D01*
X124307273Y-102686971D01*
X124316060Y-102719489D01*
X124348214Y-102930068D01*
X124347488Y-103205637D01*
X124340823Y-103296422D01*
X124327876Y-103496594D01*
X124332398Y-103610174D01*
X124354621Y-103641484D01*
X124359369Y-103639426D01*
X124372582Y-103665517D01*
X124361429Y-103762432D01*
X124328361Y-103912178D01*
X124315510Y-103961123D01*
X124271307Y-104146367D01*
X124242403Y-104311415D01*
X124234236Y-104424264D01*
X124235080Y-104434261D01*
X124247434Y-104497649D01*
X124268478Y-104495859D01*
X124308459Y-104420517D01*
X124340867Y-104347818D01*
X124394658Y-104214487D01*
X124466294Y-104022819D01*
X124544776Y-103802727D01*
X124593544Y-103660684D01*
X124681174Y-103417622D01*
X124759950Y-103242251D01*
X124841696Y-103111991D01*
X124936313Y-103006121D01*
X125045705Y-102889202D01*
X125098400Y-102789302D01*
X125113006Y-102664600D01*
X125112617Y-102609837D01*
X125123453Y-102419371D01*
X125164974Y-102189221D01*
X125239663Y-101911518D01*
X125350005Y-101578390D01*
X125411098Y-101415273D01*
X124567462Y-101415273D01*
X124543039Y-101438364D01*
X124518616Y-101415273D01*
X124543039Y-101392182D01*
X124567462Y-101415273D01*
X125411098Y-101415273D01*
X125471638Y-101253637D01*
X124616308Y-101253637D01*
X124598436Y-101291649D01*
X124583744Y-101284424D01*
X124577898Y-101229617D01*
X124583744Y-101222849D01*
X124612783Y-101229188D01*
X124616308Y-101253637D01*
X125471638Y-101253637D01*
X125498482Y-101181968D01*
X125687579Y-100714381D01*
X125781084Y-100491637D01*
X125936891Y-100129582D01*
X126062431Y-99850879D01*
X126159584Y-99651657D01*
X126230232Y-99528050D01*
X126274475Y-99477157D01*
X126306359Y-99415973D01*
X126323899Y-99299277D01*
X126325120Y-99253547D01*
X126288958Y-99048441D01*
X126194615Y-98848772D01*
X126060858Y-98687702D01*
X125968092Y-98622654D01*
X125868321Y-98579342D01*
X125804908Y-98591914D01*
G36*
X130987639Y-99118435D02*
G01*
X130937267Y-99187209D01*
X130872555Y-99326718D01*
X130799660Y-99517388D01*
X130724734Y-99739646D01*
X130653933Y-99973917D01*
X130593412Y-100200629D01*
X130549325Y-100400208D01*
X130527827Y-100553081D01*
X130526693Y-100584382D01*
X130552219Y-100721791D01*
X130639579Y-100859573D01*
X130698356Y-100925017D01*
X130870019Y-101104663D01*
X130686144Y-101042632D01*
X130502815Y-100991021D01*
X130383602Y-100986962D01*
X130308072Y-101031733D01*
X130283059Y-101067855D01*
X130258447Y-101166953D01*
X130293174Y-101298207D01*
X130303628Y-101322663D01*
X130332905Y-101398046D01*
X130345146Y-101470607D01*
X130337598Y-101560287D01*
X130307504Y-101687025D01*
X130252110Y-101870764D01*
X130209360Y-102004899D01*
X130116786Y-102281310D01*
X130006744Y-102591996D01*
X129896739Y-102888142D01*
X129845150Y-103020716D01*
X129737890Y-103310954D01*
X129675211Y-103535981D01*
X129654378Y-103711394D01*
X129672655Y-103852791D01*
X129690362Y-103903455D01*
X129695632Y-103980803D01*
X129683455Y-104127642D01*
X129656252Y-104323031D01*
X129616442Y-104546027D01*
X129615658Y-104550001D01*
X129571703Y-104787680D01*
X129535645Y-105012011D01*
X129511407Y-105196575D01*
X129502922Y-105308666D01*
X129500924Y-105507514D01*
X129391020Y-105394065D01*
X129257418Y-105294022D01*
X129118222Y-105249083D01*
X129001252Y-105265676D01*
X128963062Y-105295176D01*
X128897070Y-105348690D01*
X128778732Y-105427996D01*
X128634419Y-105517293D01*
X128490501Y-105600776D01*
X128373349Y-105662642D01*
X128309333Y-105687089D01*
X128309084Y-105687091D01*
X128287721Y-105649456D01*
X128313788Y-105542554D01*
X128382852Y-105375391D01*
X128490481Y-105156973D01*
X128632241Y-104896307D01*
X128803698Y-104602397D01*
X128996942Y-104289728D01*
X129316085Y-103755788D01*
X129563175Y-103270715D01*
X129741833Y-102824969D01*
X129855683Y-102409008D01*
X129908347Y-102013290D01*
X129913001Y-101877091D01*
X129909576Y-101672135D01*
X129889502Y-101520909D01*
X129844271Y-101385098D01*
X129770693Y-101236282D01*
X129677694Y-101083528D01*
X129581662Y-100958396D01*
X129514006Y-100896001D01*
X129423992Y-100853783D01*
X129357363Y-100860957D01*
X129309865Y-100926612D01*
X129277246Y-101059839D01*
X129255253Y-101269726D01*
X129243585Y-101473959D01*
X129226204Y-101748494D01*
X129199770Y-101960415D01*
X129159001Y-102139404D01*
X129098613Y-102315144D01*
X129089958Y-102337022D01*
X128975865Y-102592331D01*
X128817791Y-102902835D01*
X128627153Y-103247650D01*
X128415367Y-103605891D01*
X128263138Y-103849571D01*
X128035683Y-104230192D01*
X127847710Y-104596029D01*
X127703678Y-104935368D01*
X127608045Y-105236489D01*
X127565270Y-105487677D01*
X127574894Y-105658110D01*
X127632955Y-105829838D01*
X127725265Y-106022388D01*
X127829465Y-106192115D01*
X127882480Y-106258558D01*
X127942254Y-106387095D01*
X127962270Y-106599739D01*
X127962270Y-106600464D01*
X127973795Y-106766841D01*
X128003892Y-106855131D01*
X128045843Y-106861395D01*
X128092930Y-106781698D01*
X128120314Y-106693098D01*
X128146850Y-106593197D01*
X128159162Y-106565649D01*
X128158937Y-106616649D01*
X128147866Y-106752394D01*
X128145065Y-106783909D01*
X128134487Y-106943989D01*
X128141234Y-107032180D01*
X128168817Y-107068029D01*
X128196918Y-107072546D01*
X128263070Y-107027777D01*
X128338733Y-106897366D01*
X128379717Y-106799776D01*
X128442590Y-106648351D01*
X128499225Y-106560597D01*
X128573049Y-106512183D01*
X128687493Y-106478778D01*
X128689217Y-106478367D01*
X128839555Y-106426289D01*
X129021453Y-106340159D01*
X129208989Y-106235203D01*
X129376240Y-106126647D01*
X129497285Y-106029715D01*
X129539619Y-105978873D01*
X129570250Y-105886573D01*
X129599091Y-105741319D01*
X129612469Y-105640909D01*
X129641481Y-105470132D01*
X129692776Y-105255594D01*
X129755874Y-105040551D01*
X129763510Y-105017455D01*
X129829282Y-104816637D01*
X129889931Y-104623429D01*
X129933895Y-104474799D01*
X129938880Y-104456618D01*
X129993756Y-104317420D01*
X130071500Y-104248846D01*
X130104298Y-104238199D01*
X130176396Y-104196102D01*
X130255907Y-104098626D01*
X130345737Y-103939620D01*
X130448793Y-103712935D01*
X130567980Y-103412418D01*
X130706204Y-103031920D01*
X130794369Y-102777637D01*
X130884303Y-102518667D01*
X130966243Y-102289993D01*
X131034748Y-102106228D01*
X131084376Y-101981983D01*
X131109118Y-101932356D01*
X131167935Y-101933776D01*
X131281192Y-101973040D01*
X131422079Y-102036705D01*
X131563787Y-102111328D01*
X131679506Y-102183469D01*
X131742427Y-102239685D01*
X131747034Y-102252196D01*
X131728203Y-102358266D01*
X131675907Y-102523830D01*
X131599666Y-102725442D01*
X131508998Y-102939652D01*
X131413423Y-103143015D01*
X131322461Y-103312081D01*
X131305283Y-103340318D01*
X131173770Y-103542881D01*
X131072293Y-103676118D01*
X130987221Y-103753326D01*
X130904926Y-103787804D01*
X130840704Y-103793637D01*
X130759111Y-103815679D01*
X130723132Y-103889116D01*
X130731195Y-104024912D01*
X130778937Y-104224215D01*
X130810613Y-104420774D01*
X130796613Y-104650111D01*
X130786733Y-104713245D01*
X130762253Y-104869017D01*
X130758218Y-104952825D01*
X130777532Y-104983567D01*
X130823098Y-104980141D01*
X130827566Y-104979055D01*
X130869019Y-104970034D01*
X130895932Y-104975860D01*
X130908121Y-105009772D01*
X130905406Y-105085008D01*
X130887604Y-105214808D01*
X130854531Y-105412411D01*
X130818769Y-105617818D01*
X130781392Y-105835397D01*
X130750734Y-106020157D01*
X130729925Y-106152793D01*
X130722092Y-106213998D01*
X130722089Y-106214334D01*
X130730388Y-106251061D01*
X130755973Y-106210125D01*
X130799816Y-106088708D01*
X130862891Y-105883993D01*
X130946168Y-105593163D01*
X130986212Y-105448974D01*
X131062703Y-105173227D01*
X131120965Y-104972965D01*
X131167405Y-104834294D01*
X131208434Y-104743320D01*
X131250460Y-104686151D01*
X131299892Y-104648894D01*
X131363138Y-104617654D01*
X131371423Y-104613893D01*
X131567049Y-104481770D01*
X131764613Y-104265924D01*
X131958725Y-103974735D01*
X132143990Y-103616584D01*
X132315016Y-103199851D01*
X132356377Y-103083255D01*
X132431655Y-102872138D01*
X132488488Y-102735983D01*
X132534716Y-102660796D01*
X132578180Y-102632580D01*
X132608722Y-102632809D01*
X132717015Y-102645406D01*
X132866037Y-102654834D01*
X132894663Y-102655900D01*
X133027802Y-102650273D01*
X133091309Y-102615615D01*
X133106585Y-102577711D01*
X133106595Y-102439321D01*
X133044907Y-102284601D01*
X132913950Y-102096377D01*
X132871558Y-102044531D01*
X132675924Y-101810536D01*
X132675924Y-101368966D01*
X132663918Y-101067799D01*
X132623605Y-100835701D01*
X132548545Y-100651721D01*
X132432296Y-100494910D01*
X132395540Y-100457000D01*
X132295374Y-100386800D01*
X132175946Y-100339716D01*
X132067320Y-100322601D01*
X131999563Y-100342310D01*
X131990433Y-100364637D01*
X131981143Y-100494530D01*
X131964298Y-100674949D01*
X131942709Y-100880909D01*
X131919188Y-101087422D01*
X131896548Y-101269502D01*
X131877601Y-101402164D01*
X131867991Y-101452439D01*
X131836297Y-101571830D01*
X131479021Y-101404688D01*
X131304081Y-101320873D01*
X131203171Y-101263597D01*
X131161987Y-101219945D01*
X131166227Y-101177004D01*
X131187716Y-101141682D01*
X131231177Y-101052754D01*
X131287259Y-100902918D01*
X131345397Y-100720989D01*
X131358310Y-100676364D01*
X131423100Y-100452552D01*
X131493619Y-100216604D01*
X131554925Y-100018490D01*
X131556544Y-100013408D01*
X131622724Y-99781758D01*
X131646973Y-99611796D01*
X131626348Y-99480523D01*
X131557909Y-99364938D01*
X131460516Y-99262385D01*
X131284060Y-99130890D01*
X131123847Y-99082154D01*
X130987639Y-99118435D01*
G37*
X130987639Y-99118435D02*
X130937267Y-99187209D01*
X130872555Y-99326718D01*
X130799660Y-99517388D01*
X130724734Y-99739646D01*
X130653933Y-99973917D01*
X130593412Y-100200629D01*
X130549325Y-100400208D01*
X130527827Y-100553081D01*
X130526693Y-100584382D01*
X130552219Y-100721791D01*
X130639579Y-100859573D01*
X130698356Y-100925017D01*
X130870019Y-101104663D01*
X130686144Y-101042632D01*
X130502815Y-100991021D01*
X130383602Y-100986962D01*
X130308072Y-101031733D01*
X130283059Y-101067855D01*
X130258447Y-101166953D01*
X130293174Y-101298207D01*
X130303628Y-101322663D01*
X130332905Y-101398046D01*
X130345146Y-101470607D01*
X130337598Y-101560287D01*
X130307504Y-101687025D01*
X130252110Y-101870764D01*
X130209360Y-102004899D01*
X130116786Y-102281310D01*
X130006744Y-102591996D01*
X129896739Y-102888142D01*
X129845150Y-103020716D01*
X129737890Y-103310954D01*
X129675211Y-103535981D01*
X129654378Y-103711394D01*
X129672655Y-103852791D01*
X129690362Y-103903455D01*
X129695632Y-103980803D01*
X129683455Y-104127642D01*
X129656252Y-104323031D01*
X129616442Y-104546027D01*
X129615658Y-104550001D01*
X129571703Y-104787680D01*
X129535645Y-105012011D01*
X129511407Y-105196575D01*
X129502922Y-105308666D01*
X129500924Y-105507514D01*
X129391020Y-105394065D01*
X129257418Y-105294022D01*
X129118222Y-105249083D01*
X129001252Y-105265676D01*
X128963062Y-105295176D01*
X128897070Y-105348690D01*
X128778732Y-105427996D01*
X128634419Y-105517293D01*
X128490501Y-105600776D01*
X128373349Y-105662642D01*
X128309333Y-105687089D01*
X128309084Y-105687091D01*
X128287721Y-105649456D01*
X128313788Y-105542554D01*
X128382852Y-105375391D01*
X128490481Y-105156973D01*
X128632241Y-104896307D01*
X128803698Y-104602397D01*
X128996942Y-104289728D01*
X129316085Y-103755788D01*
X129563175Y-103270715D01*
X129741833Y-102824969D01*
X129855683Y-102409008D01*
X129908347Y-102013290D01*
X129913001Y-101877091D01*
X129909576Y-101672135D01*
X129889502Y-101520909D01*
X129844271Y-101385098D01*
X129770693Y-101236282D01*
X129677694Y-101083528D01*
X129581662Y-100958396D01*
X129514006Y-100896001D01*
X129423992Y-100853783D01*
X129357363Y-100860957D01*
X129309865Y-100926612D01*
X129277246Y-101059839D01*
X129255253Y-101269726D01*
X129243585Y-101473959D01*
X129226204Y-101748494D01*
X129199770Y-101960415D01*
X129159001Y-102139404D01*
X129098613Y-102315144D01*
X129089958Y-102337022D01*
X128975865Y-102592331D01*
X128817791Y-102902835D01*
X128627153Y-103247650D01*
X128415367Y-103605891D01*
X128263138Y-103849571D01*
X128035683Y-104230192D01*
X127847710Y-104596029D01*
X127703678Y-104935368D01*
X127608045Y-105236489D01*
X127565270Y-105487677D01*
X127574894Y-105658110D01*
X127632955Y-105829838D01*
X127725265Y-106022388D01*
X127829465Y-106192115D01*
X127882480Y-106258558D01*
X127942254Y-106387095D01*
X127962270Y-106599739D01*
X127962270Y-106600464D01*
X127973795Y-106766841D01*
X128003892Y-106855131D01*
X128045843Y-106861395D01*
X128092930Y-106781698D01*
X128120314Y-106693098D01*
X128146850Y-106593197D01*
X128159162Y-106565649D01*
X128158937Y-106616649D01*
X128147866Y-106752394D01*
X128145065Y-106783909D01*
X128134487Y-106943989D01*
X128141234Y-107032180D01*
X128168817Y-107068029D01*
X128196918Y-107072546D01*
X128263070Y-107027777D01*
X128338733Y-106897366D01*
X128379717Y-106799776D01*
X128442590Y-106648351D01*
X128499225Y-106560597D01*
X128573049Y-106512183D01*
X128687493Y-106478778D01*
X128689217Y-106478367D01*
X128839555Y-106426289D01*
X129021453Y-106340159D01*
X129208989Y-106235203D01*
X129376240Y-106126647D01*
X129497285Y-106029715D01*
X129539619Y-105978873D01*
X129570250Y-105886573D01*
X129599091Y-105741319D01*
X129612469Y-105640909D01*
X129641481Y-105470132D01*
X129692776Y-105255594D01*
X129755874Y-105040551D01*
X129763510Y-105017455D01*
X129829282Y-104816637D01*
X129889931Y-104623429D01*
X129933895Y-104474799D01*
X129938880Y-104456618D01*
X129993756Y-104317420D01*
X130071500Y-104248846D01*
X130104298Y-104238199D01*
X130176396Y-104196102D01*
X130255907Y-104098626D01*
X130345737Y-103939620D01*
X130448793Y-103712935D01*
X130567980Y-103412418D01*
X130706204Y-103031920D01*
X130794369Y-102777637D01*
X130884303Y-102518667D01*
X130966243Y-102289993D01*
X131034748Y-102106228D01*
X131084376Y-101981983D01*
X131109118Y-101932356D01*
X131167935Y-101933776D01*
X131281192Y-101973040D01*
X131422079Y-102036705D01*
X131563787Y-102111328D01*
X131679506Y-102183469D01*
X131742427Y-102239685D01*
X131747034Y-102252196D01*
X131728203Y-102358266D01*
X131675907Y-102523830D01*
X131599666Y-102725442D01*
X131508998Y-102939652D01*
X131413423Y-103143015D01*
X131322461Y-103312081D01*
X131305283Y-103340318D01*
X131173770Y-103542881D01*
X131072293Y-103676118D01*
X130987221Y-103753326D01*
X130904926Y-103787804D01*
X130840704Y-103793637D01*
X130759111Y-103815679D01*
X130723132Y-103889116D01*
X130731195Y-104024912D01*
X130778937Y-104224215D01*
X130810613Y-104420774D01*
X130796613Y-104650111D01*
X130786733Y-104713245D01*
X130762253Y-104869017D01*
X130758218Y-104952825D01*
X130777532Y-104983567D01*
X130823098Y-104980141D01*
X130827566Y-104979055D01*
X130869019Y-104970034D01*
X130895932Y-104975860D01*
X130908121Y-105009772D01*
X130905406Y-105085008D01*
X130887604Y-105214808D01*
X130854531Y-105412411D01*
X130818769Y-105617818D01*
X130781392Y-105835397D01*
X130750734Y-106020157D01*
X130729925Y-106152793D01*
X130722092Y-106213998D01*
X130722089Y-106214334D01*
X130730388Y-106251061D01*
X130755973Y-106210125D01*
X130799816Y-106088708D01*
X130862891Y-105883993D01*
X130946168Y-105593163D01*
X130986212Y-105448974D01*
X131062703Y-105173227D01*
X131120965Y-104972965D01*
X131167405Y-104834294D01*
X131208434Y-104743320D01*
X131250460Y-104686151D01*
X131299892Y-104648894D01*
X131363138Y-104617654D01*
X131371423Y-104613893D01*
X131567049Y-104481770D01*
X131764613Y-104265924D01*
X131958725Y-103974735D01*
X132143990Y-103616584D01*
X132315016Y-103199851D01*
X132356377Y-103083255D01*
X132431655Y-102872138D01*
X132488488Y-102735983D01*
X132534716Y-102660796D01*
X132578180Y-102632580D01*
X132608722Y-102632809D01*
X132717015Y-102645406D01*
X132866037Y-102654834D01*
X132894663Y-102655900D01*
X133027802Y-102650273D01*
X133091309Y-102615615D01*
X133106585Y-102577711D01*
X133106595Y-102439321D01*
X133044907Y-102284601D01*
X132913950Y-102096377D01*
X132871558Y-102044531D01*
X132675924Y-101810536D01*
X132675924Y-101368966D01*
X132663918Y-101067799D01*
X132623605Y-100835701D01*
X132548545Y-100651721D01*
X132432296Y-100494910D01*
X132395540Y-100457000D01*
X132295374Y-100386800D01*
X132175946Y-100339716D01*
X132067320Y-100322601D01*
X131999563Y-100342310D01*
X131990433Y-100364637D01*
X131981143Y-100494530D01*
X131964298Y-100674949D01*
X131942709Y-100880909D01*
X131919188Y-101087422D01*
X131896548Y-101269502D01*
X131877601Y-101402164D01*
X131867991Y-101452439D01*
X131836297Y-101571830D01*
X131479021Y-101404688D01*
X131304081Y-101320873D01*
X131203171Y-101263597D01*
X131161987Y-101219945D01*
X131166227Y-101177004D01*
X131187716Y-101141682D01*
X131231177Y-101052754D01*
X131287259Y-100902918D01*
X131345397Y-100720989D01*
X131358310Y-100676364D01*
X131423100Y-100452552D01*
X131493619Y-100216604D01*
X131554925Y-100018490D01*
X131556544Y-100013408D01*
X131622724Y-99781758D01*
X131646973Y-99611796D01*
X131626348Y-99480523D01*
X131557909Y-99364938D01*
X131460516Y-99262385D01*
X131284060Y-99130890D01*
X131123847Y-99082154D01*
X130987639Y-99118435D01*
D11*
X112014000Y-118364000D03*
D12*
X112014000Y-115824000D03*
X112014000Y-113284000D03*
X112014000Y-110744000D03*
X112014000Y-108204000D03*
X112014000Y-105664000D03*
X112014000Y-103124000D03*
X112014000Y-100584000D03*
X112014000Y-98044000D03*
X112014000Y-95504000D03*
X112014000Y-92964000D03*
X112014000Y-90424000D03*
X112014000Y-87884000D03*
X112014000Y-85344000D03*
X112014000Y-82804000D03*
X112014000Y-80264000D03*
X112014000Y-77724000D03*
X112014000Y-75184000D03*
X112014000Y-72644000D03*
X112014000Y-70104000D03*
X134874000Y-70104000D03*
X134874000Y-72644000D03*
X134874000Y-75184000D03*
X134874000Y-77724000D03*
X134874000Y-80264000D03*
X134874000Y-82804000D03*
X134874000Y-85344000D03*
X134874000Y-87884000D03*
X134874000Y-90424000D03*
X134874000Y-92964000D03*
X134874000Y-95504000D03*
X134874000Y-98044000D03*
X134874000Y-100584000D03*
X134874000Y-103124000D03*
X134874000Y-105664000D03*
X134874000Y-108204000D03*
X134874000Y-110744000D03*
X134874000Y-113284000D03*
X134874000Y-115824000D03*
D11*
X134874000Y-118364000D03*
D13*
X119378000Y-112624000D03*
X128018000Y-112624000D03*
D14*
X119378000Y-116794000D03*
X128018000Y-116794000D03*
D15*
X119888000Y-90424000D03*
D16*
X122428000Y-90424000D03*
X124968000Y-90424000D03*
X127508000Y-90424000D03*
M02*
