G04 #@! TF.GenerationSoftware,KiCad,Pcbnew,5.1.5+dfsg1-2build2*
G04 #@! TF.CreationDate,2020-09-11T18:15:35+01:00*
G04 #@! TF.ProjectId,lhc_tijolo32_board,6c68635f-7469-46a6-9f6c-6f33325f626f,rev?*
G04 #@! TF.SameCoordinates,Original*
G04 #@! TF.FileFunction,Legend,Top*
G04 #@! TF.FilePolarity,Positive*
%FSLAX46Y46*%
G04 Gerber Fmt 4.6, Leading zero omitted, Abs format (unit mm)*
G04 Created by KiCad (PCBNEW 5.1.5+dfsg1-2build2) date 2020-09-11 18:15:35*
%MOMM*%
%LPD*%
G04 APERTURE LIST*
%ADD10C,0.127000*%
%ADD11C,0.120000*%
%ADD12C,0.203200*%
%ADD13C,0.150000*%
G04 APERTURE END LIST*
D10*
X110744000Y-68199000D02*
X136144000Y-68199000D01*
X136144000Y-68199000D02*
X136144000Y-60706000D01*
X136144000Y-60706000D02*
X110744000Y-60706000D01*
X110744000Y-60706000D02*
X110744000Y-68199000D01*
X110744000Y-68199000D02*
X136144000Y-68199000D01*
X136144000Y-68199000D02*
X136144000Y-60706000D01*
X136144000Y-60706000D02*
X110744000Y-60706000D01*
X110744000Y-60706000D02*
X110744000Y-68199000D01*
D11*
X130901221Y-107694000D02*
X131226779Y-107694000D01*
X130901221Y-108714000D02*
X131226779Y-108714000D01*
X115381721Y-98300000D02*
X115707279Y-98300000D01*
X115381721Y-97280000D02*
X115707279Y-97280000D01*
X131155221Y-88644000D02*
X131480779Y-88644000D01*
X131155221Y-89664000D02*
X131480779Y-89664000D01*
X118709221Y-109472000D02*
X119034779Y-109472000D01*
X118709221Y-110492000D02*
X119034779Y-110492000D01*
X131180721Y-93982000D02*
X131506279Y-93982000D01*
X131180721Y-92962000D02*
X131506279Y-92962000D01*
X126583221Y-97284000D02*
X126908779Y-97284000D01*
X126583221Y-96264000D02*
X126908779Y-96264000D01*
X125313221Y-94998000D02*
X125638779Y-94998000D01*
X125313221Y-93978000D02*
X125638779Y-93978000D01*
X119979221Y-93978000D02*
X120304779Y-93978000D01*
X119979221Y-94998000D02*
X120304779Y-94998000D01*
X117078000Y-93528000D02*
X114393000Y-93528000D01*
X114393000Y-93528000D02*
X114393000Y-95448000D01*
X114393000Y-95448000D02*
X117078000Y-95448000D01*
X128168000Y-119394000D02*
X119228000Y-119394000D01*
X128168000Y-113884000D02*
X128168000Y-115684000D01*
X128168000Y-119394000D02*
X128168000Y-117934000D01*
X119228000Y-119394000D02*
X119228000Y-117934000D01*
X119228000Y-113884000D02*
X119228000Y-115684000D01*
X128838000Y-91754000D02*
X128838000Y-89094000D01*
X121158000Y-91754000D02*
X128838000Y-91754000D01*
X121158000Y-89094000D02*
X128838000Y-89094000D01*
X121158000Y-91754000D02*
X121158000Y-89094000D01*
X119888000Y-91754000D02*
X118558000Y-91754000D01*
X118558000Y-91754000D02*
X118558000Y-90424000D01*
X132078000Y-99370000D02*
X130618000Y-99370000D01*
X132078000Y-96210000D02*
X129918000Y-96210000D01*
X132078000Y-96210000D02*
X132078000Y-97140000D01*
X132078000Y-99370000D02*
X132078000Y-98440000D01*
X116330000Y-108768000D02*
X116330000Y-107838000D01*
X116330000Y-105608000D02*
X116330000Y-106538000D01*
X116330000Y-105608000D02*
X114170000Y-105608000D01*
X116330000Y-108768000D02*
X114870000Y-108768000D01*
X115940721Y-101598000D02*
X116266279Y-101598000D01*
X115940721Y-102618000D02*
X116266279Y-102618000D01*
X128869221Y-94486000D02*
X129194779Y-94486000D01*
X128869221Y-95506000D02*
X129194779Y-95506000D01*
X127624721Y-110492000D02*
X127950279Y-110492000D01*
X127624721Y-109472000D02*
X127950279Y-109472000D01*
X115407221Y-89406000D02*
X115732779Y-89406000D01*
X115407221Y-90426000D02*
X115732779Y-90426000D01*
X122544721Y-97284000D02*
X122870279Y-97284000D01*
X122544721Y-96264000D02*
X122870279Y-96264000D01*
D12*
X129570480Y-117048280D02*
X129570480Y-111551720D01*
X133065520Y-111551720D02*
X133065520Y-117048280D01*
X132816600Y-117299740D02*
X132417820Y-117299740D01*
X130218180Y-117299740D02*
X129819400Y-117299740D01*
X130218180Y-111300260D02*
X129819400Y-111300260D01*
X132816600Y-111300260D02*
X132417820Y-111300260D01*
X130568700Y-115798600D02*
X130568700Y-112801400D01*
X132067300Y-112801400D02*
X132067300Y-115798600D01*
X132067300Y-115798600D02*
X130568700Y-115798600D01*
X132067300Y-112801400D02*
X130568700Y-112801400D01*
X129567940Y-117048280D02*
G75*
G03X129819400Y-117299740I251460J0D01*
G01*
X129819400Y-111302800D02*
G75*
G03X129570480Y-111551720I0J-248920D01*
G01*
X133068060Y-111551720D02*
G75*
G03X132816600Y-111300260I-251460J0D01*
G01*
X132816600Y-117297200D02*
G75*
G03X133065520Y-117048280I0J248920D01*
G01*
X117576600Y-117297200D02*
G75*
G03X117825520Y-117048280I0J248920D01*
G01*
X117828060Y-111551720D02*
G75*
G03X117576600Y-111300260I-251460J0D01*
G01*
X114579400Y-111302800D02*
G75*
G03X114330480Y-111551720I0J-248920D01*
G01*
X114327940Y-117048280D02*
G75*
G03X114579400Y-117299740I251460J0D01*
G01*
X116827300Y-112801400D02*
X115328700Y-112801400D01*
X116827300Y-115798600D02*
X115328700Y-115798600D01*
X116827300Y-112801400D02*
X116827300Y-115798600D01*
X115328700Y-115798600D02*
X115328700Y-112801400D01*
X117576600Y-111300260D02*
X117177820Y-111300260D01*
X114978180Y-111300260D02*
X114579400Y-111300260D01*
X114978180Y-117299740D02*
X114579400Y-117299740D01*
X117576600Y-117299740D02*
X117177820Y-117299740D01*
X117825520Y-111551720D02*
X117825520Y-117048280D01*
X114330480Y-117048280D02*
X114330480Y-111551720D01*
D11*
X118480000Y-100162000D02*
X120280000Y-100162000D01*
X120280000Y-96942000D02*
X117830000Y-96942000D01*
X128377000Y-105091000D02*
X128377000Y-103141000D01*
X128377000Y-105091000D02*
X128377000Y-107041000D01*
X118257000Y-105091000D02*
X118257000Y-103141000D01*
X118257000Y-105091000D02*
X118257000Y-108541000D01*
X114324000Y-86062000D02*
X114324000Y-86842000D01*
X114324000Y-86842000D02*
X115324000Y-86842000D01*
X132564000Y-86062000D02*
X132564000Y-86842000D01*
X132564000Y-86842000D02*
X131564000Y-86842000D01*
X114324000Y-61097000D02*
X132564000Y-61097000D01*
X132564000Y-61097000D02*
X132564000Y-67517000D01*
X114324000Y-61097000D02*
X114324000Y-67517000D01*
X114324000Y-67517000D02*
X113944000Y-67517000D01*
X129198000Y-102910000D02*
X129198000Y-106110000D01*
X129198000Y-106110000D02*
X133098000Y-106110000D01*
D10*
X123197257Y-117050457D02*
X123284342Y-117079485D01*
X123313371Y-117108514D01*
X123342400Y-117166571D01*
X123342400Y-117253657D01*
X123313371Y-117311714D01*
X123284342Y-117340742D01*
X123226285Y-117369771D01*
X122994057Y-117369771D01*
X122994057Y-116760171D01*
X123197257Y-116760171D01*
X123255314Y-116789200D01*
X123284342Y-116818228D01*
X123313371Y-116876285D01*
X123313371Y-116934342D01*
X123284342Y-116992400D01*
X123255314Y-117021428D01*
X123197257Y-117050457D01*
X122994057Y-117050457D01*
X123922971Y-117369771D02*
X123574628Y-117369771D01*
X123748800Y-117369771D02*
X123748800Y-116760171D01*
X123690742Y-116847257D01*
X123632685Y-116905314D01*
X123574628Y-116934342D01*
X116694857Y-118320457D02*
X116898057Y-118320457D01*
X116985142Y-118639771D02*
X116694857Y-118639771D01*
X116694857Y-118030171D01*
X116985142Y-118030171D01*
X117217371Y-118610742D02*
X117304457Y-118639771D01*
X117449600Y-118639771D01*
X117507657Y-118610742D01*
X117536685Y-118581714D01*
X117565714Y-118523657D01*
X117565714Y-118465600D01*
X117536685Y-118407542D01*
X117507657Y-118378514D01*
X117449600Y-118349485D01*
X117333485Y-118320457D01*
X117275428Y-118291428D01*
X117246400Y-118262400D01*
X117217371Y-118204342D01*
X117217371Y-118146285D01*
X117246400Y-118088228D01*
X117275428Y-118059200D01*
X117333485Y-118030171D01*
X117478628Y-118030171D01*
X117565714Y-118059200D01*
X117826971Y-118639771D02*
X117826971Y-118030171D01*
X118059200Y-118030171D01*
X118117257Y-118059200D01*
X118146285Y-118088228D01*
X118175314Y-118146285D01*
X118175314Y-118233371D01*
X118146285Y-118291428D01*
X118117257Y-118320457D01*
X118059200Y-118349485D01*
X117826971Y-118349485D01*
X118378514Y-118030171D02*
X118755885Y-118030171D01*
X118552685Y-118262400D01*
X118639771Y-118262400D01*
X118697828Y-118291428D01*
X118726857Y-118320457D01*
X118755885Y-118378514D01*
X118755885Y-118523657D01*
X118726857Y-118581714D01*
X118697828Y-118610742D01*
X118639771Y-118639771D01*
X118465600Y-118639771D01*
X118407542Y-118610742D01*
X118378514Y-118581714D01*
X118988114Y-118088228D02*
X119017142Y-118059200D01*
X119075200Y-118030171D01*
X119220342Y-118030171D01*
X119278400Y-118059200D01*
X119307428Y-118088228D01*
X119336457Y-118146285D01*
X119336457Y-118204342D01*
X119307428Y-118291428D01*
X118959085Y-118639771D01*
X119336457Y-118639771D01*
X119452571Y-118697828D02*
X119917028Y-118697828D01*
X119975085Y-118030171D02*
X120323428Y-118030171D01*
X120149257Y-118639771D02*
X120149257Y-118030171D01*
X120526628Y-118639771D02*
X120526628Y-118030171D01*
X120526628Y-118320457D02*
X120874971Y-118320457D01*
X120874971Y-118639771D02*
X120874971Y-118030171D01*
X121165257Y-118639771D02*
X121165257Y-118030171D01*
X121455542Y-118639771D02*
X121455542Y-118030171D01*
X121803885Y-118639771D01*
X121803885Y-118030171D01*
X122413485Y-118059200D02*
X122355428Y-118030171D01*
X122268342Y-118030171D01*
X122181257Y-118059200D01*
X122123200Y-118117257D01*
X122094171Y-118175314D01*
X122065142Y-118291428D01*
X122065142Y-118378514D01*
X122094171Y-118494628D01*
X122123200Y-118552685D01*
X122181257Y-118610742D01*
X122268342Y-118639771D01*
X122326400Y-118639771D01*
X122413485Y-118610742D01*
X122442514Y-118581714D01*
X122442514Y-118378514D01*
X122326400Y-118378514D01*
X122558628Y-118697828D02*
X123023085Y-118697828D01*
X123110171Y-118030171D02*
X123255314Y-118639771D01*
X123371428Y-118204342D01*
X123487542Y-118639771D01*
X123632685Y-118030171D01*
X123719771Y-118697828D02*
X124184228Y-118697828D01*
X124300342Y-118465600D02*
X124590628Y-118465600D01*
X124242285Y-118639771D02*
X124445485Y-118030171D01*
X124648685Y-118639771D01*
X124851885Y-118639771D02*
X124851885Y-118030171D01*
X125200228Y-118639771D01*
X125200228Y-118030171D01*
X125403428Y-118030171D02*
X125751771Y-118030171D01*
X125577600Y-118639771D02*
X125577600Y-118030171D01*
X125809828Y-118697828D02*
X126274285Y-118697828D01*
X126419428Y-118639771D02*
X126419428Y-118030171D01*
X126767771Y-118639771D02*
X126506514Y-118291428D01*
X126767771Y-118030171D02*
X126419428Y-118378514D01*
X127029028Y-118320457D02*
X127232228Y-118320457D01*
X127319314Y-118639771D02*
X127029028Y-118639771D01*
X127029028Y-118030171D01*
X127319314Y-118030171D01*
X127580571Y-118320457D02*
X127783771Y-118320457D01*
X127870857Y-118639771D02*
X127580571Y-118639771D01*
X127580571Y-118030171D01*
X127870857Y-118030171D01*
X128132114Y-118639771D02*
X128132114Y-118030171D01*
X128364342Y-118030171D01*
X128422400Y-118059200D01*
X128451428Y-118088228D01*
X128480457Y-118146285D01*
X128480457Y-118233371D01*
X128451428Y-118291428D01*
X128422400Y-118320457D01*
X128364342Y-118349485D01*
X128132114Y-118349485D01*
X128857828Y-118030171D02*
X128973942Y-118030171D01*
X129032000Y-118059200D01*
X129090057Y-118117257D01*
X129119085Y-118233371D01*
X129119085Y-118436571D01*
X129090057Y-118552685D01*
X129032000Y-118610742D01*
X128973942Y-118639771D01*
X128857828Y-118639771D01*
X128799771Y-118610742D01*
X128741714Y-118552685D01*
X128712685Y-118436571D01*
X128712685Y-118233371D01*
X128741714Y-118117257D01*
X128799771Y-118059200D01*
X128857828Y-118030171D01*
X129380342Y-118030171D02*
X129380342Y-118523657D01*
X129409371Y-118581714D01*
X129438400Y-118610742D01*
X129496457Y-118639771D01*
X129612571Y-118639771D01*
X129670628Y-118610742D01*
X129699657Y-118581714D01*
X129728685Y-118523657D01*
X129728685Y-118030171D01*
X129931885Y-118030171D02*
X130280228Y-118030171D01*
X130106057Y-118639771D02*
X130106057Y-118030171D01*
D13*
X130897333Y-107131142D02*
X130849714Y-107178761D01*
X130706857Y-107226380D01*
X130611619Y-107226380D01*
X130468761Y-107178761D01*
X130373523Y-107083523D01*
X130325904Y-106988285D01*
X130278285Y-106797809D01*
X130278285Y-106654952D01*
X130325904Y-106464476D01*
X130373523Y-106369238D01*
X130468761Y-106274000D01*
X130611619Y-106226380D01*
X130706857Y-106226380D01*
X130849714Y-106274000D01*
X130897333Y-106321619D01*
X131849714Y-107226380D02*
X131278285Y-107226380D01*
X131564000Y-107226380D02*
X131564000Y-106226380D01*
X131468761Y-106369238D01*
X131373523Y-106464476D01*
X131278285Y-106512095D01*
X115377833Y-96717142D02*
X115330214Y-96764761D01*
X115187357Y-96812380D01*
X115092119Y-96812380D01*
X114949261Y-96764761D01*
X114854023Y-96669523D01*
X114806404Y-96574285D01*
X114758785Y-96383809D01*
X114758785Y-96240952D01*
X114806404Y-96050476D01*
X114854023Y-95955238D01*
X114949261Y-95860000D01*
X115092119Y-95812380D01*
X115187357Y-95812380D01*
X115330214Y-95860000D01*
X115377833Y-95907619D01*
X115758785Y-95907619D02*
X115806404Y-95860000D01*
X115901642Y-95812380D01*
X116139738Y-95812380D01*
X116234976Y-95860000D01*
X116282595Y-95907619D01*
X116330214Y-96002857D01*
X116330214Y-96098095D01*
X116282595Y-96240952D01*
X115711166Y-96812380D01*
X116330214Y-96812380D01*
X131151333Y-88081142D02*
X131103714Y-88128761D01*
X130960857Y-88176380D01*
X130865619Y-88176380D01*
X130722761Y-88128761D01*
X130627523Y-88033523D01*
X130579904Y-87938285D01*
X130532285Y-87747809D01*
X130532285Y-87604952D01*
X130579904Y-87414476D01*
X130627523Y-87319238D01*
X130722761Y-87224000D01*
X130865619Y-87176380D01*
X130960857Y-87176380D01*
X131103714Y-87224000D01*
X131151333Y-87271619D01*
X131484666Y-87176380D02*
X132103714Y-87176380D01*
X131770380Y-87557333D01*
X131913238Y-87557333D01*
X132008476Y-87604952D01*
X132056095Y-87652571D01*
X132103714Y-87747809D01*
X132103714Y-87985904D01*
X132056095Y-88081142D01*
X132008476Y-88128761D01*
X131913238Y-88176380D01*
X131627523Y-88176380D01*
X131532285Y-88128761D01*
X131484666Y-88081142D01*
X118705333Y-108909142D02*
X118657714Y-108956761D01*
X118514857Y-109004380D01*
X118419619Y-109004380D01*
X118276761Y-108956761D01*
X118181523Y-108861523D01*
X118133904Y-108766285D01*
X118086285Y-108575809D01*
X118086285Y-108432952D01*
X118133904Y-108242476D01*
X118181523Y-108147238D01*
X118276761Y-108052000D01*
X118419619Y-108004380D01*
X118514857Y-108004380D01*
X118657714Y-108052000D01*
X118705333Y-108099619D01*
X119562476Y-108337714D02*
X119562476Y-109004380D01*
X119324380Y-107956761D02*
X119086285Y-108671047D01*
X119705333Y-108671047D01*
X131176833Y-92399142D02*
X131129214Y-92446761D01*
X130986357Y-92494380D01*
X130891119Y-92494380D01*
X130748261Y-92446761D01*
X130653023Y-92351523D01*
X130605404Y-92256285D01*
X130557785Y-92065809D01*
X130557785Y-91922952D01*
X130605404Y-91732476D01*
X130653023Y-91637238D01*
X130748261Y-91542000D01*
X130891119Y-91494380D01*
X130986357Y-91494380D01*
X131129214Y-91542000D01*
X131176833Y-91589619D01*
X132081595Y-91494380D02*
X131605404Y-91494380D01*
X131557785Y-91970571D01*
X131605404Y-91922952D01*
X131700642Y-91875333D01*
X131938738Y-91875333D01*
X132033976Y-91922952D01*
X132081595Y-91970571D01*
X132129214Y-92065809D01*
X132129214Y-92303904D01*
X132081595Y-92399142D01*
X132033976Y-92446761D01*
X131938738Y-92494380D01*
X131700642Y-92494380D01*
X131605404Y-92446761D01*
X131557785Y-92399142D01*
X126579333Y-95701142D02*
X126531714Y-95748761D01*
X126388857Y-95796380D01*
X126293619Y-95796380D01*
X126150761Y-95748761D01*
X126055523Y-95653523D01*
X126007904Y-95558285D01*
X125960285Y-95367809D01*
X125960285Y-95224952D01*
X126007904Y-95034476D01*
X126055523Y-94939238D01*
X126150761Y-94844000D01*
X126293619Y-94796380D01*
X126388857Y-94796380D01*
X126531714Y-94844000D01*
X126579333Y-94891619D01*
X127436476Y-94796380D02*
X127246000Y-94796380D01*
X127150761Y-94844000D01*
X127103142Y-94891619D01*
X127007904Y-95034476D01*
X126960285Y-95224952D01*
X126960285Y-95605904D01*
X127007904Y-95701142D01*
X127055523Y-95748761D01*
X127150761Y-95796380D01*
X127341238Y-95796380D01*
X127436476Y-95748761D01*
X127484095Y-95701142D01*
X127531714Y-95605904D01*
X127531714Y-95367809D01*
X127484095Y-95272571D01*
X127436476Y-95224952D01*
X127341238Y-95177333D01*
X127150761Y-95177333D01*
X127055523Y-95224952D01*
X127007904Y-95272571D01*
X126960285Y-95367809D01*
X125309333Y-93415142D02*
X125261714Y-93462761D01*
X125118857Y-93510380D01*
X125023619Y-93510380D01*
X124880761Y-93462761D01*
X124785523Y-93367523D01*
X124737904Y-93272285D01*
X124690285Y-93081809D01*
X124690285Y-92938952D01*
X124737904Y-92748476D01*
X124785523Y-92653238D01*
X124880761Y-92558000D01*
X125023619Y-92510380D01*
X125118857Y-92510380D01*
X125261714Y-92558000D01*
X125309333Y-92605619D01*
X125642666Y-92510380D02*
X126309333Y-92510380D01*
X125880761Y-93510380D01*
X119975333Y-93415142D02*
X119927714Y-93462761D01*
X119784857Y-93510380D01*
X119689619Y-93510380D01*
X119546761Y-93462761D01*
X119451523Y-93367523D01*
X119403904Y-93272285D01*
X119356285Y-93081809D01*
X119356285Y-92938952D01*
X119403904Y-92748476D01*
X119451523Y-92653238D01*
X119546761Y-92558000D01*
X119689619Y-92510380D01*
X119784857Y-92510380D01*
X119927714Y-92558000D01*
X119975333Y-92605619D01*
X120546761Y-92938952D02*
X120451523Y-92891333D01*
X120403904Y-92843714D01*
X120356285Y-92748476D01*
X120356285Y-92700857D01*
X120403904Y-92605619D01*
X120451523Y-92558000D01*
X120546761Y-92510380D01*
X120737238Y-92510380D01*
X120832476Y-92558000D01*
X120880095Y-92605619D01*
X120927714Y-92700857D01*
X120927714Y-92748476D01*
X120880095Y-92843714D01*
X120832476Y-92891333D01*
X120737238Y-92938952D01*
X120546761Y-92938952D01*
X120451523Y-92986571D01*
X120403904Y-93034190D01*
X120356285Y-93129428D01*
X120356285Y-93319904D01*
X120403904Y-93415142D01*
X120451523Y-93462761D01*
X120546761Y-93510380D01*
X120737238Y-93510380D01*
X120832476Y-93462761D01*
X120880095Y-93415142D01*
X120927714Y-93319904D01*
X120927714Y-93129428D01*
X120880095Y-93034190D01*
X120832476Y-92986571D01*
X120737238Y-92938952D01*
X115339904Y-93290380D02*
X115339904Y-92290380D01*
X115578000Y-92290380D01*
X115720857Y-92338000D01*
X115816095Y-92433238D01*
X115863714Y-92528476D01*
X115911333Y-92718952D01*
X115911333Y-92861809D01*
X115863714Y-93052285D01*
X115816095Y-93147523D01*
X115720857Y-93242761D01*
X115578000Y-93290380D01*
X115339904Y-93290380D01*
X116863714Y-93290380D02*
X116292285Y-93290380D01*
X116578000Y-93290380D02*
X116578000Y-92290380D01*
X116482761Y-92433238D01*
X116387523Y-92528476D01*
X116292285Y-92576095D01*
X123364666Y-109426380D02*
X123364666Y-110140666D01*
X123317047Y-110283523D01*
X123221809Y-110378761D01*
X123078952Y-110426380D01*
X122983714Y-110426380D01*
X124364666Y-110426380D02*
X123793238Y-110426380D01*
X124078952Y-110426380D02*
X124078952Y-109426380D01*
X123983714Y-109569238D01*
X123888476Y-109664476D01*
X123793238Y-109712095D01*
X117010380Y-90757333D02*
X117724666Y-90757333D01*
X117867523Y-90804952D01*
X117962761Y-90900190D01*
X118010380Y-91043047D01*
X118010380Y-91138285D01*
X117105619Y-90328761D02*
X117058000Y-90281142D01*
X117010380Y-90185904D01*
X117010380Y-89947809D01*
X117058000Y-89852571D01*
X117105619Y-89804952D01*
X117200857Y-89757333D01*
X117296095Y-89757333D01*
X117438952Y-89804952D01*
X118010380Y-90376380D01*
X118010380Y-89757333D01*
X131222761Y-95837619D02*
X131127523Y-95790000D01*
X131032285Y-95694761D01*
X130889428Y-95551904D01*
X130794190Y-95504285D01*
X130698952Y-95504285D01*
X130746571Y-95742380D02*
X130651333Y-95694761D01*
X130556095Y-95599523D01*
X130508476Y-95409047D01*
X130508476Y-95075714D01*
X130556095Y-94885238D01*
X130651333Y-94790000D01*
X130746571Y-94742380D01*
X130937047Y-94742380D01*
X131032285Y-94790000D01*
X131127523Y-94885238D01*
X131175142Y-95075714D01*
X131175142Y-95409047D01*
X131127523Y-95599523D01*
X131032285Y-95694761D01*
X130937047Y-95742380D01*
X130746571Y-95742380D01*
X132127523Y-95742380D02*
X131556095Y-95742380D01*
X131841809Y-95742380D02*
X131841809Y-94742380D01*
X131746571Y-94885238D01*
X131651333Y-94980476D01*
X131556095Y-95028095D01*
X115474761Y-105235619D02*
X115379523Y-105188000D01*
X115284285Y-105092761D01*
X115141428Y-104949904D01*
X115046190Y-104902285D01*
X114950952Y-104902285D01*
X114998571Y-105140380D02*
X114903333Y-105092761D01*
X114808095Y-104997523D01*
X114760476Y-104807047D01*
X114760476Y-104473714D01*
X114808095Y-104283238D01*
X114903333Y-104188000D01*
X114998571Y-104140380D01*
X115189047Y-104140380D01*
X115284285Y-104188000D01*
X115379523Y-104283238D01*
X115427142Y-104473714D01*
X115427142Y-104807047D01*
X115379523Y-104997523D01*
X115284285Y-105092761D01*
X115189047Y-105140380D01*
X114998571Y-105140380D01*
X115808095Y-104235619D02*
X115855714Y-104188000D01*
X115950952Y-104140380D01*
X116189047Y-104140380D01*
X116284285Y-104188000D01*
X116331904Y-104235619D01*
X116379523Y-104330857D01*
X116379523Y-104426095D01*
X116331904Y-104568952D01*
X115760476Y-105140380D01*
X116379523Y-105140380D01*
X115936833Y-101130380D02*
X115603500Y-100654190D01*
X115365404Y-101130380D02*
X115365404Y-100130380D01*
X115746357Y-100130380D01*
X115841595Y-100178000D01*
X115889214Y-100225619D01*
X115936833Y-100320857D01*
X115936833Y-100463714D01*
X115889214Y-100558952D01*
X115841595Y-100606571D01*
X115746357Y-100654190D01*
X115365404Y-100654190D01*
X116889214Y-101130380D02*
X116317785Y-101130380D01*
X116603500Y-101130380D02*
X116603500Y-100130380D01*
X116508261Y-100273238D01*
X116413023Y-100368476D01*
X116317785Y-100416095D01*
X128865333Y-94018380D02*
X128532000Y-93542190D01*
X128293904Y-94018380D02*
X128293904Y-93018380D01*
X128674857Y-93018380D01*
X128770095Y-93066000D01*
X128817714Y-93113619D01*
X128865333Y-93208857D01*
X128865333Y-93351714D01*
X128817714Y-93446952D01*
X128770095Y-93494571D01*
X128674857Y-93542190D01*
X128293904Y-93542190D01*
X129246285Y-93113619D02*
X129293904Y-93066000D01*
X129389142Y-93018380D01*
X129627238Y-93018380D01*
X129722476Y-93066000D01*
X129770095Y-93113619D01*
X129817714Y-93208857D01*
X129817714Y-93304095D01*
X129770095Y-93446952D01*
X129198666Y-94018380D01*
X129817714Y-94018380D01*
X127620833Y-109004380D02*
X127287500Y-108528190D01*
X127049404Y-109004380D02*
X127049404Y-108004380D01*
X127430357Y-108004380D01*
X127525595Y-108052000D01*
X127573214Y-108099619D01*
X127620833Y-108194857D01*
X127620833Y-108337714D01*
X127573214Y-108432952D01*
X127525595Y-108480571D01*
X127430357Y-108528190D01*
X127049404Y-108528190D01*
X127954166Y-108004380D02*
X128573214Y-108004380D01*
X128239880Y-108385333D01*
X128382738Y-108385333D01*
X128477976Y-108432952D01*
X128525595Y-108480571D01*
X128573214Y-108575809D01*
X128573214Y-108813904D01*
X128525595Y-108909142D01*
X128477976Y-108956761D01*
X128382738Y-109004380D01*
X128097023Y-109004380D01*
X128001785Y-108956761D01*
X127954166Y-108909142D01*
X115403333Y-88938380D02*
X115070000Y-88462190D01*
X114831904Y-88938380D02*
X114831904Y-87938380D01*
X115212857Y-87938380D01*
X115308095Y-87986000D01*
X115355714Y-88033619D01*
X115403333Y-88128857D01*
X115403333Y-88271714D01*
X115355714Y-88366952D01*
X115308095Y-88414571D01*
X115212857Y-88462190D01*
X114831904Y-88462190D01*
X116260476Y-88271714D02*
X116260476Y-88938380D01*
X116022380Y-87890761D02*
X115784285Y-88605047D01*
X116403333Y-88605047D01*
X122540833Y-95796380D02*
X122207500Y-95320190D01*
X121969404Y-95796380D02*
X121969404Y-94796380D01*
X122350357Y-94796380D01*
X122445595Y-94844000D01*
X122493214Y-94891619D01*
X122540833Y-94986857D01*
X122540833Y-95129714D01*
X122493214Y-95224952D01*
X122445595Y-95272571D01*
X122350357Y-95320190D01*
X121969404Y-95320190D01*
X123445595Y-94796380D02*
X122969404Y-94796380D01*
X122921785Y-95272571D01*
X122969404Y-95224952D01*
X123064642Y-95177333D01*
X123302738Y-95177333D01*
X123397976Y-95224952D01*
X123445595Y-95272571D01*
X123493214Y-95367809D01*
X123493214Y-95605904D01*
X123445595Y-95701142D01*
X123397976Y-95748761D01*
X123302738Y-95796380D01*
X123064642Y-95796380D01*
X122969404Y-95748761D01*
X122921785Y-95701142D01*
D10*
X129151742Y-115112800D02*
X129180771Y-115025714D01*
X129180771Y-114880571D01*
X129151742Y-114822514D01*
X129122714Y-114793485D01*
X129064657Y-114764457D01*
X129006600Y-114764457D01*
X128948542Y-114793485D01*
X128919514Y-114822514D01*
X128890485Y-114880571D01*
X128861457Y-114996685D01*
X128832428Y-115054742D01*
X128803400Y-115083771D01*
X128745342Y-115112800D01*
X128687285Y-115112800D01*
X128629228Y-115083771D01*
X128600200Y-115054742D01*
X128571171Y-114996685D01*
X128571171Y-114851542D01*
X128600200Y-114764457D01*
X128571171Y-114561257D02*
X129180771Y-114416114D01*
X128745342Y-114300000D01*
X129180771Y-114183885D01*
X128571171Y-114038742D01*
X129180771Y-113487200D02*
X129180771Y-113835542D01*
X129180771Y-113661371D02*
X128571171Y-113661371D01*
X128658257Y-113719428D01*
X128716314Y-113777485D01*
X128745342Y-113835542D01*
X134104742Y-116157828D02*
X134133771Y-116070742D01*
X134133771Y-115925600D01*
X134104742Y-115867542D01*
X134075714Y-115838514D01*
X134017657Y-115809485D01*
X133959600Y-115809485D01*
X133901542Y-115838514D01*
X133872514Y-115867542D01*
X133843485Y-115925600D01*
X133814457Y-116041714D01*
X133785428Y-116099771D01*
X133756400Y-116128800D01*
X133698342Y-116157828D01*
X133640285Y-116157828D01*
X133582228Y-116128800D01*
X133553200Y-116099771D01*
X133524171Y-116041714D01*
X133524171Y-115896571D01*
X133553200Y-115809485D01*
X133524171Y-115606285D02*
X134133771Y-115461142D01*
X133698342Y-115345028D01*
X134133771Y-115228914D01*
X133524171Y-115083771D01*
X134191828Y-114996685D02*
X134191828Y-114532228D01*
X134133771Y-114387085D02*
X133524171Y-114387085D01*
X133524171Y-114154857D01*
X133553200Y-114096800D01*
X133582228Y-114067771D01*
X133640285Y-114038742D01*
X133727371Y-114038742D01*
X133785428Y-114067771D01*
X133814457Y-114096800D01*
X133843485Y-114154857D01*
X133843485Y-114387085D01*
X133727371Y-113516228D02*
X134133771Y-113516228D01*
X133727371Y-113777485D02*
X134046685Y-113777485D01*
X134104742Y-113748457D01*
X134133771Y-113690400D01*
X134133771Y-113603314D01*
X134104742Y-113545257D01*
X134075714Y-113516228D01*
X134104742Y-113254971D02*
X134133771Y-113196914D01*
X134133771Y-113080800D01*
X134104742Y-113022742D01*
X134046685Y-112993714D01*
X134017657Y-112993714D01*
X133959600Y-113022742D01*
X133930571Y-113080800D01*
X133930571Y-113167885D01*
X133901542Y-113225942D01*
X133843485Y-113254971D01*
X133814457Y-113254971D01*
X133756400Y-113225942D01*
X133727371Y-113167885D01*
X133727371Y-113080800D01*
X133756400Y-113022742D01*
X134133771Y-112732457D02*
X133524171Y-112732457D01*
X134133771Y-112471200D02*
X133814457Y-112471200D01*
X133756400Y-112500228D01*
X133727371Y-112558285D01*
X133727371Y-112645371D01*
X133756400Y-112703428D01*
X133785428Y-112732457D01*
X113911742Y-115112800D02*
X113940771Y-115025714D01*
X113940771Y-114880571D01*
X113911742Y-114822514D01*
X113882714Y-114793485D01*
X113824657Y-114764457D01*
X113766600Y-114764457D01*
X113708542Y-114793485D01*
X113679514Y-114822514D01*
X113650485Y-114880571D01*
X113621457Y-114996685D01*
X113592428Y-115054742D01*
X113563400Y-115083771D01*
X113505342Y-115112800D01*
X113447285Y-115112800D01*
X113389228Y-115083771D01*
X113360200Y-115054742D01*
X113331171Y-114996685D01*
X113331171Y-114851542D01*
X113360200Y-114764457D01*
X113331171Y-114561257D02*
X113940771Y-114416114D01*
X113505342Y-114300000D01*
X113940771Y-114183885D01*
X113331171Y-114038742D01*
X113389228Y-113835542D02*
X113360200Y-113806514D01*
X113331171Y-113748457D01*
X113331171Y-113603314D01*
X113360200Y-113545257D01*
X113389228Y-113516228D01*
X113447285Y-113487200D01*
X113505342Y-113487200D01*
X113592428Y-113516228D01*
X113940771Y-113864571D01*
X113940771Y-113487200D01*
X118864742Y-116157828D02*
X118893771Y-116070742D01*
X118893771Y-115925600D01*
X118864742Y-115867542D01*
X118835714Y-115838514D01*
X118777657Y-115809485D01*
X118719600Y-115809485D01*
X118661542Y-115838514D01*
X118632514Y-115867542D01*
X118603485Y-115925600D01*
X118574457Y-116041714D01*
X118545428Y-116099771D01*
X118516400Y-116128800D01*
X118458342Y-116157828D01*
X118400285Y-116157828D01*
X118342228Y-116128800D01*
X118313200Y-116099771D01*
X118284171Y-116041714D01*
X118284171Y-115896571D01*
X118313200Y-115809485D01*
X118284171Y-115606285D02*
X118893771Y-115461142D01*
X118458342Y-115345028D01*
X118893771Y-115228914D01*
X118284171Y-115083771D01*
X118951828Y-114996685D02*
X118951828Y-114532228D01*
X118893771Y-114387085D02*
X118284171Y-114387085D01*
X118284171Y-114154857D01*
X118313200Y-114096800D01*
X118342228Y-114067771D01*
X118400285Y-114038742D01*
X118487371Y-114038742D01*
X118545428Y-114067771D01*
X118574457Y-114096800D01*
X118603485Y-114154857D01*
X118603485Y-114387085D01*
X118487371Y-113516228D02*
X118893771Y-113516228D01*
X118487371Y-113777485D02*
X118806685Y-113777485D01*
X118864742Y-113748457D01*
X118893771Y-113690400D01*
X118893771Y-113603314D01*
X118864742Y-113545257D01*
X118835714Y-113516228D01*
X118864742Y-113254971D02*
X118893771Y-113196914D01*
X118893771Y-113080800D01*
X118864742Y-113022742D01*
X118806685Y-112993714D01*
X118777657Y-112993714D01*
X118719600Y-113022742D01*
X118690571Y-113080800D01*
X118690571Y-113167885D01*
X118661542Y-113225942D01*
X118603485Y-113254971D01*
X118574457Y-113254971D01*
X118516400Y-113225942D01*
X118487371Y-113167885D01*
X118487371Y-113080800D01*
X118516400Y-113022742D01*
X118893771Y-112732457D02*
X118284171Y-112732457D01*
X118893771Y-112471200D02*
X118574457Y-112471200D01*
X118516400Y-112500228D01*
X118487371Y-112558285D01*
X118487371Y-112645371D01*
X118516400Y-112703428D01*
X118545428Y-112732457D01*
D13*
X118618095Y-95104380D02*
X118618095Y-95913904D01*
X118665714Y-96009142D01*
X118713333Y-96056761D01*
X118808571Y-96104380D01*
X118999047Y-96104380D01*
X119094285Y-96056761D01*
X119141904Y-96009142D01*
X119189523Y-95913904D01*
X119189523Y-95104380D01*
X120189523Y-96104380D02*
X119618095Y-96104380D01*
X119903809Y-96104380D02*
X119903809Y-95104380D01*
X119808571Y-95247238D01*
X119713333Y-95342476D01*
X119618095Y-95390095D01*
X116869380Y-105852904D02*
X117678904Y-105852904D01*
X117774142Y-105805285D01*
X117821761Y-105757666D01*
X117869380Y-105662428D01*
X117869380Y-105471952D01*
X117821761Y-105376714D01*
X117774142Y-105329095D01*
X117678904Y-105281476D01*
X116869380Y-105281476D01*
X116964619Y-104852904D02*
X116917000Y-104805285D01*
X116869380Y-104710047D01*
X116869380Y-104471952D01*
X116917000Y-104376714D01*
X116964619Y-104329095D01*
X117059857Y-104281476D01*
X117155095Y-104281476D01*
X117297952Y-104329095D01*
X117869380Y-104900523D01*
X117869380Y-104281476D01*
X112286380Y-86153904D02*
X113095904Y-86153904D01*
X113191142Y-86106285D01*
X113238761Y-86058666D01*
X113286380Y-85963428D01*
X113286380Y-85772952D01*
X113238761Y-85677714D01*
X113191142Y-85630095D01*
X113095904Y-85582476D01*
X112286380Y-85582476D01*
X112286380Y-85201523D02*
X112286380Y-84582476D01*
X112667333Y-84915809D01*
X112667333Y-84772952D01*
X112714952Y-84677714D01*
X112762571Y-84630095D01*
X112857809Y-84582476D01*
X113095904Y-84582476D01*
X113191142Y-84630095D01*
X113238761Y-84677714D01*
X113286380Y-84772952D01*
X113286380Y-85058666D01*
X113238761Y-85153904D01*
X113191142Y-85201523D01*
X130671809Y-102036190D02*
X130671809Y-102512380D01*
X130338476Y-101512380D02*
X130671809Y-102036190D01*
X131005142Y-101512380D01*
X131862285Y-102512380D02*
X131290857Y-102512380D01*
X131576571Y-102512380D02*
X131576571Y-101512380D01*
X131481333Y-101655238D01*
X131386095Y-101750476D01*
X131290857Y-101798095D01*
M02*
